<svg width="29" height="29" viewBox="0 0 29 29" fill="none" xmlns="http://www.w3.org/2000/svg">
<path d="M14.2678 28.5356C22.1477 28.5356 28.5356 22.1477 28.5356 14.2678C28.5356 6.38791 22.1477 0 14.2678 0C6.38791 0 0 6.38791 0 14.2678C0 22.1477 6.38791 28.5356 14.2678 28.5356Z" fill="#627EEA"/>
<path d="M14.7129 3.56445V11.4745L21.3982 14.4623L14.7129 3.56445Z" fill="white" fill-opacity="0.602"/>
<path d="M14.7127 3.56445L8.02734 14.4623L14.7127 11.4745V3.56445Z" fill="white"/>
<path d="M14.7129 19.588V24.9628L21.4021 15.707L14.7129 19.588Z" fill="white" fill-opacity="0.602"/>
<path d="M14.7127 24.9628V19.588L8.02734 15.707L14.7127 24.9628Z" fill="white"/>
<path d="M14.7129 18.3433L21.3982 14.4623L14.7129 11.4746V18.3433Z" fill="white" fill-opacity="0.2"/>
<path d="M8.02734 14.4623L14.7127 18.3433V11.4746L8.02734 14.4623Z" fill="white" fill-opacity="0.602"/>
</svg>
