<svg width="16" height="16" viewBox="0 0 16 16" fill="none" xmlns="http://www.w3.org/2000/svg">
<path fillRule="evenodd" clipRule="evenodd" d="M0.341708 15.3411C-0.113903 14.8855 -0.113903 14.1468 0.341709 13.6912L13.541 0.491826C13.9966 0.0362151 14.7353 0.0362145 15.191 0.491826C15.6466 0.947437 15.6466 1.68613 15.1909 2.14174L1.99162 15.3411C1.53601 15.7967 0.79732 15.7967 0.341708 15.3411Z" fill="white"/>
<path fillRule="evenodd" clipRule="evenodd" d="M0.691855 0.341708C1.14747 -0.113903 1.88616 -0.113903 2.34177 0.341709L15.5411 13.541C15.9967 13.9966 15.9967 14.7353 15.5411 15.191C15.0855 15.6466 14.3468 15.6466 13.8912 15.1909L0.691855 1.99162C0.236243 1.53601 0.236243 0.79732 0.691855 0.341708Z" fill="white"/>
</svg>
