<svg width="23" height="26" viewBox="0 0 23 26" fill="none" xmlns="http://www.w3.org/2000/svg">
<path d="M6.5 11.6667H5.5V13.6667H6.5V11.6667ZM16.5 13.6667H17.5V11.6667H16.5V13.6667ZM6.5 6.66667H5.5V8.66667H6.5V6.66667ZM9.83333 8.66667H10.8333V6.66667H9.83333V8.66667ZM16.5 1L17.2071 0.292893L16.9142 0H16.5V1ZM21.5 6H22.5V5.58579L22.2071 5.29289L21.5 6ZM12.3333 18.5L11.6262 19.2071L12.3333 18.5ZM11.5 19.3333L11.9472 20.2278L12.0279 20.1874L12.1 20.1333L11.5 19.3333ZM6.5 13.6667H16.5V11.6667H6.5V13.6667ZM6.5 8.66667H9.83333V6.66667H6.5V8.66667ZM19.8333 23.3333H3.16667V25.3333H19.8333V23.3333ZM2.5 22.6667V2.66667H0.5V22.6667H2.5ZM3.16667 2H16.5V0H3.16667V2ZM20.5 6V22.6667H22.5V6H20.5ZM15.7929 1.70711L20.7929 6.70711L22.2071 5.29289L17.2071 0.292893L15.7929 1.70711ZM3.16667 23.3333C2.79848 23.3333 2.5 23.0349 2.5 22.6667H0.5C0.5 24.1394 1.69391 25.3333 3.16667 25.3333V23.3333ZM19.8333 25.3333C21.3061 25.3333 22.5 24.1394 22.5 22.6667H20.5C20.5 23.0349 20.2015 23.3333 19.8333 23.3333V25.3333ZM2.5 2.66667C2.5 2.29848 2.79848 2 3.16667 2V0C1.69391 0 0.5 1.19391 0.5 2.66667H2.5ZM8.28202 19.6496C8.44874 19.1494 8.92952 18.6744 9.55112 18.5074C10.1182 18.3551 10.8654 18.4462 11.6262 19.2071L13.0404 17.7929C11.8013 16.5538 10.3263 16.2283 9.03221 16.5759C7.7927 16.9089 6.77348 17.8506 6.38465 19.0171L8.28202 19.6496ZM11.6262 19.2071C11.6763 19.2571 11.7142 19.3007 11.7427 19.3374L13.322 18.1103C13.237 18.0009 13.1428 17.8952 13.0404 17.7929L11.6262 19.2071ZM11.7427 19.3374C11.8542 19.4808 11.8037 19.4906 11.8144 19.3998C11.8234 19.3233 11.8595 19.3266 11.7783 19.4004C11.6961 19.4751 11.5512 19.5667 11.3448 19.6504C11.1438 19.732 10.924 19.7902 10.7258 19.8202C10.6278 19.835 10.5432 19.8417 10.4757 19.8427C10.4424 19.8432 10.4159 19.8422 10.3961 19.8407C10.3864 19.84 10.379 19.8392 10.3737 19.8385C10.3685 19.8378 10.366 19.8373 10.3662 19.8373C10.3663 19.8374 10.37 19.8381 10.3766 19.8399C10.3833 19.8418 10.3942 19.8451 10.4085 19.8507C10.4352 19.8609 10.4865 19.8836 10.5474 19.9284C10.6874 20.0314 10.8557 20.2417 10.8691 20.5429C10.8803 20.7938 10.774 20.9428 10.766 20.9541C10.7514 20.9748 10.7664 20.9479 10.8553 20.876C11.0315 20.7336 11.3687 20.517 11.9472 20.2278L11.0528 18.4389C10.4194 18.7556 9.93633 19.0471 9.5979 19.3207C9.42953 19.4568 9.26363 19.615 9.13373 19.7984C9.01046 19.9725 8.85461 20.262 8.8711 20.632C8.88982 21.0522 9.1183 21.36 9.36262 21.5397C9.5794 21.6991 9.81306 21.7667 9.97859 21.7994C10.3172 21.8663 10.6927 21.848 11.025 21.7977C11.6768 21.6991 12.5326 21.4178 13.1238 20.8802C13.4335 20.5986 13.7359 20.1841 13.8007 19.6335C13.8672 19.0686 13.662 18.5478 13.322 18.1103L11.7427 19.3374ZM12.1 20.1333C12.3967 19.9108 12.6733 19.7525 12.9295 19.6416L12.1353 17.8061C11.722 17.9849 11.3103 18.2256 10.9 18.5333L12.1 20.1333ZM12.9295 19.6416C13.9492 19.2004 14.861 19.426 15.8357 19.8902C16.0806 20.0068 16.3208 20.1344 16.5668 20.2676C16.8052 20.3966 17.0621 20.5382 17.3061 20.6617C17.7649 20.8939 18.3676 21.1666 19 21.1666V19.1666C18.8875 19.1666 18.6619 19.1064 18.2093 18.8773C17.9976 18.7701 17.7779 18.649 17.519 18.5088C17.2676 18.3727 16.9897 18.2245 16.6956 18.0845C15.5144 17.522 13.9374 17.0263 12.1353 17.8061L12.9295 19.6416Z" fill="white"/>
</svg>
