<svg width="28" height="28" viewBox="0 0 28 28" fill="none" xmlns="http://www.w3.org/2000/svg">
<path d="M5.81929 13.3086C5.81931 13.152 5.85021 12.997 5.9102 12.8525C5.97019 12.7079 6.05809 12.5766 6.16886 12.4662C6.27965 12.3558 6.41109 12.2683 6.55568 12.2089C6.70028 12.1495 6.85516 12.1193 7.01145 12.12L8.98803 12.1265C9.30315 12.1265 9.60539 12.2519 9.82822 12.4752C10.0511 12.6984 10.1763 13.0012 10.1763 13.3169V20.8042C10.3988 20.7381 10.6846 20.6675 10.9973 20.5938C11.2145 20.5427 11.4081 20.4195 11.5466 20.2443C11.6852 20.0691 11.7606 19.8521 11.7605 19.6286V10.3409C11.7605 10.0251 11.8857 9.72233 12.1085 9.49904C12.3314 9.27576 12.6336 9.15031 12.9488 9.15024H14.9293C15.2444 9.15031 15.5467 9.27576 15.7695 9.49904C15.9923 9.72233 16.1175 10.0251 16.1175 10.3409V18.9608C16.1175 18.9608 16.6134 18.7597 17.0964 18.5555C17.2758 18.4795 17.4289 18.3522 17.5366 18.1896C17.6443 18.027 17.7018 17.8362 17.702 17.641V7.36486C17.702 7.04918 17.8272 6.74642 18.0499 6.52318C18.2727 6.29994 18.5749 6.17452 18.89 6.17445H20.8705C21.1857 6.17445 21.4879 6.29985 21.7107 6.52311C21.9336 6.74635 22.0588 7.04914 22.0588 7.36486V15.8271C23.7758 14.5804 25.5158 13.0811 26.8967 11.2782C27.0971 11.0165 27.2296 10.7092 27.2825 10.3837C27.3355 10.0582 27.3072 9.72468 27.2002 9.41281C26.5609 7.57044 25.545 5.88201 24.2171 4.45559C22.8892 3.0292 21.2787 1.8962 19.4886 1.12914C17.6986 0.362072 15.7684 -0.0221741 13.8216 0.000988194C11.8748 0.0241502 9.95425 0.454212 8.1829 1.26365C6.41152 2.07308 4.82833 3.24407 3.53462 4.70167C2.24092 6.15926 1.2652 7.87138 0.669899 9.72846C0.0746008 11.5855 -0.127166 13.5466 0.0775102 15.4863C0.282186 17.426 0.8888 19.3015 1.85853 20.9928C2.02746 21.2845 2.27599 21.522 2.57491 21.6771C2.87384 21.8323 3.21076 21.8988 3.54611 21.8688C3.92071 21.8358 4.38713 21.789 4.94168 21.7238C5.18308 21.6963 5.40595 21.5809 5.56783 21.3994C5.72973 21.2179 5.81931 20.9831 5.81952 20.7397L5.81929 13.3086Z" fill="white"/>
<path d="M5.77605 25.3176C7.86361 26.8391 10.3307 27.7524 12.9042 27.9564C15.4777 28.1602 18.0574 27.647 20.3579 26.4732C22.6583 25.2994 24.5897 23.511 25.9385 21.3058C27.2871 19.1006 28.0007 16.5645 28 13.9782C28 13.6555 27.985 13.3362 27.9636 13.0188C22.851 20.6578 13.4111 24.2291 5.77649 25.3165" fill="white"/>
</svg>
