<svg width="279" height="179" viewBox="0 0 279 179" fill="none" xmlns="http://www.w3.org/2000/svg">
<rect width="253" height="2" transform="matrix(1 0 0 -1 0 133)" fill="white"/>
<g filter="url(#filter0_d_2648_6658)">
<path d="M37.9023 92.8H47.2023C47.5623 94 48.1423 95.06 48.9423 95.98C50.7023 98.06 53.3223 99.1 56.8023 99.1C62.0023 99.1 64.6023 97.5 64.6023 94.3C64.6023 93.5 64.3223 92.78 63.7623 92.14C63.2423 91.5 62.4023 90.94 61.2423 90.46C60.1223 89.98 59.0223 89.6 57.9423 89.32C56.9023 89 55.5423 88.62 53.8623 88.18C53.6223 88.14 53.4223 88.1 53.2623 88.06C53.1423 88.02 52.9623 87.98 52.7223 87.94C52.5223 87.86 52.3423 87.8 52.1823 87.76C43.8623 85.76 39.7023 81.74 39.7023 75.7C39.7023 72.58 40.8623 69.84 43.1823 67.48C45.5023 65.08 48.6423 63.6 52.6023 63.04V57.4H61.0023V63.34C65.5223 64.42 68.9423 66.78 71.2623 70.42C72.2223 71.98 72.9023 73.74 73.3023 75.7H64.0023C63.7623 74.86 63.3023 74.06 62.6223 73.3C61.1023 71.7 58.8623 70.9 55.9023 70.9C53.6223 70.9 51.9023 71.34 50.7423 72.22C49.5823 73.06 49.0023 74.12 49.0023 75.4C49.0023 77.72 51.6423 79.48 56.9223 80.68C58.2823 81 59.1223 81.2 59.4423 81.28C59.8023 81.36 60.6223 81.58 61.9023 81.94C63.2223 82.3 64.1023 82.6 64.5423 82.84C65.0223 83.04 65.8023 83.38 66.8823 83.86C68.0023 84.3 68.7823 84.72 69.2223 85.12C69.7023 85.52 70.3023 86.06 71.0223 86.74C71.7823 87.38 72.3223 88.04 72.6423 88.72C72.9623 89.4 73.2423 90.2 73.4823 91.12C73.7623 92 73.9023 92.96 73.9023 94C73.9023 97.16 72.7623 99.96 70.4823 102.4C68.2023 104.8 65.0423 106.3 61.0023 106.9V112.6H52.6023V106.84C47.2823 105.88 43.2423 103.28 40.4823 99.04C39.2423 97.16 38.3823 95.08 37.9023 92.8ZM78.4117 93.7H87.7117C87.9917 94.7 88.4717 95.56 89.1517 96.28C90.6717 97.96 92.8917 98.8 95.8117 98.8C98.1717 98.8 100.012 98.22 101.332 97.06C102.652 95.86 103.312 94.34 103.312 92.5C103.312 90.5 102.652 88.9 101.332 87.7C100.012 86.5 98.1717 85.9 95.8117 85.9C93.7717 85.9 92.0317 86.36 90.5917 87.28C89.9517 87.76 89.4917 88.2 89.2117 88.6H79.9117L81.7117 64H109.312V72.4H89.5117L88.9117 80.8H89.2117C89.7717 80.24 90.4517 79.74 91.2517 79.3C93.1717 78.3 95.2917 77.8 97.6117 77.8C101.932 77.8 105.552 79.24 108.472 82.12C111.432 84.96 112.912 88.42 112.912 92.5C112.912 96.66 111.332 100.16 108.172 103C105.052 105.8 100.932 107.2 95.8117 107.2C89.2917 107.2 84.4317 104.96 81.2317 100.48C79.8317 98.44 78.8917 96.18 78.4117 93.7ZM116.784 102.1C116.784 100.74 117.244 99.6 118.164 98.68C119.084 97.76 120.224 97.3 121.584 97.3C123.024 97.3 124.184 97.86 125.064 98.98C125.944 100.06 126.384 101.7 126.384 103.9C126.384 107.3 125.584 109.9 123.984 111.7C122.384 113.5 120.184 114.4 117.384 114.4V110.8C118.704 110.8 119.724 110.44 120.444 109.72C121.204 109.04 121.584 108.1 121.584 106.9V106.3L121.344 106.48C121.024 106.56 120.704 106.6 120.384 106.6C119.424 106.6 118.584 106.18 117.864 105.34C117.144 104.5 116.784 103.42 116.784 102.1ZM130.312 79.9V70L138.412 64H146.512V106H137.512V74.5L130.312 79.9ZM152.819 106V97.6L166.919 88.3C170.279 86.06 172.619 84.16 173.939 82.6C175.259 81 175.919 79.2 175.919 77.2C175.919 75.36 175.339 73.9 174.179 72.82C173.019 71.74 171.399 71.2 169.319 71.2C166.559 71.2 164.499 72.2 163.139 74.2C162.539 75.12 162.119 76.12 161.879 77.2H152.519C152.919 74.56 153.799 72.16 155.159 70C158.199 65.2 162.919 62.8 169.319 62.8C174.159 62.8 178.059 64.16 181.019 66.88C184.019 69.56 185.519 72.9 185.519 76.9C185.519 79.38 185.059 81.56 184.139 83.44C183.259 85.28 182.059 86.9 180.539 88.3C179.059 89.66 176.879 91.32 173.999 93.28L169.319 96.4L166.319 97.6V97.9L170.219 97.6H185.519V106H152.819ZM190.026 78.1C190.026 73.78 191.626 70.16 194.826 67.24C198.066 64.28 202.266 62.8 207.426 62.8C212.586 62.8 216.766 64.28 219.966 67.24C223.206 70.2 224.826 73.86 224.826 78.22C224.826 80.86 224.186 83.4 222.906 85.84C221.666 88.28 219.906 91 217.626 94L208.326 106H198.126L207.426 94L210.126 91.9V91.6C209.806 91.8 209.366 92 208.806 92.2C207.606 92.6 206.246 92.8 204.726 92.8C200.686 92.8 197.226 91.38 194.346 88.54C191.466 85.7 190.026 82.22 190.026 78.1ZM201.726 73.18C200.326 74.46 199.626 76.1 199.626 78.1C199.626 80.1 200.326 81.76 201.726 83.08C203.166 84.36 205.066 85 207.426 85C209.786 85 211.666 84.36 213.066 83.08C214.506 81.76 215.226 80.1 215.226 78.1C215.226 76.1 214.506 74.46 213.066 73.18C211.666 71.86 209.786 71.2 207.426 71.2C205.066 71.2 203.166 71.86 201.726 73.18Z" fill="white"/>
</g>
<path d="M116.971 26.221C116.465 27.0296 116.144 27.9398 116.03 28.8867C115.916 29.8337 116.013 30.794 116.313 31.6993C119.418 32.3819 122.433 33.4255 125.295 34.8088C125.34 33.7746 125.647 32.7689 126.189 31.8867C122.85 30.4704 119.742 28.5605 116.971 26.221Z" fill="#FFF773"/>
<path d="M220.57 170.063C223.586 173.413 227.461 175.874 231.776 177.18C233.908 175.438 235.38 173.019 235.948 170.325C231.677 169.078 227.864 166.607 224.982 163.217C224.201 166.754 223.303 168.605 220.57 170.063Z" fill="#DED9FD"/>
<path d="M209.924 20.2696C207.562 18.244 204.603 17.0471 201.497 16.8615C199.862 18.3355 198.012 19.5511 196.01 20.4663C198.021 21.2786 198.682 22.6179 199.148 25.644C202.421 23.2734 206.061 21.4577 209.924 20.2696Z" fill="url(#paint0_linear_2648_6658)"/>
<path d="M209.414 48.8462C211.918 47.7098 214.903 47.6434 221.195 49.897C221.727 46.9153 221.286 43.8416 219.938 41.1295C215.817 40.0235 211.482 39.9828 207.341 41.0112C208.858 43.3313 209.585 46.0794 209.414 48.8462Z" fill="white"/>
<path d="M131.663 19.1013C130.683 18.3387 129.951 17.3036 129.558 16.126C129.371 16.269 129.158 16.3727 128.93 16.4308C128.702 16.4889 128.464 16.5003 128.232 16.4643C128.574 17.8087 129.283 19.0314 130.28 19.9954C130.813 19.8271 131.291 19.5182 131.663 19.1013Z" fill="url(#paint1_linear_2648_6658)"/>
<path d="M244.191 91.1192C244.911 90.4042 245.356 89.4588 245.449 88.4485C242.348 87.7084 239.405 86.4143 236.763 84.6283C236.513 85.5565 235.96 86.3748 235.192 86.9537C237.86 88.9692 240.928 90.3896 244.191 91.1192Z" fill="url(#paint2_linear_2648_6658)"/>
<path d="M274.027 37.5558C273.005 36.7077 271.809 36.0951 270.523 35.7616C269.238 35.4281 267.894 35.3818 266.589 35.626C265.071 39.7749 263.068 43.7301 260.622 47.4093C262.037 47.6666 263.362 48.2831 264.47 49.1996C267.048 44.8569 270.27 40.9308 274.027 37.5558Z" fill="url(#paint3_linear_2648_6658)"/>
<path d="M257.179 102.047C257.385 108.123 259.248 114.027 262.566 119.121C266.282 119.168 269.903 117.95 272.835 115.668C269.507 110.677 267.708 104.825 267.656 98.8264C266.328 100.21 264.669 101.232 262.835 101.795C261.002 102.359 259.056 102.446 257.179 102.047Z" fill="white" fill-opacity="0.62"/>
<path d="M182.737 143.784C184.611 142.157 187.024 141.284 189.505 141.335C187.722 137.868 185.377 134.72 182.565 132.019C180.518 133.106 178.729 134.62 177.32 136.46C179.648 138.468 181.498 140.97 182.737 143.784Z" fill="url(#paint4_linear_2648_6658)"/>
<path d="M236.603 29.9758C237.444 31.0976 238.566 31.9778 239.856 32.5276C241.145 33.0775 242.557 33.2777 243.949 33.1079C245.778 31.1044 246.878 28.543 247.072 25.8373C244.271 23.8692 242.08 21.1533 240.749 17.9996C240.187 22.23 238.777 26.3034 236.603 29.9758Z" fill="#0A31AA"/>
<path d="M109.296 98.241C108.587 98.5621 107.816 98.7235 107.038 98.7136C106.26 98.7038 105.493 98.523 104.793 98.1841C104.376 102.254 104.551 106.362 105.313 110.382C107.06 110.904 108.915 110.949 110.686 110.512C109.163 106.612 108.684 102.383 109.296 98.241Z" fill="url(#paint5_linear_2648_6658)"/>
<path d="M105.228 42.3969L108.227 45.4344C102.303 48.1994 98.2429 47.5427 95.7691 44.8649C95.3248 44.3766 94.9365 43.8402 94.6114 43.2657C97.1031 44.6205 100.605 44.5447 105.228 42.3969Z" fill="#32CCFF"/>
<path d="M90.2942 21.3255C90.6358 21.8153 90.8395 22.3879 90.884 22.9833C90.7151 22.9427 90.5441 22.9116 90.3717 22.89C86.2751 22.3005 81.0278 25.5149 76.9725 24.9129C75.7923 24.8367 74.6669 24.3872 73.759 23.6292L73.5801 23.4467C73.1229 22.93 72.8126 22.3003 72.6814 21.623C73.1048 21.7411 73.5369 21.8255 73.9736 21.8754C78.0702 22.4649 83.3175 19.2505 87.3728 19.8525C88.2033 19.9462 88.9975 20.2446 89.6842 20.7211C89.9176 20.8898 90.1234 21.0937 90.2942 21.3255Z" fill="#32CCFF"/>
<path d="M92.8972 33.9203C92.5871 37.135 93.1732 40.3727 94.5906 43.2747C94.9157 43.8492 95.304 44.3856 95.7483 44.8739L93.3699 42.4377L92.4557 41.497C90.4687 39.0892 89.6552 35.2691 89.8777 30.889C90.0765 28.0363 91.1055 25.1361 90.8776 22.9976C90.8331 22.4021 90.6294 21.8296 90.2878 21.3398L92.6735 23.7626C95.175 25.5987 93.1904 29.8117 92.8972 33.9203Z" fill="#32CCFF"/>
<path d="M70.9346 1.55266L73.7442 4.41074L74.072 4.75112C77.1645 8.32348 71.6917 16.8423 72.6789 21.6123C72.8101 22.2896 73.1205 22.9193 73.5777 23.436L70.7577 20.581C67.1284 17.1704 72.9973 8.28445 71.8818 3.35045C71.7328 2.67715 71.4056 2.05626 70.9346 1.55266Z" fill="#32CCFF"/>
<path d="M149.845 42.5123L154.773 47.4771C155.829 48.4589 157.101 49.1801 158.485 49.5834C164.108 51.5688 173.969 42.8063 181.761 41.4613C182.606 41.3048 183.467 41.2552 184.325 41.3138C185.552 41.402 186.709 41.9186 187.594 42.7733L182.698 37.8355C181.915 37.1647 180.979 36.6965 179.973 36.472C178.967 36.2475 177.921 36.2736 176.927 36.5479C169.116 37.8498 159.296 46.5642 153.651 44.67C153.474 44.5214 153.176 44.5175 152.959 44.4171C151.798 44.0105 150.736 43.3611 149.845 42.5123Z" fill="url(#paint6_linear_2648_6658)"/>
<path d="M250.637 136.479L255.52 141.433C255.551 140.209 255.328 138.992 254.866 137.858C254.404 136.724 253.712 135.698 252.834 134.845C251.956 133.981 250.965 133.241 249.888 132.642C250.4 133.856 250.655 135.162 250.637 136.479Z" fill="url(#paint7_linear_2648_6658)"/>
<path d="M149.714 42.3764L149.859 42.4979C150.738 43.3374 151.783 43.9826 152.927 44.3918C150.856 38.0179 155.414 27.8677 152.447 19.7543L147.551 14.8164C151.012 24.3318 144.196 36.6137 149.714 42.3764Z" fill="url(#paint8_linear_2648_6658)"/>
<path d="M221.515 118.716C222.268 119.341 223.074 119.899 223.924 120.384C221.355 114.634 226.311 107.532 226.346 99.8587C226.498 96.3363 225.316 92.8862 223.037 90.1961L222.523 89.764C221.75 89.0409 220.88 88.4295 219.938 87.9474C220.982 90.1636 221.513 92.5868 221.49 95.0365C221.427 104.112 214.347 112.47 221.515 118.716Z" fill="url(#paint9_linear_2648_6658)"/>
<path d="M225.678 122.927C226.678 123.918 227.814 124.763 229.052 125.435C233.77 128.139 243.584 128.987 249.837 132.571C250.913 133.17 251.904 133.91 252.783 134.774L247.884 129.806C242.328 124.285 229.705 123.68 224.157 120.497C224.081 120.446 224.011 120.387 223.948 120.321C223.098 119.836 222.292 119.278 221.539 118.653L225.678 122.927Z" fill="url(#paint10_linear_2648_6658)"/>
<path d="M180.964 85.2289L185.565 89.8646L186.143 90.3507C186.304 90.4858 186.465 90.6208 186.625 90.7558C191.336 94.2501 197.688 89.8574 202.407 88.287C208.42 85.8301 215.134 85.2785 219.906 87.7547C220.848 88.2368 221.719 88.8483 222.491 89.5714L217.612 84.647C212.921 80.1829 204.72 80.4165 197.512 83.3492C193.47 84.6672 188.268 88.0518 183.904 86.8509C183.11 86.6363 182.361 86.2769 181.697 85.7909C181.448 85.6636 181.207 85.461 180.964 85.2289Z" fill="url(#paint11_linear_2648_6658)"/>
<path d="M180.88 85.1326L180.976 85.2136C181.233 85.4297 181.474 85.6322 181.731 85.8483C182.396 86.3342 183.144 86.6936 183.938 86.9083C182.409 82.498 183.558 76.5006 184.515 72.7538C186.75 63.9963 192.459 47.7144 187.593 42.774C186.715 41.9442 185.577 41.443 184.372 41.355C185.697 48.2255 181.507 60.5481 179.592 67.8481C178.381 72.6147 176.857 80.983 180.88 85.1326Z" fill="url(#paint12_linear_2648_6658)"/>
<defs>
<filter id="filter0_d_2648_6658" x="29.3823" y="54.5604" width="203.963" height="74.04" filterUnits="userSpaceOnUse" color-interpolation-filters="sRGB">
<feFlood flood-opacity="0" result="BackgroundImageFix"/>
<feColorMatrix in="SourceAlpha" type="matrix" values="0 0 0 0 0 0 0 0 0 0 0 0 0 0 0 0 0 0 127 0" result="hardAlpha"/>
<feOffset dy="5.68001"/>
<feGaussianBlur stdDeviation="4.26001"/>
<feComposite in2="hardAlpha" operator="out"/>
<feColorMatrix type="matrix" values="0 0 0 0 0 0 0 0 0 0 0 0 0 0 0 0 0 0 0.07 0"/>
<feBlend mode="normal" in2="BackgroundImageFix" result="effect1_dropShadow_2648_6658"/>
<feBlend mode="normal" in="SourceGraphic" in2="effect1_dropShadow_2648_6658" result="shape"/>
</filter>
<linearGradient id="paint0_linear_2648_6658" x1="118.468" y1="-52.0947" x2="113.486" y2="-59.2218" gradientUnits="userSpaceOnUse">
<stop stop-color="#005200"/>
<stop offset="0.19" stop-color="#00890B"/>
<stop offset="0.31" stop-color="#00A912"/>
<stop offset="0.33" stop-color="#11AD12"/>
<stop offset="0.37" stop-color="#3AB512"/>
<stop offset="0.41" stop-color="#5ABC12"/>
<stop offset="0.44" stop-color="#71C112"/>
<stop offset="0.48" stop-color="#7EC412"/>
<stop offset="0.51" stop-color="#83C512"/>
<stop offset="0.55" stop-color="#7FC412"/>
<stop offset="0.59" stop-color="#72C112"/>
<stop offset="0.63" stop-color="#5EBD12"/>
<stop offset="0.67" stop-color="#41B712"/>
<stop offset="0.72" stop-color="#1CAF12"/>
<stop offset="0.74" stop-color="#00A912"/>
<stop offset="0.78" stop-color="#009E10"/>
<stop offset="0.86" stop-color="#00800C"/>
<stop offset="0.95" stop-color="#005004"/>
<stop offset="1" stop-color="#003400"/>
</linearGradient>
<linearGradient id="paint1_linear_2648_6658" x1="175.339" y1="90.0684" x2="177.614" y2="88.5373" gradientUnits="userSpaceOnUse">
<stop stop-color="#AB3C00"/>
<stop offset="0.34" stop-color="#FFC700"/>
<stop offset="0.37" stop-color="#FFCD17"/>
<stop offset="0.41" stop-color="#FFD533"/>
<stop offset="0.44" stop-color="#FFDA46"/>
<stop offset="0.48" stop-color="#FFDD52"/>
<stop offset="0.52" stop-color="#FFDE56"/>
<stop offset="0.55" stop-color="#FFDD51"/>
<stop offset="0.59" stop-color="#FFD943"/>
<stop offset="0.62" stop-color="#FFD32B"/>
<stop offset="0.66" stop-color="#FFCA0B"/>
<stop offset="0.67" stop-color="#FFC700"/>
<stop offset="1" stop-color="#AB3C00"/>
</linearGradient>
<linearGradient id="paint2_linear_2648_6658" x1="232.87" y1="72.6225" x2="235.412" y2="68.3868" gradientUnits="userSpaceOnUse">
<stop stop-color="#920040"/>
<stop offset="0.05" stop-color="#AE0052"/>
<stop offset="0.12" stop-color="#D10069"/>
<stop offset="0.19" stop-color="#EA007A"/>
<stop offset="0.25" stop-color="#FA0084"/>
<stop offset="0.3" stop-color="#FF0087"/>
<stop offset="0.35" stop-color="#FF1A8B"/>
<stop offset="0.43" stop-color="#FF3F92"/>
<stop offset="0.5" stop-color="#FF5696"/>
<stop offset="0.55" stop-color="#FF5E97"/>
<stop offset="0.58" stop-color="#FF5696"/>
<stop offset="0.64" stop-color="#FF3F92"/>
<stop offset="0.71" stop-color="#FF198B"/>
<stop offset="0.75" stop-color="#FF0087"/>
<stop offset="0.79" stop-color="#FA0084"/>
<stop offset="0.84" stop-color="#EA007A"/>
<stop offset="0.9" stop-color="#D10069"/>
<stop offset="0.96" stop-color="#AE0053"/>
<stop offset="1" stop-color="#920040"/>
</linearGradient>
<linearGradient id="paint3_linear_2648_6658" x1="169.991" y1="46.3634" x2="177.676" y2="49.8604" gradientUnits="userSpaceOnUse">
<stop stop-color="#0038AB"/>
<stop offset="0.11" stop-color="#0062C9"/>
<stop offset="0.27" stop-color="#0097F0"/>
<stop offset="0.35" stop-color="#00ACFF"/>
<stop offset="0.4" stop-color="#00BFFF"/>
<stop offset="0.47" stop-color="#00D2FF"/>
<stop offset="0.52" stop-color="#00D9FF"/>
<stop offset="0.66" stop-color="#00B8FF"/>
<stop offset="0.71" stop-color="#00ACFF"/>
<stop offset="0.76" stop-color="#00A2F8"/>
<stop offset="0.83" stop-color="#0086E3"/>
<stop offset="0.93" stop-color="#0059C3"/>
<stop offset="1" stop-color="#0038AB"/>
</linearGradient>
<linearGradient id="paint4_linear_2648_6658" x1="188.466" y1="109.176" x2="196.684" y2="103.612" gradientUnits="userSpaceOnUse">
<stop stop-color="#005200"/>
<stop offset="0.19" stop-color="#00890B"/>
<stop offset="0.31" stop-color="#00A912"/>
<stop offset="0.33" stop-color="#11AD12"/>
<stop offset="0.37" stop-color="#3AB512"/>
<stop offset="0.41" stop-color="#5ABC12"/>
<stop offset="0.44" stop-color="#71C112"/>
<stop offset="0.48" stop-color="#7EC412"/>
<stop offset="0.51" stop-color="#83C512"/>
<stop offset="0.55" stop-color="#7FC412"/>
<stop offset="0.59" stop-color="#72C112"/>
<stop offset="0.63" stop-color="#5EBD12"/>
<stop offset="0.67" stop-color="#41B712"/>
<stop offset="0.72" stop-color="#1CAF12"/>
<stop offset="0.74" stop-color="#00A912"/>
<stop offset="0.78" stop-color="#009E10"/>
<stop offset="0.86" stop-color="#00800C"/>
<stop offset="0.95" stop-color="#005004"/>
<stop offset="1" stop-color="#003400"/>
</linearGradient>
<linearGradient id="paint5_linear_2648_6658" x1="223.448" y1="219.305" x2="216.215" y2="219.882" gradientUnits="userSpaceOnUse">
<stop stop-color="#005200"/>
<stop offset="0.19" stop-color="#00890B"/>
<stop offset="0.31" stop-color="#00A912"/>
<stop offset="0.33" stop-color="#11AD12"/>
<stop offset="0.37" stop-color="#3AB512"/>
<stop offset="0.41" stop-color="#5ABC12"/>
<stop offset="0.44" stop-color="#71C112"/>
<stop offset="0.48" stop-color="#7EC412"/>
<stop offset="0.51" stop-color="#83C512"/>
<stop offset="0.55" stop-color="#7FC412"/>
<stop offset="0.59" stop-color="#72C112"/>
<stop offset="0.63" stop-color="#5EBD12"/>
<stop offset="0.67" stop-color="#41B712"/>
<stop offset="0.72" stop-color="#1CAF12"/>
<stop offset="0.74" stop-color="#00A912"/>
<stop offset="0.78" stop-color="#009E10"/>
<stop offset="0.86" stop-color="#00800C"/>
<stop offset="0.95" stop-color="#005004"/>
<stop offset="1" stop-color="#003400"/>
</linearGradient>
<linearGradient id="paint6_linear_2648_6658" x1="159.279" y1="52.0268" x2="178.225" y2="33.2846" gradientUnits="userSpaceOnUse">
<stop stop-color="#AB3C00"/>
<stop offset="0.47" stop-color="#FFC700"/>
<stop offset="0.59" stop-color="#FFC700"/>
<stop offset="1" stop-color="#AB3C00"/>
</linearGradient>
<linearGradient id="paint7_linear_2648_6658" x1="243.102" y1="155.983" x2="262.661" y2="117.39" gradientUnits="userSpaceOnUse">
<stop stop-color="#AB3C00"/>
<stop offset="0.47" stop-color="#FFC700"/>
<stop offset="0.59" stop-color="#FFC700"/>
<stop offset="1" stop-color="#AB3C00"/>
</linearGradient>
<linearGradient id="paint8_linear_2648_6658" x1="140.02" y1="43.5996" x2="178.051" y2="-8.33679" gradientUnits="userSpaceOnUse">
<stop stop-color="#AB3C00"/>
<stop offset="0.47" stop-color="#FFC700"/>
<stop offset="0.59" stop-color="#FFC700"/>
<stop offset="1" stop-color="#AB3C00"/>
</linearGradient>
<linearGradient id="paint9_linear_2648_6658" x1="213.369" y1="125.15" x2="238.724" y2="63.084" gradientUnits="userSpaceOnUse">
<stop stop-color="#AB3C00"/>
<stop offset="0.47" stop-color="#FFC700"/>
<stop offset="0.59" stop-color="#FFC700"/>
<stop offset="1" stop-color="#AB3C00"/>
</linearGradient>
<linearGradient id="paint10_linear_2648_6658" x1="233.283" y1="130.629" x2="241.07" y2="122.925" gradientUnits="userSpaceOnUse">
<stop stop-color="#AB3C00"/>
<stop offset="0.47" stop-color="#FFC700"/>
<stop offset="0.59" stop-color="#FFC700"/>
<stop offset="1" stop-color="#AB3C00"/>
</linearGradient>
<linearGradient id="paint11_linear_2648_6658" x1="192.378" y1="96.7369" x2="211.146" y2="78.1718" gradientUnits="userSpaceOnUse">
<stop stop-color="#AB3C00"/>
<stop offset="0.47" stop-color="#FFC700"/>
<stop offset="0.59" stop-color="#FFC700"/>
<stop offset="1" stop-color="#AB3C00"/>
</linearGradient>
<linearGradient id="paint12_linear_2648_6658" x1="174.34" y1="90.1998" x2="204.736" y2="9.59838" gradientUnits="userSpaceOnUse">
<stop stop-color="#AB3C00"/>
<stop offset="0.47" stop-color="#FFC700"/>
<stop offset="0.59" stop-color="#FFC700"/>
<stop offset="1" stop-color="#AB3C00"/>
</linearGradient>
</defs>
</svg>
