<svg width="1263" height="1156" viewBox="0 0 1263 1156" fill="none" xmlns="http://www.w3.org/2000/svg">
<mask id="mask0_2648_8673" style="mask-type:alpha" maskUnits="userSpaceOnUse" x="266" y="266" width="775" height="776">
<circle cx="653.5" cy="653.812" r="387.5" fill="#D9D9D9" fill-opacity="0.74"/>
</mask>
<g mask="url(#mask0_2648_8673)">
<g opacity="0.38">
<g style="mix-blend-mode:overlay">
</g>
<g style="mix-blend-mode:overlay">
<rect x="-4.01385e-08" y="0.673412" width="79.4627" height="79.4627" transform="matrix(0.866025 0.5 -0.866025 0.5 859.67 201.011)" stroke="white" stroke-opacity="0.3" stroke-width="1.34682"/>
</g>
<g style="mix-blend-mode:overlay">
<rect x="-4.01385e-08" y="0.673412" width="79.4627" height="79.4627" transform="matrix(0.866025 0.5 -0.866025 0.5 997.304 201.012)" stroke="white" stroke-opacity="0.5" stroke-width="1.34682"/>
<rect x="-4.01385e-08" y="0.673412" width="79.4627" height="79.4627" transform="matrix(0.866025 0.5 -0.866025 0.5 1066.12 240.743)" stroke="white" stroke-opacity="0.7" stroke-width="1.34682"/>
<rect x="-4.01385e-08" y="0.673412" width="79.4627" height="79.4627" transform="matrix(0.866025 0.5 -0.866025 0.5 997.304 280.474)" stroke="white" stroke-opacity="0.3" stroke-width="1.34682"/>
<rect x="-4.01385e-08" y="0.673412" width="79.4627" height="79.4627" transform="matrix(0.866025 0.5 -0.866025 0.5 928.487 240.743)" stroke="white" stroke-opacity="0.08" stroke-width="1.34682"/>
</g>
<g style="mix-blend-mode:overlay">
<rect x="-4.01385e-08" y="0.673412" width="79.4627" height="79.4627" transform="matrix(0.866025 0.5 -0.866025 0.5 1066.14 366.528)" stroke="white" stroke-opacity="0.08" stroke-width="1.34682"/>
</g>
<g style="mix-blend-mode:overlay">
<rect x="-4.01385e-08" y="0.673412" width="79.4627" height="79.4627" transform="matrix(0.866025 0.5 -0.866025 0.5 584.403 201.013)" stroke="white" stroke-opacity="0.3" stroke-width="1.34682"/>
</g>
<g style="mix-blend-mode:overlay">
<rect x="-4.01385e-08" y="0.673412" width="79.4627" height="79.4627" transform="matrix(0.866025 0.5 -0.866025 0.5 722.037 201.012)" stroke="white" stroke-opacity="0.5" stroke-width="1.34682"/>
<rect x="-4.01385e-08" y="0.673412" width="79.4627" height="79.4627" transform="matrix(0.866025 0.5 -0.866025 0.5 790.855 240.743)" stroke="white" stroke-opacity="0.7" stroke-width="1.34682"/>
<rect x="-4.01385e-08" y="0.673412" width="79.4627" height="79.4627" transform="matrix(0.866025 0.5 -0.866025 0.5 722.037 280.474)" stroke="white" stroke-opacity="0.3" stroke-width="1.34682"/>
<rect x="-4.01385e-08" y="0.673412" width="79.4627" height="79.4627" transform="matrix(0.866025 0.5 -0.866025 0.5 653.22 240.743)" stroke="white" stroke-opacity="0.08" stroke-width="1.34682"/>
</g>
<g style="mix-blend-mode:overlay">
<rect x="-4.01385e-08" y="0.673412" width="79.4627" height="79.4627" transform="matrix(0.866025 0.5 -0.866025 0.5 859.693 326.797)" stroke="white" stroke-opacity="0.5" stroke-width="1.34682"/>
<rect x="-4.01385e-08" y="0.673412" width="79.4627" height="79.4627" transform="matrix(0.866025 0.5 -0.866025 0.5 928.51 366.528)" stroke="white" stroke-opacity="0.7" stroke-width="1.34682"/>
<rect x="-4.01385e-08" y="0.673412" width="79.4627" height="79.4627" transform="matrix(0.866025 0.5 -0.866025 0.5 859.693 406.26)" stroke="white" stroke-opacity="0.3" stroke-width="1.34682"/>
<rect x="-4.01385e-08" y="0.673412" width="79.4627" height="79.4627" transform="matrix(0.866025 0.5 -0.866025 0.5 790.875 366.528)" stroke="white" stroke-opacity="0.08" stroke-width="1.34682"/>
</g>
<g style="mix-blend-mode:overlay">
<rect x="-4.01385e-08" y="0.673412" width="79.4627" height="79.4627" transform="matrix(0.866025 0.5 -0.866025 0.5 997.326 406.26)" stroke="white" stroke-opacity="0.5" stroke-width="1.34682"/>
<rect x="-4.01385e-08" y="0.673412" width="79.4627" height="79.4627" transform="matrix(0.866025 0.5 -0.866025 0.5 1066.14 445.991)" stroke="white" stroke-opacity="0.7" stroke-width="1.34682"/>
<rect x="-4.01385e-08" y="0.673412" width="79.4627" height="79.4627" transform="matrix(0.866025 0.5 -0.866025 0.5 997.326 485.722)" stroke="white" stroke-opacity="0.3" stroke-width="1.34682"/>
<rect x="-4.01385e-08" y="0.673412" width="79.4627" height="79.4627" transform="matrix(0.866025 0.5 -0.866025 0.5 928.509 445.991)" stroke="white" stroke-opacity="0.08" stroke-width="1.34682"/>
</g>
<g style="mix-blend-mode:overlay">
<rect x="-4.01385e-08" y="0.673412" width="79.4627" height="79.4627" transform="matrix(0.866025 0.5 -0.866025 0.5 1066.16 525.469)" stroke="white" stroke-opacity="0.08" stroke-width="1.34682"/>
</g>
<g style="mix-blend-mode:overlay">
<rect x="-4.01385e-08" y="0.673412" width="79.4627" height="79.4627" transform="matrix(0.866025 0.5 -0.866025 0.5 309.136 201.011)" stroke="white" stroke-opacity="0.3" stroke-width="1.34682"/>
</g>
<g style="mix-blend-mode:overlay">
<rect x="-4.01385e-08" y="0.673412" width="79.4627" height="79.4627" transform="matrix(0.866025 0.5 -0.866025 0.5 446.771 201.011)" stroke="white" stroke-opacity="0.5" stroke-width="1.34682"/>
<rect x="-4.01385e-08" y="0.673412" width="79.4627" height="79.4627" transform="matrix(0.866025 0.5 -0.866025 0.5 515.588 240.742)" stroke="white" stroke-opacity="0.7" stroke-width="1.34682"/>
<rect x="-4.01385e-08" y="0.673412" width="79.4627" height="79.4627" transform="matrix(0.866025 0.5 -0.866025 0.5 446.771 280.473)" stroke="white" stroke-opacity="0.3" stroke-width="1.34682"/>
<rect x="-4.01385e-08" y="0.673412" width="79.4627" height="79.4627" transform="matrix(0.866025 0.5 -0.866025 0.5 377.953 240.742)" stroke="white" stroke-opacity="0.08" stroke-width="1.34682"/>
</g>
<g style="mix-blend-mode:overlay">
<rect x="-4.01385e-08" y="0.673412" width="79.4627" height="79.4627" transform="matrix(0.866025 0.5 -0.866025 0.5 584.426 326.799)" stroke="white" stroke-opacity="0.5" stroke-width="1.34682"/>
<rect x="-4.01385e-08" y="0.673412" width="79.4627" height="79.4627" transform="matrix(0.866025 0.5 -0.866025 0.5 653.243 366.53)" stroke="white" stroke-opacity="0.7" stroke-width="1.34682"/>
<rect x="-4.01385e-08" y="0.673412" width="79.4627" height="79.4627" transform="matrix(0.866025 0.5 -0.866025 0.5 584.426 406.262)" stroke="white" stroke-opacity="0.3" stroke-width="1.34682"/>
<rect x="-4.01385e-08" y="0.673412" width="79.4627" height="79.4627" transform="matrix(0.866025 0.5 -0.866025 0.5 515.609 366.53)" stroke="white" stroke-opacity="0.08" stroke-width="1.34682"/>
</g>
<g style="mix-blend-mode:overlay">
<rect x="-4.01385e-08" y="0.673412" width="79.4627" height="79.4627" transform="matrix(0.866025 0.5 -0.866025 0.5 722.06 406.26)" stroke="white" stroke-opacity="0.5" stroke-width="1.34682"/>
<rect x="-4.01385e-08" y="0.673412" width="79.4627" height="79.4627" transform="matrix(0.866025 0.5 -0.866025 0.5 790.877 445.991)" stroke="white" stroke-opacity="0.7" stroke-width="1.34682"/>
<rect x="-4.01385e-08" y="0.673412" width="79.4627" height="79.4627" transform="matrix(0.866025 0.5 -0.866025 0.5 722.06 485.722)" stroke="white" stroke-opacity="0.3" stroke-width="1.34682"/>
<rect x="-4.01385e-08" y="0.673412" width="79.4627" height="79.4627" transform="matrix(0.866025 0.5 -0.866025 0.5 653.242 445.991)" stroke="white" stroke-opacity="0.08" stroke-width="1.34682"/>
</g>
<g style="mix-blend-mode:overlay">
<rect x="-4.01385e-08" y="0.673412" width="79.4627" height="79.4627" transform="matrix(0.866025 0.5 -0.866025 0.5 859.694 485.722)" stroke="white" stroke-opacity="0.5" stroke-width="1.34682"/>
<rect x="-4.01385e-08" y="0.673412" width="79.4627" height="79.4627" transform="matrix(0.866025 0.5 -0.866025 0.5 928.511 525.454)" stroke="white" stroke-opacity="0.7" stroke-width="1.34682"/>
<rect x="-4.01385e-08" y="0.673412" width="79.4627" height="79.4627" transform="matrix(0.866025 0.5 -0.866025 0.5 859.694 565.185)" stroke="white" stroke-opacity="0.3" stroke-width="1.34682"/>
<rect x="-4.01385e-08" y="0.673412" width="79.4627" height="79.4627" transform="matrix(0.866025 0.5 -0.866025 0.5 790.876 525.454)" stroke="white" stroke-opacity="0.08" stroke-width="1.34682"/>
</g>
<g style="mix-blend-mode:overlay">
<rect x="-4.01385e-08" y="0.673412" width="79.4627" height="79.4627" transform="matrix(0.866025 0.5 -0.866025 0.5 997.348 565.2)" stroke="white" stroke-opacity="0.5" stroke-width="1.34682"/>
<rect x="-4.01385e-08" y="0.673412" width="79.4627" height="79.4627" transform="matrix(0.866025 0.5 -0.866025 0.5 1066.17 604.931)" stroke="white" stroke-opacity="0.7" stroke-width="1.34682"/>
<rect x="-4.01385e-08" y="0.673412" width="79.4627" height="79.4627" transform="matrix(0.866025 0.5 -0.866025 0.5 997.348 644.663)" stroke="white" stroke-opacity="0.3" stroke-width="1.34682"/>
<rect x="-4.01385e-08" y="0.673412" width="79.4627" height="79.4627" transform="matrix(0.866025 0.5 -0.866025 0.5 928.53 604.931)" stroke="white" stroke-opacity="0.08" stroke-width="1.34682"/>
</g>
<g style="mix-blend-mode:overlay">
<rect x="-4.01385e-08" y="0.673412" width="79.4627" height="79.4627" transform="matrix(0.866025 0.5 -0.866025 0.5 1066.16 684.394)" stroke="white" stroke-opacity="0.08" stroke-width="1.34682"/>
</g>
<g style="mix-blend-mode:overlay">
<rect x="-4.01385e-08" y="0.673412" width="79.4627" height="79.4627" transform="matrix(0.866025 0.5 -0.866025 0.5 240.32 240.745)" stroke="white" stroke-opacity="0.7" stroke-width="1.34682"/>
</g>
<g style="mix-blend-mode:overlay">
<rect x="-4.01385e-08" y="0.673412" width="79.4627" height="79.4627" transform="matrix(0.866025 0.5 -0.866025 0.5 309.159 326.799)" stroke="white" stroke-opacity="0.5" stroke-width="1.34682"/>
<rect x="-4.01385e-08" y="0.673412" width="79.4627" height="79.4627" transform="matrix(0.866025 0.5 -0.866025 0.5 377.977 366.53)" stroke="white" stroke-opacity="0.7" stroke-width="1.34682"/>
<rect x="-4.01385e-08" y="0.673412" width="79.4627" height="79.4627" transform="matrix(0.866025 0.5 -0.866025 0.5 309.159 406.262)" stroke="white" stroke-opacity="0.3" stroke-width="1.34682"/>
<rect x="-4.01385e-08" y="0.673412" width="79.4627" height="79.4627" transform="matrix(0.866025 0.5 -0.866025 0.5 240.342 366.53)" stroke="white" stroke-opacity="0.08" stroke-width="1.34682"/>
</g>
<g style="mix-blend-mode:overlay">
<rect x="-4.01385e-08" y="0.673412" width="79.4627" height="79.4627" transform="matrix(0.866025 0.5 -0.866025 0.5 446.793 406.262)" stroke="white" stroke-opacity="0.5" stroke-width="1.34682"/>
<rect x="-4.01385e-08" y="0.673412" width="79.4627" height="79.4627" transform="matrix(0.866025 0.5 -0.866025 0.5 515.611 445.993)" stroke="white" stroke-opacity="0.7" stroke-width="1.34682"/>
<rect x="-4.01385e-08" y="0.673412" width="79.4627" height="79.4627" transform="matrix(0.866025 0.5 -0.866025 0.5 446.793 485.724)" stroke="white" stroke-opacity="0.3" stroke-width="1.34682"/>
<rect x="-4.01385e-08" y="0.673412" width="79.4627" height="79.4627" transform="matrix(0.866025 0.5 -0.866025 0.5 377.976 445.993)" stroke="white" stroke-opacity="0.08" stroke-width="1.34682"/>
</g>
<g style="mix-blend-mode:overlay">
<rect x="-4.01385e-08" y="0.673412" width="79.4627" height="79.4627" transform="matrix(0.866025 0.5 -0.866025 0.5 584.426 485.725)" stroke="white" stroke-opacity="0.5" stroke-width="1.34682"/>
<rect x="-4.01385e-08" y="0.673412" width="79.4627" height="79.4627" transform="matrix(0.866025 0.5 -0.866025 0.5 653.243 525.457)" stroke="white" stroke-opacity="0.7" stroke-width="1.34682"/>
<rect x="-4.01385e-08" y="0.673412" width="79.4627" height="79.4627" transform="matrix(0.866025 0.5 -0.866025 0.5 584.426 565.188)" stroke="white" stroke-opacity="0.3" stroke-width="1.34682"/>
<rect x="-4.01385e-08" y="0.673412" width="79.4627" height="79.4627" transform="matrix(0.866025 0.5 -0.866025 0.5 515.609 525.457)" stroke="white" stroke-opacity="0.08" stroke-width="1.34682"/>
</g>
<g style="mix-blend-mode:overlay">
<rect x="-4.01385e-08" y="0.673412" width="79.4627" height="79.4627" transform="matrix(0.866025 0.5 -0.866025 0.5 722.06 565.188)" stroke="white" stroke-opacity="0.5" stroke-width="1.34682"/>
<rect x="-4.01385e-08" y="0.673412" width="79.4627" height="79.4627" transform="matrix(0.866025 0.5 -0.866025 0.5 790.877 604.92)" stroke="white" stroke-opacity="0.7" stroke-width="1.34682"/>
<rect x="-4.01385e-08" y="0.673412" width="79.4627" height="79.4627" transform="matrix(0.866025 0.5 -0.866025 0.5 722.06 644.651)" stroke="white" stroke-opacity="0.3" stroke-width="1.34682"/>
<rect x="-4.01385e-08" y="0.673412" width="79.4627" height="79.4627" transform="matrix(0.866025 0.5 -0.866025 0.5 653.242 604.92)" stroke="white" stroke-opacity="0.08" stroke-width="1.34682"/>
</g>
<g style="mix-blend-mode:overlay">
<rect x="-4.01385e-08" y="0.673412" width="79.4627" height="79.4627" transform="matrix(0.866025 0.5 -0.866025 0.5 859.715 644.663)" stroke="white" stroke-opacity="0.5" stroke-width="1.34682"/>
<rect x="-4.01385e-08" y="0.673412" width="79.4627" height="79.4627" transform="matrix(0.866025 0.5 -0.866025 0.5 928.532 684.394)" stroke="white" stroke-opacity="0.7" stroke-width="1.34682"/>
<rect x="-4.01385e-08" y="0.673412" width="79.4627" height="79.4627" transform="matrix(0.866025 0.5 -0.866025 0.5 859.715 724.126)" stroke="white" stroke-opacity="0.3" stroke-width="1.34682"/>
<rect x="-4.01385e-08" y="0.673412" width="79.4627" height="79.4627" transform="matrix(0.866025 0.5 -0.866025 0.5 790.898 684.394)" stroke="white" stroke-opacity="0.08" stroke-width="1.34682"/>
</g>
<g style="mix-blend-mode:overlay">
<rect x="-4.01385e-08" y="0.673412" width="79.4627" height="79.4627" transform="matrix(0.866025 0.5 -0.866025 0.5 997.348 724.126)" stroke="white" stroke-opacity="0.5" stroke-width="1.34682"/>
<rect x="-4.01385e-08" y="0.673412" width="79.4627" height="79.4627" transform="matrix(0.866025 0.5 -0.866025 0.5 1066.17 763.857)" stroke="white" stroke-opacity="0.7" stroke-width="1.34682"/>
<rect x="-4.01385e-08" y="0.673412" width="79.4627" height="79.4627" transform="matrix(0.866025 0.5 -0.866025 0.5 997.348 803.589)" stroke="white" stroke-opacity="0.3" stroke-width="1.34682"/>
<rect x="-4.01385e-08" y="0.673412" width="79.4627" height="79.4627" transform="matrix(0.866025 0.5 -0.866025 0.5 928.53 763.857)" stroke="white" stroke-opacity="0.08" stroke-width="1.34682"/>
</g>
<g style="mix-blend-mode:overlay">
<rect x="-4.01385e-08" y="0.673412" width="79.4627" height="79.4627" transform="matrix(0.866025 0.5 -0.866025 0.5 1066.16 843.32)" stroke="white" stroke-opacity="0.08" stroke-width="1.34682"/>
</g>
<g style="mix-blend-mode:overlay">
<rect x="-4.01385e-08" y="0.673412" width="79.4627" height="79.4627" transform="matrix(0.866025 0.5 -0.866025 0.5 240.345 445.992)" stroke="white" stroke-opacity="0.7" stroke-width="1.34682"/>
</g>
<g style="mix-blend-mode:overlay">
<rect x="-4.01385e-08" y="0.673412" width="79.4627" height="79.4627" transform="matrix(0.866025 0.5 -0.866025 0.5 309.16 485.723)" stroke="white" stroke-opacity="0.5" stroke-width="1.34682"/>
<rect x="-4.01385e-08" y="0.673412" width="79.4627" height="79.4627" transform="matrix(0.866025 0.5 -0.866025 0.5 377.978 525.455)" stroke="white" stroke-opacity="0.7" stroke-width="1.34682"/>
<rect x="-4.01385e-08" y="0.673412" width="79.4627" height="79.4627" transform="matrix(0.866025 0.5 -0.866025 0.5 309.16 565.186)" stroke="white" stroke-opacity="0.3" stroke-width="1.34682"/>
<rect x="-4.01385e-08" y="0.673412" width="79.4627" height="79.4627" transform="matrix(0.866025 0.5 -0.866025 0.5 240.343 525.455)" stroke="white" stroke-opacity="0.08" stroke-width="1.34682"/>
</g>
<g style="mix-blend-mode:overlay">
<rect x="-4.01385e-08" y="0.673412" width="79.4627" height="79.4627" transform="matrix(0.866025 0.5 -0.866025 0.5 446.795 565.186)" stroke="white" stroke-opacity="0.5" stroke-width="1.34682"/>
<rect x="-4.01385e-08" y="0.673412" width="79.4627" height="79.4627" transform="matrix(0.866025 0.5 -0.866025 0.5 515.612 604.918)" stroke="white" stroke-opacity="0.7" stroke-width="1.34682"/>
<rect x="-4.01385e-08" y="0.673412" width="79.4627" height="79.4627" transform="matrix(0.866025 0.5 -0.866025 0.5 446.795 644.649)" stroke="white" stroke-opacity="0.3" stroke-width="1.34682"/>
<rect x="-4.01385e-08" y="0.673412" width="79.4627" height="79.4627" transform="matrix(0.866025 0.5 -0.866025 0.5 377.978 604.918)" stroke="white" stroke-opacity="0.08" stroke-width="1.34682"/>
</g>
<g style="mix-blend-mode:overlay">
<rect x="-4.01385e-08" y="0.673412" width="79.4627" height="79.4627" transform="matrix(0.866025 0.5 -0.866025 0.5 584.428 644.649)" stroke="white" stroke-opacity="0.5" stroke-width="1.34682"/>
<rect x="-4.01385e-08" y="0.673412" width="79.4627" height="79.4627" transform="matrix(0.866025 0.5 -0.866025 0.5 653.245 684.381)" stroke="white" stroke-opacity="0.7" stroke-width="1.34682"/>
<rect x="-4.01385e-08" y="0.673412" width="79.4627" height="79.4627" transform="matrix(0.866025 0.5 -0.866025 0.5 584.428 724.112)" stroke="white" stroke-opacity="0.3" stroke-width="1.34682"/>
<rect x="-4.01385e-08" y="0.673412" width="79.4627" height="79.4627" transform="matrix(0.866025 0.5 -0.866025 0.5 515.611 684.381)" stroke="white" stroke-opacity="0.08" stroke-width="1.34682"/>
</g>
<g style="mix-blend-mode:overlay">
<rect x="-4.01385e-08" y="0.673412" width="79.4627" height="79.4627" transform="matrix(0.866025 0.5 -0.866025 0.5 722.083 724.124)" stroke="white" stroke-opacity="0.5" stroke-width="1.34682"/>
<rect x="-4.01385e-08" y="0.673412" width="79.4627" height="79.4627" transform="matrix(0.866025 0.5 -0.866025 0.5 790.901 763.855)" stroke="white" stroke-opacity="0.7" stroke-width="1.34682"/>
<rect x="-4.01385e-08" y="0.673412" width="79.4627" height="79.4627" transform="matrix(0.866025 0.5 -0.866025 0.5 722.083 803.587)" stroke="white" stroke-opacity="0.3" stroke-width="1.34682"/>
<rect x="-4.01385e-08" y="0.673412" width="79.4627" height="79.4627" transform="matrix(0.866025 0.5 -0.866025 0.5 653.266 763.855)" stroke="white" stroke-opacity="0.08" stroke-width="1.34682"/>
</g>
<g style="mix-blend-mode:overlay">
<rect x="-4.01385e-08" y="0.673412" width="79.4627" height="79.4627" transform="matrix(0.866025 0.5 -0.866025 0.5 859.717 803.587)" stroke="white" stroke-opacity="0.5" stroke-width="1.34682"/>
<rect x="-4.01385e-08" y="0.673412" width="79.4627" height="79.4627" transform="matrix(0.866025 0.5 -0.866025 0.5 928.534 843.318)" stroke="white" stroke-opacity="0.7" stroke-width="1.34682"/>
<rect x="-4.01385e-08" y="0.673412" width="79.4627" height="79.4627" transform="matrix(0.866025 0.5 -0.866025 0.5 859.717 883.05)" stroke="white" stroke-opacity="0.3" stroke-width="1.34682"/>
<rect x="-4.01385e-08" y="0.673412" width="79.4627" height="79.4627" transform="matrix(0.866025 0.5 -0.866025 0.5 790.9 843.318)" stroke="white" stroke-opacity="0.08" stroke-width="1.34682"/>
</g>
<g style="mix-blend-mode:overlay">
<rect x="-4.01385e-08" y="0.673412" width="79.4627" height="79.4627" transform="matrix(0.866025 0.5 -0.866025 0.5 997.35 883.05)" stroke="white" stroke-opacity="0.5" stroke-width="1.34682"/>
<rect x="-4.01385e-08" y="0.673412" width="79.4627" height="79.4627" transform="matrix(0.866025 0.5 -0.866025 0.5 1066.17 922.781)" stroke="white" stroke-opacity="0.7" stroke-width="1.34682"/>
<rect x="-4.01385e-08" y="0.673412" width="79.4627" height="79.4627" transform="matrix(0.866025 0.5 -0.866025 0.5 997.35 962.512)" stroke="white" stroke-opacity="0.3" stroke-width="1.34682"/>
<rect x="-4.01385e-08" y="0.673412" width="79.4627" height="79.4627" transform="matrix(0.866025 0.5 -0.866025 0.5 928.532 922.781)" stroke="white" stroke-opacity="0.08" stroke-width="1.34682"/>
</g>
<g style="mix-blend-mode:overlay">
<rect x="-4.01385e-08" y="0.673412" width="79.4627" height="79.4627" transform="matrix(0.866025 0.5 -0.866025 0.5 240.346 604.918)" stroke="white" stroke-opacity="0.7" stroke-width="1.34682"/>
</g>
<g style="mix-blend-mode:overlay">
<rect x="-4.01385e-08" y="0.673412" width="79.4627" height="79.4627" transform="matrix(0.866025 0.5 -0.866025 0.5 309.161 644.648)" stroke="white" stroke-opacity="0.5" stroke-width="1.34682"/>
<rect x="-4.01385e-08" y="0.673412" width="79.4627" height="79.4627" transform="matrix(0.866025 0.5 -0.866025 0.5 377.979 684.38)" stroke="white" stroke-opacity="0.7" stroke-width="1.34682"/>
<rect x="-4.01385e-08" y="0.673412" width="79.4627" height="79.4627" transform="matrix(0.866025 0.5 -0.866025 0.5 309.161 724.111)" stroke="white" stroke-opacity="0.3" stroke-width="1.34682"/>
<rect x="-4.01385e-08" y="0.673412" width="79.4627" height="79.4627" transform="matrix(0.866025 0.5 -0.866025 0.5 240.344 684.38)" stroke="white" stroke-opacity="0.08" stroke-width="1.34682"/>
</g>
<g style="mix-blend-mode:overlay">
<rect x="-4.01385e-08" y="0.673412" width="79.4627" height="79.4627" transform="matrix(0.866025 0.5 -0.866025 0.5 446.794 724.111)" stroke="white" stroke-opacity="0.5" stroke-width="1.34682"/>
<rect x="-4.01385e-08" y="0.673412" width="79.4627" height="79.4627" transform="matrix(0.866025 0.5 -0.866025 0.5 515.612 763.843)" stroke="white" stroke-opacity="0.7" stroke-width="1.34682"/>
<rect x="-4.01385e-08" y="0.673412" width="79.4627" height="79.4627" transform="matrix(0.866025 0.5 -0.866025 0.5 446.794 803.574)" stroke="white" stroke-opacity="0.3" stroke-width="1.34682"/>
<rect x="-4.01385e-08" y="0.673412" width="79.4627" height="79.4627" transform="matrix(0.866025 0.5 -0.866025 0.5 377.977 763.843)" stroke="white" stroke-opacity="0.08" stroke-width="1.34682"/>
</g>
<g style="mix-blend-mode:overlay">
<rect x="-4.01385e-08" y="0.673412" width="79.4627" height="79.4627" transform="matrix(0.866025 0.5 -0.866025 0.5 584.45 803.587)" stroke="white" stroke-opacity="0.5" stroke-width="1.34682"/>
<rect x="-4.01385e-08" y="0.673412" width="79.4627" height="79.4627" transform="matrix(0.866025 0.5 -0.866025 0.5 653.268 843.318)" stroke="white" stroke-opacity="0.7" stroke-width="1.34682"/>
<rect x="-4.01385e-08" y="0.673412" width="79.4627" height="79.4627" transform="matrix(0.866025 0.5 -0.866025 0.5 584.45 883.05)" stroke="white" stroke-opacity="0.3" stroke-width="1.34682"/>
<rect x="-4.01385e-08" y="0.673412" width="79.4627" height="79.4627" transform="matrix(0.866025 0.5 -0.866025 0.5 515.633 843.318)" stroke="white" stroke-opacity="0.08" stroke-width="1.34682"/>
</g>
<g style="mix-blend-mode:overlay">
<rect x="-4.01385e-08" y="0.673412" width="79.4627" height="79.4627" transform="matrix(0.866025 0.5 -0.866025 0.5 722.083 883.05)" stroke="white" stroke-opacity="0.5" stroke-width="1.34682"/>
<rect x="-4.01385e-08" y="0.673412" width="79.4627" height="79.4627" transform="matrix(0.866025 0.5 -0.866025 0.5 790.901 922.781)" stroke="white" stroke-opacity="0.7" stroke-width="1.34682"/>
<rect x="-4.01385e-08" y="0.673412" width="79.4627" height="79.4627" transform="matrix(0.866025 0.5 -0.866025 0.5 722.083 962.512)" stroke="white" stroke-opacity="0.3" stroke-width="1.34682"/>
<rect x="-4.01385e-08" y="0.673412" width="79.4627" height="79.4627" transform="matrix(0.866025 0.5 -0.866025 0.5 653.266 922.781)" stroke="white" stroke-opacity="0.08" stroke-width="1.34682"/>
</g>
<g style="mix-blend-mode:overlay">
<rect x="-4.01385e-08" y="0.673412" width="79.4627" height="79.4627" transform="matrix(0.866025 0.5 -0.866025 0.5 859.717 916.2)" stroke="white" stroke-opacity="0.5" stroke-width="1.34682"/>
<rect x="-4.01385e-08" y="0.673412" width="79.4627" height="79.4627" transform="matrix(0.866025 0.5 -0.866025 0.5 928.534 955.931)" stroke="white" stroke-opacity="0.7" stroke-width="1.34682"/>
<rect x="-4.01385e-08" y="0.673412" width="79.4627" height="79.4627" transform="matrix(0.866025 0.5 -0.866025 0.5 859.717 995.663)" stroke="white" stroke-opacity="0.3" stroke-width="1.34682"/>
<rect x="-4.01385e-08" y="0.673412" width="79.4627" height="79.4627" transform="matrix(0.866025 0.5 -0.866025 0.5 790.9 955.931)" stroke="white" stroke-opacity="0.08" stroke-width="1.34682"/>
</g>
<g style="mix-blend-mode:overlay">
<rect x="-4.01385e-08" y="0.673412" width="79.4627" height="79.4627" transform="matrix(0.866025 0.5 -0.866025 0.5 240.345 763.843)" stroke="white" stroke-opacity="0.7" stroke-width="1.34682"/>
</g>
<g style="mix-blend-mode:overlay">
<rect x="-4.01385e-08" y="0.673412" width="79.4627" height="79.4627" transform="matrix(0.866025 0.5 -0.866025 0.5 309.16 803.574)" stroke="white" stroke-opacity="0.5" stroke-width="1.34682"/>
<rect x="-4.01385e-08" y="0.673412" width="79.4627" height="79.4627" transform="matrix(0.866025 0.5 -0.866025 0.5 377.978 843.305)" stroke="white" stroke-opacity="0.7" stroke-width="1.34682"/>
<rect x="-4.01385e-08" y="0.673412" width="79.4627" height="79.4627" transform="matrix(0.866025 0.5 -0.866025 0.5 309.16 883.037)" stroke="white" stroke-opacity="0.3" stroke-width="1.34682"/>
<rect x="-4.01385e-08" y="0.673412" width="79.4627" height="79.4627" transform="matrix(0.866025 0.5 -0.866025 0.5 240.343 843.305)" stroke="white" stroke-opacity="0.08" stroke-width="1.34682"/>
</g>
<g style="mix-blend-mode:overlay">
<rect x="-4.01385e-08" y="0.673412" width="79.4627" height="79.4627" transform="matrix(0.866025 0.5 -0.866025 0.5 446.817 883.05)" stroke="white" stroke-opacity="0.5" stroke-width="1.34682"/>
<rect x="-4.01385e-08" y="0.673412" width="79.4627" height="79.4627" transform="matrix(0.866025 0.5 -0.866025 0.5 515.634 922.781)" stroke="white" stroke-opacity="0.7" stroke-width="1.34682"/>
<rect x="-4.01385e-08" y="0.673412" width="79.4627" height="79.4627" transform="matrix(0.866025 0.5 -0.866025 0.5 446.817 962.512)" stroke="white" stroke-opacity="0.3" stroke-width="1.34682"/>
<rect x="-4.01385e-08" y="0.673412" width="79.4627" height="79.4627" transform="matrix(0.866025 0.5 -0.866025 0.5 377.999 922.781)" stroke="white" stroke-opacity="0.08" stroke-width="1.34682"/>
</g>
<g style="mix-blend-mode:overlay">
<rect x="-4.01385e-08" y="0.673412" width="79.4627" height="79.4627" transform="matrix(0.866025 0.5 -0.866025 0.5 584.45 916.2)" stroke="white" stroke-opacity="0.5" stroke-width="1.34682"/>
<rect x="-4.01385e-08" y="0.673412" width="79.4627" height="79.4627" transform="matrix(0.866025 0.5 -0.866025 0.5 653.268 955.931)" stroke="white" stroke-opacity="0.7" stroke-width="1.34682"/>
<rect x="-4.01385e-08" y="0.673412" width="79.4627" height="79.4627" transform="matrix(0.866025 0.5 -0.866025 0.5 584.45 995.663)" stroke="white" stroke-opacity="0.3" stroke-width="1.34682"/>
<rect x="-4.01385e-08" y="0.673412" width="79.4627" height="79.4627" transform="matrix(0.866025 0.5 -0.866025 0.5 515.633 955.931)" stroke="white" stroke-opacity="0.08" stroke-width="1.34682"/>
</g>
<g style="mix-blend-mode:overlay">
<rect x="-4.01385e-08" y="0.673412" width="79.4627" height="79.4627" transform="matrix(0.866025 0.5 -0.866025 0.5 722.083 995.663)" stroke="white" stroke-opacity="0.5" stroke-width="1.34682"/>
<rect x="-4.01385e-08" y="0.673412" width="79.4627" height="79.4627" transform="matrix(0.866025 0.5 -0.866025 0.5 790.901 1035.39)" stroke="white" stroke-opacity="0.7" stroke-width="1.34682"/>
<rect x="-4.01385e-08" y="0.673412" width="79.4627" height="79.4627" transform="matrix(0.866025 0.5 -0.866025 0.5 653.266 1035.39)" stroke="white" stroke-opacity="0.08" stroke-width="1.34682"/>
</g>
</g>
</g>
</svg>
