<svg width="413" height="209" viewBox="0 0 413 209" fill="none" xmlns="http://www.w3.org/2000/svg">
<g opacity="0.58">
<g opacity="0.7304">
<path d="M88.4212 51.3758L88.4212 130.343L42.0798 176.685L42.0798 258.354L-21.5097 321.943L-22.9644 320.489L40.0017 257.522L40.0017 175.854L86.3431 129.512L86.3431 51.3759L88.4212 51.3758Z" fill="white" fill-opacity="0.42"/>
<path d="M91.3303 51.5916C91.3303 49.411 89.5626 47.6433 87.382 47.6433C85.2013 47.6433 83.4336 49.411 83.4336 51.5917C83.4336 53.7723 85.2013 55.54 87.382 55.54C89.5626 55.54 91.3303 53.7723 91.3303 51.5916Z" fill="white" fill-opacity="0.42"/>
</g>
<path d="M436.913 359.562L436.913 432.711L434.835 432.711L434.835 360.393L393.896 319.455L393.896 237.786L347.763 191.445L347.763 79.2279L324.28 55.7456L324.28 26.6524L326.358 26.6524L326.358 54.9144L349.841 78.3967L349.841 190.614L395.974 236.955L395.974 318.624L436.913 359.562Z" fill="white" fill-opacity="0.42"/>
<path d="M105.251 43.0658L105.251 152.997L66.8061 191.441L66.8061 242.562L87.3792 263.135L87.3792 418.992L85.3011 418.992L85.3011 264.174L64.728 243.394L64.728 190.61L103.173 152.165L103.173 43.0658L105.251 43.0658Z" fill="white" fill-opacity="0.42"/>
<g opacity="0.5129">
<path d="M339.662 88.7847L339.662 132.84L307.66 164.843L307.66 227.809L276.281 259.188L276.281 351.663L274.203 351.663L274.203 258.357L305.582 226.978L305.582 164.012L337.584 131.801L337.584 89.6159L294.568 46.3918L296.023 44.9371L339.662 88.7847Z" fill="white" fill-opacity="0.42"/>
<path d="M292.695 48.6756C291.241 47.2209 291.241 44.7272 292.695 43.0648C294.15 41.6101 296.644 41.6101 298.306 43.0648C299.761 44.5194 299.761 47.0131 298.306 48.6756C296.644 50.1303 294.15 50.1303 292.695 48.6756Z" fill="white" fill-opacity="0.42"/>
</g>
<g opacity="0.5919">
<path d="M138.502 13.3476L123.54 28.102L123.54 150.709L82.6015 191.648L82.6015 228.43L112.734 258.562L112.734 375.558L110.656 375.559L110.656 259.393L80.5234 229.261L80.5234 190.609L121.462 149.67L121.462 27.2708L137.047 11.6851L138.502 13.3476Z" fill="white" fill-opacity="0.42"/>
<path d="M140.377 15.4285C141.831 13.9738 141.831 11.4801 140.377 9.81768C138.922 8.36302 136.428 8.36303 134.766 9.8177C133.311 11.2724 133.311 13.7661 134.766 15.4285C136.428 16.8832 138.922 16.8832 140.377 15.4285Z" fill="white" fill-opacity="0.42"/>
</g>
<g opacity="0.2668">
<path d="M303.922 94.193L303.922 148.016L242.203 209.735L242.203 336.291L271.92 366.007L270.465 367.462L240.125 337.122L240.125 208.904L301.844 147.184L301.844 95.0243L271.504 64.8921L271.504 11.2774L273.582 11.2774L273.582 64.0608L303.922 94.193Z" fill="white" fill-opacity="0.42"/>
<path d="M276.492 11.491C276.492 9.31042 274.724 7.54269 272.544 7.5427C270.363 7.5427 268.595 9.31044 268.595 11.4911C268.595 13.6717 270.363 15.4394 272.544 15.4394C274.724 15.4394 276.492 13.6717 276.492 11.491Z" fill="white" fill-opacity="0.42"/>
</g>
<g opacity="0.7109">
<path d="M316.597 82.5594L316.597 111.029L314.519 111.029L314.519 83.3906L282.101 50.9725L283.555 49.5178L316.597 82.5594Z" fill="white" fill-opacity="0.42"/>
<path d="M280.229 53.2703C278.775 51.8157 278.775 49.322 280.229 47.6595C281.684 46.2048 284.178 46.2048 285.84 47.6595C287.295 49.1141 287.295 51.6078 285.84 53.2703C284.178 54.725 281.892 54.725 280.229 53.2703Z" fill="white" fill-opacity="0.42"/>
<path d="M311.605 110.825C311.605 112.903 313.267 114.773 315.553 114.773C317.839 114.773 319.502 113.111 319.502 110.825C319.502 108.747 317.839 106.877 315.553 106.877C313.267 106.877 311.605 108.539 311.605 110.825Z" fill="white" fill-opacity="0.42"/>
</g>
<g opacity="0.8">
<path d="M162.597 10.8491L142.647 30.7987L142.647 141.145L105.657 178.135L105.657 239.023L137.66 271.026L137.66 404.231L99.0074 442.884L97.5527 441.429L135.582 403.4L135.582 271.857L103.579 239.855L103.579 177.304L140.569 140.314L140.569 29.9675L161.142 9.39442L162.597 10.8491Z" fill="white" fill-opacity="0.42"/>
<path d="M159.07 7.53157C160.525 6.0769 163.019 6.0769 164.681 7.53156C166.136 8.98622 166.136 11.4799 164.681 13.1424C163.227 14.5971 160.733 14.5971 159.07 13.1424C157.616 11.4799 157.616 8.98623 159.07 7.53157Z" fill="white" fill-opacity="0.42"/>
</g>
<g opacity="0.412">
<path d="M188.578 8.99126L157.615 39.9549L157.615 138.872L119.17 177.525L119.17 236.75L166.758 284.338L165.303 285.793L117.092 237.581L117.092 176.693L155.536 138.041L155.536 39.1237L187.123 7.53665L188.578 8.99126Z" fill="white" fill-opacity="0.42"/>
<path d="M184.832 5.66242C186.287 4.20776 188.781 4.20775 190.443 5.66241C191.898 7.11706 191.898 9.61076 190.443 11.2732C188.988 12.7279 186.495 12.7279 184.832 11.2733C183.378 9.8186 183.378 7.3249 184.832 5.66242Z" fill="white" fill-opacity="0.42"/>
</g>
<g opacity="0.3847">
<path d="M285.423 115.174L285.423 152.787L214.768 223.235L214.768 409.224L212.689 409.224L212.689 222.403L283.344 151.956L283.344 116.005L256.953 89.6134L256.953 17.9193L243.653 4.61962L245.108 3.16491L259.031 17.0881L259.031 88.5743L285.423 115.174Z" fill="white" fill-opacity="0.42"/>
<path d="M241.787 6.70197C240.332 5.24731 240.332 2.75358 241.787 1.0911C243.241 -0.363564 245.735 -0.363572 247.398 1.09109C248.852 2.54574 248.852 5.03948 247.398 6.70195C245.735 8.15662 243.241 8.15663 241.787 6.70197Z" fill="white" fill-opacity="0.42"/>
</g>
<g opacity="0.4875">
<path d="M200.846 150.302L200.846 174.616L198.768 174.616L198.768 151.134L175.909 128.275L175.909 43.4888L177.987 43.4888L177.987 127.444L200.846 150.302Z" fill="white" fill-opacity="0.42"/>
<path d="M173 43.6883C173 41.6102 174.662 39.74 176.948 39.74C179.026 39.74 180.896 41.4024 180.896 43.6883C180.896 45.9742 179.234 47.6367 176.948 47.6367C174.662 47.6367 173 45.7664 173 43.6883Z" fill="white" fill-opacity="0.42"/>
<path d="M195.863 174.406C195.863 176.484 197.525 178.354 199.811 178.354C201.889 178.354 203.76 176.692 203.76 174.406C203.76 172.328 202.097 170.458 199.811 170.458C197.733 170.458 195.863 172.328 195.863 174.406Z" fill="white" fill-opacity="0.42"/>
</g>
<g opacity="0.2223">
<path d="M177.355 153.63L143.274 187.711L143.274 236.962L141.196 236.962L141.196 186.672L175.9 152.176L177.355 153.63Z" fill="white" fill-opacity="0.42"/>
<path d="M173.816 150.095C175.271 148.64 177.765 148.64 179.427 150.095C180.882 151.55 180.882 154.043 179.427 155.706C177.972 157.161 175.479 157.161 173.816 155.706C172.154 154.251 172.154 151.758 173.816 150.095Z" fill="white" fill-opacity="0.42"/>
</g>
<g opacity="0.7062">
<path d="M180.898 177.103L157.416 200.586L157.416 244.018L155.338 244.018L155.338 199.754L179.444 175.648L180.898 177.103Z" fill="white" fill-opacity="0.42"/>
<path d="M177.367 173.582C178.822 172.128 181.315 172.128 182.978 173.582C184.432 175.037 184.432 177.531 182.978 179.193C181.523 180.648 179.029 180.648 177.367 179.193C175.704 177.739 175.704 175.245 177.367 173.582Z" fill="white" fill-opacity="0.42"/>
</g>
<g opacity="0.688">
<path d="M288.123 194.36L257.575 224.908L257.575 324.656L255.497 324.656L255.497 224.077L286.668 192.905L288.123 194.36Z" fill="white" fill-opacity="0.42"/>
<path d="M284.384 191.033C285.839 189.578 288.333 189.578 289.995 191.033C291.45 192.487 291.45 194.981 289.995 196.643C288.541 198.098 286.047 198.098 284.384 196.643C282.93 194.981 282.93 192.487 284.384 191.033Z" fill="white" fill-opacity="0.42"/>
</g>
<g opacity="0.9899">
<path d="M418.424 359.151L418.424 426.896L416.346 426.896L416.346 359.982L364.186 307.822L364.186 247.765L330.105 213.892L330.105 150.095L332.183 150.095L332.183 212.853L366.264 246.934L366.264 306.991L418.424 359.151Z" fill="white" fill-opacity="0.42"/>
<path d="M327.195 150.292C327.195 148.214 328.858 146.343 331.144 146.343C333.222 146.343 335.092 148.006 335.092 150.292C335.092 152.37 333.43 154.24 331.144 154.24C328.858 154.24 327.195 152.578 327.195 150.292Z" fill="white" fill-opacity="0.42"/>
</g>
<g opacity="0.6948">
<path d="M337.375 429.59L335.92 431.045L296.021 391.146L296.021 269.37L319.503 245.887L319.503 173.57L321.581 173.57L321.581 246.718L298.099 270.201L298.099 390.314L337.375 429.59Z" fill="white" fill-opacity="0.42"/>
<path d="M316.588 173.778C316.588 171.7 318.251 169.83 320.537 169.83C322.823 169.83 324.485 171.492 324.485 173.778C324.485 175.856 322.823 177.727 320.537 177.727C318.251 177.727 316.588 176.064 316.588 173.778Z" fill="white" fill-opacity="0.42"/>
</g>
<g opacity="0.2599">
<path d="M262.363 135.957L262.363 158.608L197.942 222.822L197.942 421.071L195.864 421.071L195.864 221.99L260.285 157.777L260.285 136.789L234.932 111.644L234.932 42.2356L215.606 22.9094L217.06 21.4547L237.01 41.4044L237.01 110.812L262.363 135.957Z" fill="white" fill-opacity="0.42"/>
<path d="M213.727 25.2C212.272 23.7454 212.272 21.2517 213.727 19.5892C215.181 18.1345 217.675 18.1345 219.338 19.5892C220.792 21.0438 220.792 23.5375 219.338 25.2C217.675 26.6547 215.181 26.6547 213.727 25.2Z" fill="white" fill-opacity="0.42"/>
</g>
<g opacity="0.8829">
<path d="M242.62 138.034L242.62 162.14L180.485 224.275L180.485 431.668L178.407 431.668L178.407 223.443L240.542 161.308L240.542 138.865L222.67 120.994L222.67 47.637L205.006 29.9733L206.461 28.5186L224.748 46.8057L224.748 120.162L242.62 138.034Z" fill="white" fill-opacity="0.42"/>
<path d="M209.79 29.3534C209.79 27.1728 208.022 25.405 205.841 25.405C203.661 25.405 201.893 27.1728 201.893 29.3534C201.893 31.534 203.661 33.3018 205.841 33.3017C208.022 33.3017 209.79 31.534 209.79 29.3534Z" fill="white" fill-opacity="0.42"/>
</g>
<g opacity="0.8947">
<path d="M216.442 138.445L214.987 139.899L191.505 116.209L191.505 42.0214L193.583 42.0214L193.583 115.378L216.442 138.445Z" fill="white" fill-opacity="0.42"/>
<path d="M196.492 42.2254C196.492 40.0448 194.724 38.2771 192.544 38.2771C190.363 38.2771 188.595 40.0448 188.595 42.2254C188.595 44.4061 190.363 46.1738 192.544 46.1738C194.724 46.1738 196.492 44.406 196.492 42.2254Z" fill="white" fill-opacity="0.42"/>
<path d="M219.556 138.856C219.556 136.676 217.789 134.908 215.608 134.908C213.427 134.908 211.66 136.676 211.66 138.856C211.66 141.037 213.427 142.805 215.608 142.805C217.789 142.805 219.556 141.037 219.556 138.856Z" fill="white" fill-opacity="0.42"/>
</g>
<g opacity="0.6324">
<path d="M57.2514 203.085L57.2514 276.026L1.55867 331.927L0.104004 330.472L55.1734 275.195L55.1734 203.085L57.2514 203.085Z" fill="white" fill-opacity="0.42"/>
<path d="M60.1487 203.082C60.1487 200.901 58.3809 199.134 56.2003 199.134C54.0197 199.134 52.252 200.901 52.252 203.082C52.252 205.263 54.0197 207.03 56.2003 207.03C58.3809 207.03 60.1487 205.263 60.1487 203.082Z" fill="white" fill-opacity="0.42"/>
</g>
</g>
</svg>
