<svg width="53" height="53" viewBox="0 0 53 53" fill="none" xmlns="http://www.w3.org/2000/svg">
<path fill-rule="evenodd" clip-rule="evenodd" d="M2.76074 26.5003C2.76074 13.3893 13.3893 2.76074 26.5003 2.76074C39.6113 2.76074 50.2399 13.3893 50.2399 26.5003C50.2399 39.6113 39.6113 50.2399 26.5003 50.2399C13.3893 50.2399 2.76074 39.6113 2.76074 26.5003ZM26.5003 6.07324C15.2188 6.07324 6.07324 15.2188 6.07324 26.5003C6.07324 37.7819 15.2188 46.9274 26.5003 46.9274C37.7819 46.9274 46.9274 37.7819 46.9274 26.5003C46.9274 15.2188 37.7819 6.07324 26.5003 6.07324Z" fill="white"/>
<path fill-rule="evenodd" clip-rule="evenodd" d="M33.9182 19.0837C34.565 19.7305 34.565 20.7792 33.9182 21.426L21.426 33.9182C20.7792 34.565 19.7305 34.565 19.0837 33.9182C18.4369 33.2714 18.4369 32.2228 19.0837 31.5759L31.5759 19.0837C32.2228 18.4369 33.2714 18.4369 33.9182 19.0837Z" fill="white"/>
<path fill-rule="evenodd" clip-rule="evenodd" d="M19.0837 19.0837C19.7305 18.4369 20.7792 18.4369 21.426 19.0837L33.9182 31.5759C34.565 32.2228 34.565 33.2714 33.9182 33.9182C33.2714 34.565 32.2228 34.565 31.5759 33.9182L19.0837 21.426C18.4369 20.7792 18.4369 19.7305 19.0837 19.0837Z" fill="white"/>
</svg>
