<svg width="367" height="348" viewBox="0 0 367 348" fill="none" xmlns="http://www.w3.org/2000/svg">
<path d="M101.201 49.4421C100.215 51.0186 99.5888 52.7932 99.3672 54.6394C99.1456 56.4856 99.334 58.358 99.9189 60.123C105.973 61.4538 111.85 63.4885 117.431 66.1855C117.518 64.1692 118.118 62.2083 119.174 60.4883C112.664 57.727 106.605 54.0034 101.201 49.4421Z" fill="#FFF773"/>
<path d="M303.186 329.886C309.065 336.418 316.621 341.217 325.033 343.762C329.19 340.366 332.061 335.65 333.168 330.397C324.84 327.966 317.406 323.148 311.787 316.539C310.264 323.437 308.515 327.044 303.186 329.886Z" fill="#DED9FD"/>
<path d="M282.429 37.8394C277.825 33.8902 272.054 31.5565 265.999 31.1947C262.812 34.0685 259.204 36.4386 255.301 38.2228C259.222 39.8065 260.51 42.4176 261.419 48.3176C267.8 43.6958 274.898 40.1558 282.429 37.8394Z" fill="url(#paint0_linear_2648_9071)"/>
<path d="M281.434 93.5541C286.316 91.3386 292.135 91.2091 304.403 95.6029C305.44 89.7896 304.581 83.7968 301.952 78.509C293.917 76.3527 285.467 76.2734 277.393 78.2785C280.351 82.802 281.768 88.1598 281.434 93.5541Z" fill="white"/>
<path d="M129.845 35.5607C127.935 34.0739 126.508 32.0557 125.742 29.7599C125.378 30.0387 124.961 30.2408 124.517 30.3542C124.072 30.4675 123.61 30.4897 123.156 30.4194C123.823 33.0405 125.206 35.4244 127.15 37.304C128.189 36.9759 129.12 36.3736 129.845 35.5607Z" fill="url(#paint1_linear_2648_9071)"/>
<path d="M349.24 175.972C350.643 174.578 351.511 172.735 351.693 170.765C345.645 169.323 339.908 166.799 334.757 163.317C334.269 165.127 333.191 166.722 331.694 167.851C336.895 171.781 342.878 174.55 349.24 175.972Z" fill="url(#paint2_linear_2648_9071)"/>
<path d="M374.562 197.281C374.963 209.127 378.594 220.638 385.064 230.569C392.308 230.66 399.368 228.286 405.085 223.837C398.597 214.107 395.088 202.696 394.987 191.001C392.398 193.699 389.163 195.691 385.589 196.79C382.015 197.888 378.219 198.058 374.562 197.281Z" fill="white" fill-opacity="0.62"/>
<path d="M229.423 278.651C233.078 275.479 237.781 273.777 242.619 273.877C239.142 267.117 234.569 260.979 229.087 255.713C225.097 257.832 221.609 260.785 218.862 264.372C223.401 268.287 227.008 273.165 229.423 278.651Z" fill="url(#paint3_linear_2648_9071)"/>
<path d="M334.444 56.7621C336.084 58.9491 338.272 60.6652 340.786 61.7373C343.3 62.8093 346.053 63.1996 348.766 62.8685C352.332 58.9624 354.478 53.9686 354.857 48.6932C349.396 44.8562 345.123 39.5611 342.528 33.4123C341.432 41.6602 338.683 49.6021 334.444 56.7621Z" fill="#0A31AA"/>
<path d="M78.3071 80.9806L84.1538 86.9028C72.6054 92.2937 64.6887 91.0133 59.8657 85.7925C58.9995 84.8404 58.2425 83.7946 57.6086 82.6744C62.4665 85.3159 69.294 85.1682 78.3071 80.9806Z" fill="#32CCFF"/>
<path d="M49.1908 39.9002C49.8568 40.8551 50.254 41.9714 50.3407 43.1324C50.0114 43.0532 49.6779 42.9924 49.3418 42.9504C41.3548 41.801 31.1243 48.0681 23.2178 46.8944C20.9168 46.7459 18.7226 45.8694 16.9526 44.3916L16.6038 44.0357C15.7125 43.0284 15.1074 41.8006 14.8515 40.4801C15.677 40.7104 16.5195 40.875 17.371 40.9722C25.358 42.1216 35.5885 35.8545 43.495 37.0283C45.1142 37.2109 46.6627 37.7928 48.0013 38.7218C48.4564 39.0507 48.8577 39.4482 49.1908 39.9002Z" fill="#32CCFF"/>
<path d="M54.2652 64.4538C53.6605 70.7213 54.8033 77.0339 57.5667 82.6917C58.2006 83.8119 58.9576 84.8577 59.8238 85.8097L55.1866 81.0599L53.4043 79.2259C49.5304 74.5314 47.9442 67.0835 48.3781 58.5437C48.7656 52.982 50.7718 47.3275 50.3275 43.1581C50.2408 41.9972 49.8436 40.8809 49.1776 39.926L53.8288 44.6497C58.7061 48.2294 54.8367 56.4434 54.2652 64.4538Z" fill="#32CCFF"/>
<path d="M11.4457 1.34628L16.9235 6.91858L17.5627 7.5822C23.592 14.5471 12.9218 31.1561 14.8466 40.4559C15.1025 41.7764 15.7076 43.0042 16.5989 44.0115L11.1009 38.4453C4.025 31.7958 15.4674 14.471 13.2925 4.85137C13.002 3.53866 12.3642 2.32812 11.4457 1.34628Z" fill="#32CCFF"/>
<path d="M165.295 81.2055L174.903 90.8853C176.963 92.7994 179.441 94.2056 182.141 94.9918C193.104 98.8628 212.329 81.7788 227.521 79.1565C229.169 78.8513 230.848 78.7546 232.52 78.8689C234.912 79.0408 237.168 80.048 238.893 81.7144L229.348 72.0872C227.821 70.7794 225.997 69.8666 224.035 69.4289C222.073 68.9912 220.034 69.042 218.096 69.577C202.868 72.1153 183.722 89.1053 172.716 85.4123C172.371 85.1227 171.79 85.115 171.367 84.9193C169.102 84.1264 167.032 82.8604 165.295 81.2055Z" fill="#874DEC"/>
<path d="M361.806 264.413L371.325 274.071C371.386 271.685 370.952 269.312 370.051 267.101C369.15 264.89 367.801 262.89 366.089 261.225C364.376 259.542 362.444 258.098 360.346 256.931C361.343 259.298 361.841 261.845 361.806 264.413Z" fill="#874DEC"/>
<path d="M165.041 80.9419L165.323 81.1789C167.036 82.8155 169.074 84.0736 171.305 84.8714C167.267 72.4443 176.152 52.6548 170.368 36.8362L160.823 27.209C167.57 45.761 154.282 69.7066 165.041 80.9419Z" fill="#874DEC"/>
<path d="M305.029 229.778C306.496 230.997 308.067 232.085 309.724 233.031C304.717 221.82 314.379 207.974 314.448 193.013C314.743 186.146 312.439 179.419 307.996 174.175L306.994 173.332C305.487 171.922 303.791 170.73 301.954 169.79C303.99 174.111 305.024 178.836 304.98 183.612C304.857 201.307 291.052 217.602 305.029 229.778Z" fill="#874DEC"/>
<path d="M313.144 237.988C315.095 239.922 317.31 241.568 319.724 242.878C328.921 248.15 348.055 249.804 360.246 256.791C362.345 257.958 364.277 259.402 365.99 261.085L356.44 251.401C345.606 240.636 320.996 239.457 310.179 233.25C310.031 233.152 309.894 233.037 309.772 232.908C308.115 231.963 306.544 230.875 305.076 229.656L313.144 237.988Z" fill="#874DEC"/>
<path d="M225.966 164.488L234.937 173.526L236.064 174.474C236.378 174.737 236.691 175.001 237.004 175.264C246.189 182.077 258.573 173.512 267.774 170.451C279.497 165.66 292.588 164.585 301.891 169.413C303.728 170.353 305.425 171.545 306.931 172.955L297.417 163.354C288.272 154.65 272.282 155.106 258.229 160.823C250.35 163.393 240.206 169.992 231.699 167.651C230.15 167.232 228.691 166.532 227.396 165.584C226.91 165.336 226.44 164.941 225.966 164.488Z" fill="#874DEC"/>
<path d="M225.803 164.303L225.991 164.461C226.492 164.882 226.962 165.277 227.463 165.698C228.758 166.646 230.216 167.346 231.765 167.765C228.785 159.166 231.025 147.473 232.889 140.168C237.247 123.094 248.379 91.3496 238.891 81.7174C237.179 80.0996 234.961 79.1224 232.612 78.9508C235.195 92.3461 227.025 116.371 223.292 130.604C220.931 139.897 217.959 156.213 225.803 164.303Z" fill="#874DEC"/>
<defs>
<linearGradient id="paint0_linear_2648_9071" x1="104.12" y1="-103.247" x2="94.4063" y2="-117.143" gradientUnits="userSpaceOnUse">
<stop stop-color="#005200"/>
<stop offset="0.19" stop-color="#00890B"/>
<stop offset="0.31" stop-color="#00A912"/>
<stop offset="0.33" stop-color="#11AD12"/>
<stop offset="0.37" stop-color="#3AB512"/>
<stop offset="0.41" stop-color="#5ABC12"/>
<stop offset="0.44" stop-color="#71C112"/>
<stop offset="0.48" stop-color="#7EC412"/>
<stop offset="0.51" stop-color="#83C512"/>
<stop offset="0.55" stop-color="#7FC412"/>
<stop offset="0.59" stop-color="#72C112"/>
<stop offset="0.63" stop-color="#5EBD12"/>
<stop offset="0.67" stop-color="#41B712"/>
<stop offset="0.72" stop-color="#1CAF12"/>
<stop offset="0.74" stop-color="#00A912"/>
<stop offset="0.78" stop-color="#009E10"/>
<stop offset="0.86" stop-color="#00800C"/>
<stop offset="0.95" stop-color="#005004"/>
<stop offset="1" stop-color="#003400"/>
</linearGradient>
<linearGradient id="paint1_linear_2648_9071" x1="215" y1="173.923" x2="219.436" y2="170.938" gradientUnits="userSpaceOnUse">
<stop stop-color="#AB3C00"/>
<stop offset="0.34" stop-color="#FFC700"/>
<stop offset="0.37" stop-color="#FFCD17"/>
<stop offset="0.41" stop-color="#FFD533"/>
<stop offset="0.44" stop-color="#FFDA46"/>
<stop offset="0.48" stop-color="#FFDD52"/>
<stop offset="0.52" stop-color="#FFDE56"/>
<stop offset="0.55" stop-color="#FFDD51"/>
<stop offset="0.59" stop-color="#FFD943"/>
<stop offset="0.62" stop-color="#FFD32B"/>
<stop offset="0.66" stop-color="#FFCA0B"/>
<stop offset="0.67" stop-color="#FFC700"/>
<stop offset="1" stop-color="#AB3C00"/>
</linearGradient>
<linearGradient id="paint2_linear_2648_9071" x1="327.167" y1="139.91" x2="332.123" y2="131.652" gradientUnits="userSpaceOnUse">
<stop stop-color="#920040"/>
<stop offset="0.05" stop-color="#AE0052"/>
<stop offset="0.12" stop-color="#D10069"/>
<stop offset="0.19" stop-color="#EA007A"/>
<stop offset="0.25" stop-color="#FA0084"/>
<stop offset="0.3" stop-color="#FF0087"/>
<stop offset="0.35" stop-color="#FF1A8B"/>
<stop offset="0.43" stop-color="#FF3F92"/>
<stop offset="0.5" stop-color="#FF5696"/>
<stop offset="0.55" stop-color="#FF5E97"/>
<stop offset="0.58" stop-color="#FF5696"/>
<stop offset="0.64" stop-color="#FF3F92"/>
<stop offset="0.71" stop-color="#FF198B"/>
<stop offset="0.75" stop-color="#FF0087"/>
<stop offset="0.79" stop-color="#FA0084"/>
<stop offset="0.84" stop-color="#EA007A"/>
<stop offset="0.9" stop-color="#D10069"/>
<stop offset="0.96" stop-color="#AE0053"/>
<stop offset="1" stop-color="#920040"/>
</linearGradient>
<linearGradient id="paint3_linear_2648_9071" x1="240.593" y1="211.178" x2="256.615" y2="200.329" gradientUnits="userSpaceOnUse">
<stop stop-color="#005200"/>
<stop offset="0.19" stop-color="#00890B"/>
<stop offset="0.31" stop-color="#00A912"/>
<stop offset="0.33" stop-color="#11AD12"/>
<stop offset="0.37" stop-color="#3AB512"/>
<stop offset="0.41" stop-color="#5ABC12"/>
<stop offset="0.44" stop-color="#71C112"/>
<stop offset="0.48" stop-color="#7EC412"/>
<stop offset="0.51" stop-color="#83C512"/>
<stop offset="0.55" stop-color="#7FC412"/>
<stop offset="0.59" stop-color="#72C112"/>
<stop offset="0.63" stop-color="#5EBD12"/>
<stop offset="0.67" stop-color="#41B712"/>
<stop offset="0.72" stop-color="#1CAF12"/>
<stop offset="0.74" stop-color="#00A912"/>
<stop offset="0.78" stop-color="#009E10"/>
<stop offset="0.86" stop-color="#00800C"/>
<stop offset="0.95" stop-color="#005004"/>
<stop offset="1" stop-color="#003400"/>
</linearGradient>
</defs>
</svg>
