<svg width="466" height="348" viewBox="0 0 466 348" fill="none" xmlns="http://www.w3.org/2000/svg">
<g opacity="0.58">
<g opacity="0.7304">
<path d="M114.348 51.3758L114.348 130.343L68.0066 176.685L68.0066 258.354L4.41706 321.943L2.9624 320.489L65.9285 257.522L65.9285 175.854L112.27 129.512L112.27 51.3759L114.348 51.3758Z" fill="white" fill-opacity="0.42"/>
<path d="M117.257 51.5926C117.257 49.412 115.489 47.6443 113.309 47.6443C111.128 47.6443 109.36 49.412 109.36 51.5926C109.36 53.7733 111.128 55.541 113.309 55.541C115.489 55.541 117.257 53.7732 117.257 51.5926Z" fill="white" fill-opacity="0.42"/>
<path d="M1.091 318.202C-0.363666 319.657 -0.363666 322.151 1.091 323.813C2.54566 325.268 5.03937 325.268 6.70184 323.813C8.1565 322.359 8.1565 319.865 6.70184 318.202C5.24718 316.748 2.75347 316.748 1.091 318.202Z" fill="white" fill-opacity="0.42"/>
</g>
<path d="M462.839 359.562L462.839 432.711L460.761 432.711L460.761 360.393L419.823 319.455L419.823 237.786L373.689 191.445L373.689 79.2279L350.207 55.7456L350.207 26.6524L352.285 26.6524L352.285 54.9144L375.768 78.3967L375.768 190.614L421.901 236.955L421.901 318.624L462.839 359.562Z" fill="white" fill-opacity="0.42"/>
<path d="M131.178 43.0658L131.178 152.997L92.7334 191.441L92.7334 242.562L113.306 263.135L113.306 418.992L111.228 418.992L111.228 264.174L90.6553 243.394L90.6553 190.61L129.1 152.165L129.1 43.0658L131.178 43.0658Z" fill="white" fill-opacity="0.42"/>
<g opacity="0.5129">
<path d="M365.589 88.7857L365.589 132.841L333.586 164.844L333.586 227.81L302.207 259.189L302.207 351.664L300.129 351.664L300.129 258.358L331.508 226.979L331.508 164.013L363.511 131.802L363.511 89.6169L320.494 46.3928L321.949 44.9381L365.589 88.7857Z" fill="white" fill-opacity="0.42"/>
<path d="M318.621 48.6766C317.167 47.2219 317.167 44.7282 318.621 43.0657C320.076 41.6111 322.57 41.6111 324.232 43.0657C325.687 44.5204 325.687 47.0141 324.232 48.6766C322.57 50.1312 320.076 50.1312 318.621 48.6766Z" fill="white" fill-opacity="0.42"/>
<path d="M297.22 351.659C297.22 353.737 298.882 355.607 301.168 355.607C303.454 355.607 305.116 353.945 305.116 351.659C305.116 349.373 303.454 347.711 301.168 347.711C298.882 347.711 297.22 349.373 297.22 351.659Z" fill="white" fill-opacity="0.42"/>
</g>
<g opacity="0.5919">
<path d="M164.429 13.3456L149.467 28.1001L149.467 150.707L108.528 191.646L108.528 228.428L138.661 258.56L138.661 375.557L136.582 375.557L136.582 259.391L106.45 229.259L106.45 190.607L147.389 149.668L147.389 27.2688L162.974 11.6831L164.429 13.3456Z" fill="white" fill-opacity="0.42"/>
<path d="M166.303 15.4266C167.758 13.9719 167.758 11.4782 166.303 9.81573C164.849 8.36107 162.355 8.36108 160.693 9.81574C159.238 11.2704 159.238 13.7641 160.693 15.4266C162.355 16.8812 164.849 16.8812 166.303 15.4266Z" fill="white" fill-opacity="0.42"/>
</g>
<g opacity="0.2668">
<path d="M329.849 94.1901L329.849 148.013L268.13 209.732L268.13 336.288L297.847 366.004L296.392 367.459L266.052 337.119L266.052 208.901L327.771 147.181L327.771 95.0214L297.431 64.8892L297.431 11.2745L299.509 11.2745L299.509 64.0579L329.849 94.1901Z" fill="white" fill-opacity="0.42"/>
<path d="M302.419 11.4891C302.419 9.30846 300.651 7.54074 298.471 7.54074C296.29 7.54075 294.522 9.30849 294.522 11.4891C294.522 13.6697 296.29 15.4375 298.471 15.4375C300.651 15.4375 302.419 13.6697 302.419 11.4891Z" fill="white" fill-opacity="0.42"/>
</g>
<g opacity="0.7109">
<path d="M342.525 82.5594L342.525 111.029L340.447 111.029L340.447 83.3906L308.028 50.9725L309.483 49.5178L342.525 82.5594Z" fill="white" fill-opacity="0.42"/>
<path d="M306.156 53.2703C304.702 51.8157 304.702 49.322 306.156 47.6595C307.611 46.2048 310.105 46.2048 311.767 47.6595C313.222 49.1141 313.222 51.6078 311.767 53.2703C310.105 54.725 307.819 54.725 306.156 53.2703Z" fill="white" fill-opacity="0.42"/>
<path d="M337.532 110.825C337.532 112.903 339.195 114.773 341.481 114.773C343.767 114.773 345.429 113.111 345.429 110.825C345.429 108.747 343.767 106.877 341.481 106.877C339.195 106.877 337.532 108.539 337.532 110.825Z" fill="white" fill-opacity="0.42"/>
</g>
<g opacity="0.8">
<path d="M188.525 10.8481L168.575 30.7978L168.575 141.144L131.585 178.134L131.585 239.022L163.588 271.025L163.588 404.23L124.935 442.883L123.48 441.428L161.51 403.399L161.51 271.856L129.507 239.854L129.507 177.303L166.497 140.313L166.497 29.9666L187.07 9.39345L188.525 10.8481Z" fill="white" fill-opacity="0.42"/>
<path d="M184.998 7.53059C186.453 6.07593 188.947 6.07593 190.609 7.53059C192.064 8.98525 192.064 11.4789 190.609 13.1414C189.154 14.5961 186.661 14.5961 184.998 13.1414C183.544 11.479 183.544 8.98525 184.998 7.53059Z" fill="white" fill-opacity="0.42"/>
</g>
<g opacity="0.412">
<path d="M214.505 8.99126L183.541 39.9549L183.541 138.872L145.097 177.525L145.097 236.75L192.685 284.338L191.23 285.793L143.019 237.581L143.019 176.693L181.463 138.041L181.463 39.1237L213.05 7.53665L214.505 8.99126Z" fill="white" fill-opacity="0.42"/>
<path d="M210.759 5.6634C212.214 4.20873 214.707 4.20873 216.37 5.66338C217.824 7.11804 217.824 9.61174 216.37 11.2742C214.915 12.7289 212.421 12.7289 210.759 11.2742C209.304 9.81958 209.304 7.32588 210.759 5.6634Z" fill="white" fill-opacity="0.42"/>
<path d="M188.936 287.663C190.39 289.118 192.884 289.118 194.547 287.663C196.001 286.208 196.001 283.715 194.547 282.052C193.092 280.597 190.598 280.597 188.936 282.052C187.481 283.715 187.481 286.208 188.936 287.663Z" fill="white" fill-opacity="0.42"/>
</g>
<g opacity="0.3847">
<path d="M311.348 115.175L311.348 152.788L240.693 223.236L240.693 409.225L238.615 409.225L238.615 222.404L309.27 151.957L309.27 116.006L282.879 89.6144L282.879 17.9203L269.579 4.6206L271.033 3.16588L284.957 17.0891L284.957 88.5753L311.348 115.175Z" fill="white" fill-opacity="0.42"/>
<path d="M267.713 6.70197C266.258 5.24731 266.258 2.75358 267.713 1.0911C269.168 -0.363564 271.661 -0.363572 273.324 1.09109C274.779 2.54574 274.779 5.03948 273.324 6.70195C271.661 8.15662 269.168 8.15663 267.713 6.70197Z" fill="white" fill-opacity="0.42"/>
</g>
<g opacity="0.4875">
<path d="M226.773 150.302L226.773 174.615L224.695 174.615L224.695 151.133L201.836 128.274L201.836 43.4878L203.914 43.4878L203.914 127.443L226.773 150.302Z" fill="white" fill-opacity="0.42"/>
<path d="M198.927 43.6883C198.927 41.6102 200.589 39.74 202.875 39.74C204.953 39.74 206.824 41.4024 206.824 43.6883C206.824 45.9742 205.161 47.6367 202.875 47.6367C200.589 47.6367 198.927 45.7664 198.927 43.6883Z" fill="white" fill-opacity="0.42"/>
<path d="M221.79 174.405C221.79 176.483 223.452 178.354 225.738 178.354C227.816 178.354 229.687 176.691 229.687 174.405C229.687 172.327 228.024 170.457 225.738 170.457C223.66 170.457 221.79 172.327 221.79 174.405Z" fill="white" fill-opacity="0.42"/>
</g>
<g opacity="0.2223">
<path d="M203.282 153.629L169.201 187.71L169.201 236.961L167.123 236.961L167.123 186.671L201.827 152.175L203.282 153.629Z" fill="white" fill-opacity="0.42"/>
<path d="M199.743 150.095C201.198 148.64 203.691 148.64 205.354 150.095C206.808 151.55 206.808 154.043 205.354 155.706C203.899 157.161 201.405 157.161 199.743 155.706C198.08 154.251 198.08 151.758 199.743 150.095Z" fill="white" fill-opacity="0.42"/>
<path d="M172.106 236.749C172.106 234.568 170.338 232.801 168.157 232.801C165.977 232.801 164.209 234.568 164.209 236.749C164.209 238.93 165.977 240.697 168.157 240.697C170.338 240.697 172.106 238.93 172.106 236.749Z" fill="white" fill-opacity="0.42"/>
</g>
<g opacity="0.7062">
<path d="M206.825 177.101L183.343 200.584L183.343 244.016L181.265 244.016L181.265 199.752L205.37 175.646L206.825 177.101Z" fill="white" fill-opacity="0.42"/>
<path d="M203.295 173.581C204.749 172.127 207.243 172.127 208.906 173.581C210.36 175.036 210.36 177.53 208.906 179.192C207.451 180.647 204.957 180.647 203.295 179.192C201.632 177.738 201.632 175.244 203.295 173.581Z" fill="white" fill-opacity="0.42"/>
<path d="M186.25 243.811C186.25 241.631 184.483 239.863 182.302 239.863C180.121 239.863 178.354 241.631 178.354 243.811C178.354 245.992 180.121 247.76 182.302 247.76C184.483 247.76 186.25 245.992 186.25 243.811Z" fill="white" fill-opacity="0.42"/>
</g>
<g opacity="0.688">
<path d="M314.05 194.36L283.502 224.908L283.502 324.656L281.424 324.656L281.424 224.077L312.595 192.905L314.05 194.36Z" fill="white" fill-opacity="0.42"/>
<path d="M310.311 191.031C311.765 189.576 314.259 189.576 315.922 191.031C317.376 192.485 317.376 194.979 315.922 196.641C314.467 198.096 311.973 198.096 310.311 196.641C308.856 194.979 308.856 192.485 310.311 191.031Z" fill="white" fill-opacity="0.42"/>
<path d="M286.407 324.657C286.407 322.476 284.639 320.709 282.458 320.709C280.277 320.709 278.51 322.476 278.51 324.657C278.51 326.838 280.277 328.605 282.458 328.605C284.639 328.605 286.407 326.838 286.407 324.657Z" fill="white" fill-opacity="0.42"/>
</g>
<g opacity="0.9899">
<path d="M444.35 359.149L444.35 426.894L442.272 426.894L442.272 359.98L390.112 307.82L390.112 247.763L356.031 213.89L356.031 150.093L358.109 150.093L358.109 212.851L392.19 246.932L392.19 306.989L444.35 359.149Z" fill="white" fill-opacity="0.42"/>
<path d="M353.122 150.29C353.122 148.212 354.785 146.342 357.07 146.342C359.149 146.342 361.019 148.004 361.019 150.29C361.019 152.368 359.356 154.238 357.07 154.238C354.785 154.238 353.122 152.576 353.122 150.29Z" fill="white" fill-opacity="0.42"/>
</g>
<g opacity="0.6948">
<path d="M363.301 429.588L361.847 431.043L321.947 391.144L321.947 269.368L345.43 245.885L345.43 173.568L347.508 173.568L347.508 246.716L324.025 270.199L324.025 390.312L363.301 429.588Z" fill="white" fill-opacity="0.42"/>
<path d="M342.515 173.776C342.515 171.698 344.177 169.828 346.463 169.828C348.749 169.828 350.411 171.49 350.411 173.776C350.411 175.854 348.749 177.725 346.463 177.725C344.177 177.725 342.515 176.062 342.515 173.776Z" fill="white" fill-opacity="0.42"/>
</g>
<g opacity="0.7808">
<path d="M408.593 363.305L408.593 420.452L389.059 439.986L387.604 438.532L406.515 419.621L406.515 364.136L364.122 321.951L364.122 253.582L366.2 253.582L366.2 320.912L408.593 363.305Z" fill="white" fill-opacity="0.42"/>
<path d="M361.425 253.585C361.425 251.507 363.087 249.636 365.373 249.636C367.659 249.636 369.322 251.299 369.322 253.585C369.322 255.663 367.659 257.533 365.373 257.533C363.087 257.533 361.425 255.871 361.425 253.585Z" fill="white" fill-opacity="0.42"/>
</g>
<g opacity="0.6487">
<path d="M380.964 379.091L380.964 406.937L378.886 406.937L378.886 379.922L346.676 347.712L346.676 277.057L348.754 277.057L348.754 346.881L380.964 379.091Z" fill="white" fill-opacity="0.42"/>
<path d="M351.663 277.263C351.663 275.082 349.896 273.314 347.715 273.314C345.534 273.314 343.767 275.082 343.767 277.263C343.767 279.443 345.534 281.211 347.715 281.211C349.896 281.211 351.663 279.443 351.663 277.263Z" fill="white" fill-opacity="0.42"/>
</g>
<g opacity="0.3038">
<path d="M310.523 436.651L309.069 438.105L257.324 386.361L257.324 250.038L259.402 250.038L259.402 385.53L310.523 436.651Z" fill="white" fill-opacity="0.42"/>
<path d="M254.41 250.257C254.41 248.179 256.073 246.308 258.359 246.308C260.437 246.308 262.307 247.971 262.307 250.257C262.307 252.543 260.644 254.205 258.359 254.205C256.28 253.997 254.41 252.335 254.41 250.257Z" fill="white" fill-opacity="0.42"/>
</g>
<g opacity="0.2599">
<path d="M288.29 135.956L288.29 158.607L223.869 222.821L223.869 421.07L221.791 421.07L221.791 221.989L286.212 157.776L286.212 136.788L260.859 111.643L260.859 42.2346L241.533 22.9084L242.988 21.4538L262.937 41.4034L262.937 110.812L288.29 135.956Z" fill="white" fill-opacity="0.42"/>
<path d="M239.654 25.1981C238.2 23.7434 238.2 21.2497 239.654 19.5872C241.109 18.1326 243.603 18.1326 245.265 19.5872C246.72 21.0419 246.72 23.5356 245.265 25.198C243.603 26.6527 241.109 26.6527 239.654 25.1981Z" fill="white" fill-opacity="0.42"/>
</g>
<g opacity="0.8829">
<path d="M268.546 138.032L268.546 162.138L206.411 224.273L206.411 431.666L204.333 431.666L204.333 223.441L266.468 161.306L266.468 138.863L248.596 120.992L248.596 47.6351L230.933 29.9714L232.387 28.5167L250.674 46.8037L250.674 120.16L268.546 138.032Z" fill="white" fill-opacity="0.42"/>
<path d="M235.717 29.3504C235.717 27.1698 233.949 25.4021 231.769 25.4021C229.588 25.4021 227.82 27.1698 227.82 29.3505C227.82 31.5311 229.588 33.2988 231.769 33.2988C233.949 33.2988 235.717 31.5311 235.717 29.3504Z" fill="white" fill-opacity="0.42"/>
</g>
<g opacity="0.8947">
<path d="M242.369 138.446L240.914 139.9L217.432 116.21L217.432 42.0224L219.51 42.0224L219.51 115.379L242.369 138.446Z" fill="white" fill-opacity="0.42"/>
<path d="M222.419 42.2254C222.419 40.0448 220.651 38.2771 218.471 38.2771C216.29 38.2771 214.522 40.0448 214.522 42.2254C214.522 44.4061 216.29 46.1738 218.471 46.1738C220.651 46.1738 222.419 44.406 222.419 42.2254Z" fill="white" fill-opacity="0.42"/>
<path d="M245.484 138.856C245.484 136.676 243.716 134.908 241.535 134.908C239.355 134.908 237.587 136.676 237.587 138.856C237.587 141.037 239.355 142.805 241.535 142.805C243.716 142.805 245.484 141.037 245.484 138.856Z" fill="white" fill-opacity="0.42"/>
</g>
<g opacity="0.6324">
<path d="M83.1782 203.082L83.1782 276.023L27.4854 331.924L26.0308 330.469L81.1001 275.192L81.1001 203.082L83.1782 203.082Z" fill="white" fill-opacity="0.42"/>
<path d="M86.0754 203.081C86.0754 200.9 84.3077 199.133 82.1271 199.133C79.9465 199.133 78.1787 200.9 78.1787 203.081C78.1787 205.262 79.9465 207.029 82.1271 207.029C84.3077 207.029 86.0754 205.262 86.0754 203.081Z" fill="white" fill-opacity="0.42"/>
<path d="M30.803 330.886C30.803 328.705 29.0352 326.937 26.8546 326.937C24.674 326.937 22.9062 328.705 22.9062 330.886C22.9062 333.066 24.674 334.834 26.8546 334.834C29.0352 334.834 30.803 333.066 30.803 330.886Z" fill="white" fill-opacity="0.42"/>
</g>
<g opacity="0.8529">
<path d="M82.9642 302.206L47.6367 337.326L47.6367 436.035L45.5586 436.035L45.5586 336.495L81.5095 300.751L82.9642 302.206Z" fill="white" fill-opacity="0.42"/>
<path d="M79.2131 298.886C80.6677 297.431 83.1614 297.431 84.8239 298.886C86.2786 300.341 86.2786 302.834 84.8239 304.497C83.3692 305.952 80.8755 305.952 79.2131 304.497C77.7584 302.834 77.7584 300.341 79.2131 298.886Z" fill="white" fill-opacity="0.42"/>
</g>
</g>
</svg>
