<svg width="1307" height="1000" viewBox="0 0 1307 1000" fill="none" xmlns="http://www.w3.org/2000/svg">
<mask id="mask0_2648_5275" style="mask-type:alpha" maskUnits="userSpaceOnUse" x="266" y="64" width="775" height="775">
<circle cx="653.5" cy="451.5" r="387.5" fill="#D9D9D9" fill-opacity="0.74"/>
</mask>
<g mask="url(#mask0_2648_5275)">
<g opacity="0.38">
<g style="mix-blend-mode:overlay">
<rect x="-4.01385e-08" y="0.673412" width="79.4627" height="79.4627" transform="matrix(0.866025 0.5 -0.866025 0.5 1066.17 5.30546)" stroke="white" stroke-opacity="0.08" stroke-width="1.34682"/>
</g>
<g style="mix-blend-mode:overlay">
<rect x="-4.01385e-08" y="0.673412" width="79.4627" height="79.4627" transform="matrix(0.866025 0.5 -0.866025 0.5 928.534 5.30546)" stroke="white" stroke-opacity="0.7" stroke-width="1.34682"/>
<rect x="-4.01385e-08" y="0.673412" width="79.4627" height="79.4627" transform="matrix(0.866025 0.5 -0.866025 0.5 859.717 45.0369)" stroke="white" stroke-opacity="0.3" stroke-width="1.34682"/>
<rect x="-4.01385e-08" y="0.673412" width="79.4627" height="79.4627" transform="matrix(0.866025 0.5 -0.866025 0.5 790.901 5.30546)" stroke="white" stroke-opacity="0.08" stroke-width="1.34682"/>
</g>
<g style="mix-blend-mode:overlay">
<rect x="-4.01385e-08" y="0.673412" width="79.4627" height="79.4627" transform="matrix(0.866025 0.5 -0.866025 0.5 997.351 45.0369)" stroke="white" stroke-opacity="0.5" stroke-width="1.34682"/>
<rect x="-4.01385e-08" y="0.673412" width="79.4627" height="79.4627" transform="matrix(0.866025 0.5 -0.866025 0.5 1066.17 84.7683)" stroke="white" stroke-opacity="0.7" stroke-width="1.34682"/>
<rect x="-4.01385e-08" y="0.673412" width="79.4627" height="79.4627" transform="matrix(0.866025 0.5 -0.866025 0.5 997.351 124.5)" stroke="white" stroke-opacity="0.3" stroke-width="1.34682"/>
<rect x="-4.01385e-08" y="0.673412" width="79.4627" height="79.4627" transform="matrix(0.866025 0.5 -0.866025 0.5 928.534 84.7683)" stroke="white" stroke-opacity="0.08" stroke-width="1.34682"/>
</g>
<g style="mix-blend-mode:overlay">
<rect x="-4.01385e-08" y="0.673412" width="79.4627" height="79.4627" transform="matrix(0.866025 0.5 -0.866025 0.5 1066.17 164.23)" stroke="white" stroke-opacity="0.08" stroke-width="1.34682"/>
</g>
<g style="mix-blend-mode:overlay">
<rect x="-4.01385e-08" y="0.673412" width="79.4627" height="79.4627" transform="matrix(0.866025 0.5 -0.866025 0.5 653.267 5.30643)" stroke="white" stroke-opacity="0.7" stroke-width="1.34682"/>
<rect x="-4.01385e-08" y="0.673412" width="79.4627" height="79.4627" transform="matrix(0.866025 0.5 -0.866025 0.5 584.45 45.0379)" stroke="white" stroke-opacity="0.3" stroke-width="1.34682"/>
<rect x="-4.01385e-08" y="0.673412" width="79.4627" height="79.4627" transform="matrix(0.866025 0.5 -0.866025 0.5 515.633 5.30643)" stroke="white" stroke-opacity="0.08" stroke-width="1.34682"/>
</g>
<g style="mix-blend-mode:overlay">
<rect x="-4.01385e-08" y="0.673412" width="79.4627" height="79.4627" transform="matrix(0.866025 0.5 -0.866025 0.5 722.084 45.0379)" stroke="white" stroke-opacity="0.5" stroke-width="1.34682"/>
<rect x="-4.01385e-08" y="0.673412" width="79.4627" height="79.4627" transform="matrix(0.866025 0.5 -0.866025 0.5 790.901 84.7693)" stroke="white" stroke-opacity="0.7" stroke-width="1.34682"/>
<rect x="-4.01385e-08" y="0.673412" width="79.4627" height="79.4627" transform="matrix(0.866025 0.5 -0.866025 0.5 722.084 124.501)" stroke="white" stroke-opacity="0.3" stroke-width="1.34682"/>
<rect x="-4.01385e-08" y="0.673412" width="79.4627" height="79.4627" transform="matrix(0.866025 0.5 -0.866025 0.5 653.267 84.7693)" stroke="white" stroke-opacity="0.08" stroke-width="1.34682"/>
</g>
<g style="mix-blend-mode:overlay">
<rect x="-4.01385e-08" y="0.673412" width="79.4627" height="79.4627" transform="matrix(0.866025 0.5 -0.866025 0.5 859.717 124.5)" stroke="white" stroke-opacity="0.5" stroke-width="1.34682"/>
<rect x="-4.01385e-08" y="0.673412" width="79.4627" height="79.4627" transform="matrix(0.866025 0.5 -0.866025 0.5 928.534 164.231)" stroke="white" stroke-opacity="0.7" stroke-width="1.34682"/>
<rect x="-4.01385e-08" y="0.673412" width="79.4627" height="79.4627" transform="matrix(0.866025 0.5 -0.866025 0.5 859.717 203.963)" stroke="white" stroke-opacity="0.3" stroke-width="1.34682"/>
<rect x="-4.01385e-08" y="0.673412" width="79.4627" height="79.4627" transform="matrix(0.866025 0.5 -0.866025 0.5 790.901 164.231)" stroke="white" stroke-opacity="0.08" stroke-width="1.34682"/>
</g>
<g style="mix-blend-mode:overlay">
<rect x="-4.01385e-08" y="0.673412" width="79.4627" height="79.4627" transform="matrix(0.866025 0.5 -0.866025 0.5 997.351 203.962)" stroke="white" stroke-opacity="0.5" stroke-width="1.34682"/>
<rect x="-4.01385e-08" y="0.673412" width="79.4627" height="79.4627" transform="matrix(0.866025 0.5 -0.866025 0.5 1066.17 243.693)" stroke="white" stroke-opacity="0.7" stroke-width="1.34682"/>
<rect x="-4.01385e-08" y="0.673412" width="79.4627" height="79.4627" transform="matrix(0.866025 0.5 -0.866025 0.5 997.351 283.425)" stroke="white" stroke-opacity="0.3" stroke-width="1.34682"/>
<rect x="-4.01385e-08" y="0.673412" width="79.4627" height="79.4627" transform="matrix(0.866025 0.5 -0.866025 0.5 928.534 243.693)" stroke="white" stroke-opacity="0.08" stroke-width="1.34682"/>
</g>
<g style="mix-blend-mode:overlay">
<rect x="-4.01385e-08" y="0.673412" width="79.4627" height="79.4627" transform="matrix(0.866025 0.5 -0.866025 0.5 1066.17 323.157)" stroke="white" stroke-opacity="0.08" stroke-width="1.34682"/>
</g>
<g style="mix-blend-mode:overlay">
<rect x="-4.01385e-08" y="0.673412" width="79.4627" height="79.4627" transform="matrix(0.866025 0.5 -0.866025 0.5 378.001 5.30546)" stroke="white" stroke-opacity="0.7" stroke-width="1.34682"/>
<rect x="-4.01385e-08" y="0.673412" width="79.4627" height="79.4627" transform="matrix(0.866025 0.5 -0.866025 0.5 309.184 45.0369)" stroke="white" stroke-opacity="0.3" stroke-width="1.34682"/>
<rect x="-4.01385e-08" y="0.673412" width="79.4627" height="79.4627" transform="matrix(0.866025 0.5 -0.866025 0.5 240.367 5.30546)" stroke="white" stroke-opacity="0.08" stroke-width="1.34682"/>
</g>
<g style="mix-blend-mode:overlay">
<rect x="-4.01385e-08" y="0.673412" width="79.4627" height="79.4627" transform="matrix(0.866025 0.5 -0.866025 0.5 446.817 45.0369)" stroke="white" stroke-opacity="0.5" stroke-width="1.34682"/>
<rect x="-4.01385e-08" y="0.673412" width="79.4627" height="79.4627" transform="matrix(0.866025 0.5 -0.866025 0.5 515.634 84.7683)" stroke="white" stroke-opacity="0.7" stroke-width="1.34682"/>
<rect x="-4.01385e-08" y="0.673412" width="79.4627" height="79.4627" transform="matrix(0.866025 0.5 -0.866025 0.5 446.817 124.5)" stroke="white" stroke-opacity="0.3" stroke-width="1.34682"/>
<rect x="-4.01385e-08" y="0.673412" width="79.4627" height="79.4627" transform="matrix(0.866025 0.5 -0.866025 0.5 378 84.7683)" stroke="white" stroke-opacity="0.08" stroke-width="1.34682"/>
</g>
<g style="mix-blend-mode:overlay">
<rect x="-4.01385e-08" y="0.673412" width="79.4627" height="79.4627" transform="matrix(0.866025 0.5 -0.866025 0.5 584.45 124.499)" stroke="white" stroke-opacity="0.5" stroke-width="1.34682"/>
<rect x="-4.01385e-08" y="0.673412" width="79.4627" height="79.4627" transform="matrix(0.866025 0.5 -0.866025 0.5 653.267 164.23)" stroke="white" stroke-opacity="0.7" stroke-width="1.34682"/>
<rect x="-4.01385e-08" y="0.673412" width="79.4627" height="79.4627" transform="matrix(0.866025 0.5 -0.866025 0.5 584.45 203.962)" stroke="white" stroke-opacity="0.3" stroke-width="1.34682"/>
<rect x="-4.01385e-08" y="0.673412" width="79.4627" height="79.4627" transform="matrix(0.866025 0.5 -0.866025 0.5 515.633 164.23)" stroke="white" stroke-opacity="0.08" stroke-width="1.34682"/>
</g>
<g style="mix-blend-mode:overlay">
<rect x="-4.01385e-08" y="0.673412" width="79.4627" height="79.4627" transform="matrix(0.866025 0.5 -0.866025 0.5 722.084 203.964)" stroke="white" stroke-opacity="0.5" stroke-width="1.34682"/>
<rect x="-4.01385e-08" y="0.673412" width="79.4627" height="79.4627" transform="matrix(0.866025 0.5 -0.866025 0.5 790.901 243.695)" stroke="white" stroke-opacity="0.7" stroke-width="1.34682"/>
<rect x="-4.01385e-08" y="0.673412" width="79.4627" height="79.4627" transform="matrix(0.866025 0.5 -0.866025 0.5 722.084 283.427)" stroke="white" stroke-opacity="0.3" stroke-width="1.34682"/>
<rect x="-4.01385e-08" y="0.673412" width="79.4627" height="79.4627" transform="matrix(0.866025 0.5 -0.866025 0.5 653.267 243.695)" stroke="white" stroke-opacity="0.08" stroke-width="1.34682"/>
</g>
<g style="mix-blend-mode:overlay">
<rect x="-4.01385e-08" y="0.673412" width="79.4627" height="79.4627" transform="matrix(0.866025 0.5 -0.866025 0.5 859.717 283.426)" stroke="white" stroke-opacity="0.5" stroke-width="1.34682"/>
<rect x="-4.01385e-08" y="0.673412" width="79.4627" height="79.4627" transform="matrix(0.866025 0.5 -0.866025 0.5 928.534 323.157)" stroke="white" stroke-opacity="0.7" stroke-width="1.34682"/>
<rect x="-4.01385e-08" y="0.673412" width="79.4627" height="79.4627" transform="matrix(0.866025 0.5 -0.866025 0.5 859.717 362.888)" stroke="white" stroke-opacity="0.3" stroke-width="1.34682"/>
<rect x="-4.01385e-08" y="0.673412" width="79.4627" height="79.4627" transform="matrix(0.866025 0.5 -0.866025 0.5 790.901 323.157)" stroke="white" stroke-opacity="0.08" stroke-width="1.34682"/>
</g>
<g style="mix-blend-mode:overlay">
<rect x="-4.01385e-08" y="0.673412" width="79.4627" height="79.4627" transform="matrix(0.866025 0.5 -0.866025 0.5 997.349 362.887)" stroke="white" stroke-opacity="0.5" stroke-width="1.34682"/>
<rect x="-4.01385e-08" y="0.673412" width="79.4627" height="79.4627" transform="matrix(0.866025 0.5 -0.866025 0.5 1066.17 402.619)" stroke="white" stroke-opacity="0.7" stroke-width="1.34682"/>
<rect x="-4.01385e-08" y="0.673412" width="79.4627" height="79.4627" transform="matrix(0.866025 0.5 -0.866025 0.5 997.349 442.35)" stroke="white" stroke-opacity="0.3" stroke-width="1.34682"/>
<rect x="-4.01385e-08" y="0.673412" width="79.4627" height="79.4627" transform="matrix(0.866025 0.5 -0.866025 0.5 928.532 402.619)" stroke="white" stroke-opacity="0.08" stroke-width="1.34682"/>
</g>
<g style="mix-blend-mode:overlay">
<rect x="-4.01385e-08" y="0.673412" width="79.4627" height="79.4627" transform="matrix(0.866025 0.5 -0.866025 0.5 1066.17 482.081)" stroke="white" stroke-opacity="0.08" stroke-width="1.34682"/>
</g>
<g style="mix-blend-mode:overlay">
<rect x="-4.01385e-08" y="0.673412" width="79.4627" height="79.4627" transform="matrix(0.866025 0.5 -0.866025 0.5 240.367 84.7703)" stroke="white" stroke-opacity="0.7" stroke-width="1.34682"/>
</g>
<g style="mix-blend-mode:overlay">
<rect x="-4.01385e-08" y="0.673412" width="79.4627" height="79.4627" transform="matrix(0.866025 0.5 -0.866025 0.5 309.184 124.501)" stroke="white" stroke-opacity="0.5" stroke-width="1.34682"/>
<rect x="-4.01385e-08" y="0.673412" width="79.4627" height="79.4627" transform="matrix(0.866025 0.5 -0.866025 0.5 378.001 164.232)" stroke="white" stroke-opacity="0.7" stroke-width="1.34682"/>
<rect x="-4.01385e-08" y="0.673412" width="79.4627" height="79.4627" transform="matrix(0.866025 0.5 -0.866025 0.5 309.184 203.964)" stroke="white" stroke-opacity="0.3" stroke-width="1.34682"/>
<rect x="-4.01385e-08" y="0.673412" width="79.4627" height="79.4627" transform="matrix(0.866025 0.5 -0.866025 0.5 240.367 164.232)" stroke="white" stroke-opacity="0.08" stroke-width="1.34682"/>
</g>
<g style="mix-blend-mode:overlay">
<rect x="-4.01385e-08" y="0.673412" width="79.4627" height="79.4627" transform="matrix(0.866025 0.5 -0.866025 0.5 446.817 203.963)" stroke="white" stroke-opacity="0.5" stroke-width="1.34682"/>
<rect x="-4.01385e-08" y="0.673412" width="79.4627" height="79.4627" transform="matrix(0.866025 0.5 -0.866025 0.5 515.634 243.694)" stroke="white" stroke-opacity="0.7" stroke-width="1.34682"/>
<rect x="-4.01385e-08" y="0.673412" width="79.4627" height="79.4627" transform="matrix(0.866025 0.5 -0.866025 0.5 446.817 283.426)" stroke="white" stroke-opacity="0.3" stroke-width="1.34682"/>
<rect x="-4.01385e-08" y="0.673412" width="79.4627" height="79.4627" transform="matrix(0.866025 0.5 -0.866025 0.5 378 243.694)" stroke="white" stroke-opacity="0.08" stroke-width="1.34682"/>
</g>
<g style="mix-blend-mode:overlay">
<rect x="-4.01385e-08" y="0.673412" width="79.4627" height="79.4627" transform="matrix(0.866025 0.5 -0.866025 0.5 584.45 283.427)" stroke="white" stroke-opacity="0.5" stroke-width="1.34682"/>
<rect x="-4.01385e-08" y="0.673412" width="79.4627" height="79.4627" transform="matrix(0.866025 0.5 -0.866025 0.5 653.267 323.158)" stroke="white" stroke-opacity="0.7" stroke-width="1.34682"/>
<rect x="-4.01385e-08" y="0.673412" width="79.4627" height="79.4627" transform="matrix(0.866025 0.5 -0.866025 0.5 584.45 362.889)" stroke="white" stroke-opacity="0.3" stroke-width="1.34682"/>
<rect x="-4.01385e-08" y="0.673412" width="79.4627" height="79.4627" transform="matrix(0.866025 0.5 -0.866025 0.5 515.633 323.158)" stroke="white" stroke-opacity="0.08" stroke-width="1.34682"/>
</g>
<g style="mix-blend-mode:overlay">
<rect x="-4.01385e-08" y="0.673412" width="79.4627" height="79.4627" transform="matrix(0.866025 0.5 -0.866025 0.5 722.084 362.888)" stroke="white" stroke-opacity="0.5" stroke-width="1.34682"/>
<rect x="-4.01385e-08" y="0.673412" width="79.4627" height="79.4627" transform="matrix(0.866025 0.5 -0.866025 0.5 790.901 402.62)" stroke="white" stroke-opacity="0.7" stroke-width="1.34682"/>
<rect x="-4.01385e-08" y="0.673412" width="79.4627" height="79.4627" transform="matrix(0.866025 0.5 -0.866025 0.5 722.084 442.351)" stroke="white" stroke-opacity="0.3" stroke-width="1.34682"/>
<rect x="-4.01385e-08" y="0.673412" width="79.4627" height="79.4627" transform="matrix(0.866025 0.5 -0.866025 0.5 653.267 402.62)" stroke="white" stroke-opacity="0.08" stroke-width="1.34682"/>
</g>
<g style="mix-blend-mode:overlay">
<rect x="-4.01385e-08" y="0.673412" width="79.4627" height="79.4627" transform="matrix(0.866025 0.5 -0.866025 0.5 859.716 442.35)" stroke="white" stroke-opacity="0.5" stroke-width="1.34682"/>
<rect x="-4.01385e-08" y="0.673412" width="79.4627" height="79.4627" transform="matrix(0.866025 0.5 -0.866025 0.5 928.532 482.082)" stroke="white" stroke-opacity="0.7" stroke-width="1.34682"/>
<rect x="-4.01385e-08" y="0.673412" width="79.4627" height="79.4627" transform="matrix(0.866025 0.5 -0.866025 0.5 859.716 521.813)" stroke="white" stroke-opacity="0.3" stroke-width="1.34682"/>
<rect x="-4.01385e-08" y="0.673412" width="79.4627" height="79.4627" transform="matrix(0.866025 0.5 -0.866025 0.5 790.899 482.082)" stroke="white" stroke-opacity="0.08" stroke-width="1.34682"/>
</g>
<g style="mix-blend-mode:overlay">
<rect x="-4.01385e-08" y="0.673412" width="79.4627" height="79.4627" transform="matrix(0.866025 0.5 -0.866025 0.5 997.349 521.813)" stroke="white" stroke-opacity="0.5" stroke-width="1.34682"/>
<rect x="-4.01385e-08" y="0.673412" width="79.4627" height="79.4627" transform="matrix(0.866025 0.5 -0.866025 0.5 1066.17 561.545)" stroke="white" stroke-opacity="0.7" stroke-width="1.34682"/>
<rect x="-4.01385e-08" y="0.673412" width="79.4627" height="79.4627" transform="matrix(0.866025 0.5 -0.866025 0.5 997.349 601.276)" stroke="white" stroke-opacity="0.3" stroke-width="1.34682"/>
<rect x="-4.01385e-08" y="0.673412" width="79.4627" height="79.4627" transform="matrix(0.866025 0.5 -0.866025 0.5 928.532 561.545)" stroke="white" stroke-opacity="0.08" stroke-width="1.34682"/>
</g>
<g style="mix-blend-mode:overlay">
<rect x="-4.01385e-08" y="0.673412" width="79.4627" height="79.4627" transform="matrix(0.866025 0.5 -0.866025 0.5 1066.17 641.007)" stroke="white" stroke-opacity="0.08" stroke-width="1.34682"/>
</g>
<g style="mix-blend-mode:overlay">
<rect x="-4.01385e-08" y="0.673412" width="79.4627" height="79.4627" transform="matrix(0.866025 0.5 -0.866025 0.5 240.369 243.694)" stroke="white" stroke-opacity="0.7" stroke-width="1.34682"/>
</g>
<g style="mix-blend-mode:overlay">
<rect x="-4.01385e-08" y="0.673412" width="79.4627" height="79.4627" transform="matrix(0.866025 0.5 -0.866025 0.5 309.185 283.426)" stroke="white" stroke-opacity="0.5" stroke-width="1.34682"/>
<rect x="-4.01385e-08" y="0.673412" width="79.4627" height="79.4627" transform="matrix(0.866025 0.5 -0.866025 0.5 378.002 323.157)" stroke="white" stroke-opacity="0.7" stroke-width="1.34682"/>
<rect x="-4.01385e-08" y="0.673412" width="79.4627" height="79.4627" transform="matrix(0.866025 0.5 -0.866025 0.5 309.185 362.888)" stroke="white" stroke-opacity="0.3" stroke-width="1.34682"/>
<rect x="-4.01385e-08" y="0.673412" width="79.4627" height="79.4627" transform="matrix(0.866025 0.5 -0.866025 0.5 240.368 323.157)" stroke="white" stroke-opacity="0.08" stroke-width="1.34682"/>
</g>
<g style="mix-blend-mode:overlay">
<rect x="-4.01385e-08" y="0.673412" width="79.4627" height="79.4627" transform="matrix(0.866025 0.5 -0.866025 0.5 446.819 362.888)" stroke="white" stroke-opacity="0.5" stroke-width="1.34682"/>
<rect x="-4.01385e-08" y="0.673412" width="79.4627" height="79.4627" transform="matrix(0.866025 0.5 -0.866025 0.5 515.635 402.62)" stroke="white" stroke-opacity="0.7" stroke-width="1.34682"/>
<rect x="-4.01385e-08" y="0.673412" width="79.4627" height="79.4627" transform="matrix(0.866025 0.5 -0.866025 0.5 446.819 442.351)" stroke="white" stroke-opacity="0.3" stroke-width="1.34682"/>
<rect x="-4.01385e-08" y="0.673412" width="79.4627" height="79.4627" transform="matrix(0.866025 0.5 -0.866025 0.5 378.002 402.62)" stroke="white" stroke-opacity="0.08" stroke-width="1.34682"/>
</g>
<g style="mix-blend-mode:overlay">
<rect x="-4.01385e-08" y="0.673412" width="79.4627" height="79.4627" transform="matrix(0.866025 0.5 -0.866025 0.5 584.452 442.35)" stroke="white" stroke-opacity="0.5" stroke-width="1.34682"/>
<rect x="-4.01385e-08" y="0.673412" width="79.4627" height="79.4627" transform="matrix(0.866025 0.5 -0.866025 0.5 653.269 482.082)" stroke="white" stroke-opacity="0.7" stroke-width="1.34682"/>
<rect x="-4.01385e-08" y="0.673412" width="79.4627" height="79.4627" transform="matrix(0.866025 0.5 -0.866025 0.5 584.452 521.813)" stroke="white" stroke-opacity="0.3" stroke-width="1.34682"/>
<rect x="-4.01385e-08" y="0.673412" width="79.4627" height="79.4627" transform="matrix(0.866025 0.5 -0.866025 0.5 515.635 482.082)" stroke="white" stroke-opacity="0.08" stroke-width="1.34682"/>
</g>
<g style="mix-blend-mode:overlay">
<rect x="-4.01385e-08" y="0.673412" width="79.4627" height="79.4627" transform="matrix(0.866025 0.5 -0.866025 0.5 722.084 521.812)" stroke="white" stroke-opacity="0.5" stroke-width="1.34682"/>
<rect x="-4.01385e-08" y="0.673412" width="79.4627" height="79.4627" transform="matrix(0.866025 0.5 -0.866025 0.5 790.901 561.544)" stroke="white" stroke-opacity="0.7" stroke-width="1.34682"/>
<rect x="-4.01385e-08" y="0.673412" width="79.4627" height="79.4627" transform="matrix(0.866025 0.5 -0.866025 0.5 722.084 601.275)" stroke="white" stroke-opacity="0.3" stroke-width="1.34682"/>
<rect x="-4.01385e-08" y="0.673412" width="79.4627" height="79.4627" transform="matrix(0.866025 0.5 -0.866025 0.5 653.267 561.544)" stroke="white" stroke-opacity="0.08" stroke-width="1.34682"/>
</g>
<g style="mix-blend-mode:overlay">
<rect x="-4.01385e-08" y="0.673412" width="79.4627" height="79.4627" transform="matrix(0.866025 0.5 -0.866025 0.5 859.717 601.274)" stroke="white" stroke-opacity="0.5" stroke-width="1.34682"/>
<rect x="-4.01385e-08" y="0.673412" width="79.4627" height="79.4627" transform="matrix(0.866025 0.5 -0.866025 0.5 928.534 641.006)" stroke="white" stroke-opacity="0.7" stroke-width="1.34682"/>
<rect x="-4.01385e-08" y="0.673412" width="79.4627" height="79.4627" transform="matrix(0.866025 0.5 -0.866025 0.5 859.717 680.737)" stroke="white" stroke-opacity="0.3" stroke-width="1.34682"/>
<rect x="-4.01385e-08" y="0.673412" width="79.4627" height="79.4627" transform="matrix(0.866025 0.5 -0.866025 0.5 790.9 641.006)" stroke="white" stroke-opacity="0.08" stroke-width="1.34682"/>
</g>
<g style="mix-blend-mode:overlay">
<rect x="-4.01385e-08" y="0.673412" width="79.4627" height="79.4627" transform="matrix(0.866025 0.5 -0.866025 0.5 997.35 680.738)" stroke="white" stroke-opacity="0.5" stroke-width="1.34682"/>
<rect x="-4.01385e-08" y="0.673412" width="79.4627" height="79.4627" transform="matrix(0.866025 0.5 -0.866025 0.5 1066.17 720.47)" stroke="white" stroke-opacity="0.7" stroke-width="1.34682"/>
<rect x="-4.01385e-08" y="0.673412" width="79.4627" height="79.4627" transform="matrix(0.866025 0.5 -0.866025 0.5 997.35 760.201)" stroke="white" stroke-opacity="0.3" stroke-width="1.34682"/>
<rect x="-4.01385e-08" y="0.673412" width="79.4627" height="79.4627" transform="matrix(0.866025 0.5 -0.866025 0.5 928.533 720.47)" stroke="white" stroke-opacity="0.08" stroke-width="1.34682"/>
</g>
<g style="mix-blend-mode:overlay">
<rect x="-4.01385e-08" y="0.673412" width="79.4627" height="79.4627" transform="matrix(0.866025 0.5 -0.866025 0.5 240.369 402.619)" stroke="white" stroke-opacity="0.7" stroke-width="1.34682"/>
</g>
<g style="mix-blend-mode:overlay">
<rect x="-4.01385e-08" y="0.673412" width="79.4627" height="79.4627" transform="matrix(0.866025 0.5 -0.866025 0.5 309.185 442.35)" stroke="white" stroke-opacity="0.5" stroke-width="1.34682"/>
<rect x="-4.01385e-08" y="0.673412" width="79.4627" height="79.4627" transform="matrix(0.866025 0.5 -0.866025 0.5 378.002 482.082)" stroke="white" stroke-opacity="0.7" stroke-width="1.34682"/>
<rect x="-4.01385e-08" y="0.673412" width="79.4627" height="79.4627" transform="matrix(0.866025 0.5 -0.866025 0.5 309.185 521.813)" stroke="white" stroke-opacity="0.3" stroke-width="1.34682"/>
<rect x="-4.01385e-08" y="0.673412" width="79.4627" height="79.4627" transform="matrix(0.866025 0.5 -0.866025 0.5 240.368 482.082)" stroke="white" stroke-opacity="0.08" stroke-width="1.34682"/>
</g>
<g style="mix-blend-mode:overlay">
<rect x="-4.01385e-08" y="0.673412" width="79.4627" height="79.4627" transform="matrix(0.866025 0.5 -0.866025 0.5 446.819 521.813)" stroke="white" stroke-opacity="0.5" stroke-width="1.34682"/>
<rect x="-4.01385e-08" y="0.673412" width="79.4627" height="79.4627" transform="matrix(0.866025 0.5 -0.866025 0.5 515.635 561.545)" stroke="white" stroke-opacity="0.7" stroke-width="1.34682"/>
<rect x="-4.01385e-08" y="0.673412" width="79.4627" height="79.4627" transform="matrix(0.866025 0.5 -0.866025 0.5 446.819 601.276)" stroke="white" stroke-opacity="0.3" stroke-width="1.34682"/>
<rect x="-4.01385e-08" y="0.673412" width="79.4627" height="79.4627" transform="matrix(0.866025 0.5 -0.866025 0.5 378.002 561.545)" stroke="white" stroke-opacity="0.08" stroke-width="1.34682"/>
</g>
<g style="mix-blend-mode:overlay">
<rect x="-4.01385e-08" y="0.673412" width="79.4627" height="79.4627" transform="matrix(0.866025 0.5 -0.866025 0.5 584.45 601.274)" stroke="white" stroke-opacity="0.5" stroke-width="1.34682"/>
<rect x="-4.01385e-08" y="0.673412" width="79.4627" height="79.4627" transform="matrix(0.866025 0.5 -0.866025 0.5 653.267 641.006)" stroke="white" stroke-opacity="0.7" stroke-width="1.34682"/>
<rect x="-4.01385e-08" y="0.673412" width="79.4627" height="79.4627" transform="matrix(0.866025 0.5 -0.866025 0.5 584.45 680.737)" stroke="white" stroke-opacity="0.3" stroke-width="1.34682"/>
<rect x="-4.01385e-08" y="0.673412" width="79.4627" height="79.4627" transform="matrix(0.866025 0.5 -0.866025 0.5 515.633 641.006)" stroke="white" stroke-opacity="0.08" stroke-width="1.34682"/>
</g>
<g style="mix-blend-mode:overlay">
<rect x="-4.01385e-08" y="0.673412" width="79.4627" height="79.4627" transform="matrix(0.866025 0.5 -0.866025 0.5 722.084 680.738)" stroke="white" stroke-opacity="0.5" stroke-width="1.34682"/>
<rect x="-4.01385e-08" y="0.673412" width="79.4627" height="79.4627" transform="matrix(0.866025 0.5 -0.866025 0.5 790.901 720.47)" stroke="white" stroke-opacity="0.7" stroke-width="1.34682"/>
<rect x="-4.01385e-08" y="0.673412" width="79.4627" height="79.4627" transform="matrix(0.866025 0.5 -0.866025 0.5 722.084 760.201)" stroke="white" stroke-opacity="0.3" stroke-width="1.34682"/>
<rect x="-4.01385e-08" y="0.673412" width="79.4627" height="79.4627" transform="matrix(0.866025 0.5 -0.866025 0.5 653.267 720.47)" stroke="white" stroke-opacity="0.08" stroke-width="1.34682"/>
</g>
<g style="mix-blend-mode:overlay">
<rect x="-4.01385e-08" y="0.673412" width="79.4627" height="79.4627" transform="matrix(0.866025 0.5 -0.866025 0.5 859.717 760.2)" stroke="white" stroke-opacity="0.5" stroke-width="1.34682"/>
<rect x="-4.01385e-08" y="0.673412" width="79.4627" height="79.4627" transform="matrix(0.866025 0.5 -0.866025 0.5 928.534 799.931)" stroke="white" stroke-opacity="0.7" stroke-width="1.34682"/>
<rect x="-4.01385e-08" y="0.673412" width="79.4627" height="79.4627" transform="matrix(0.866025 0.5 -0.866025 0.5 790.9 799.931)" stroke="white" stroke-opacity="0.08" stroke-width="1.34682"/>
</g>
<g style="mix-blend-mode:overlay">
<rect x="-4.01385e-08" y="0.673412" width="79.4627" height="79.4627" transform="matrix(0.866025 0.5 -0.866025 0.5 240.369 561.545)" stroke="white" stroke-opacity="0.7" stroke-width="1.34682"/>
</g>
<g style="mix-blend-mode:overlay">
<rect x="-4.01385e-08" y="0.673412" width="79.4627" height="79.4627" transform="matrix(0.866025 0.5 -0.866025 0.5 309.185 601.275)" stroke="white" stroke-opacity="0.5" stroke-width="1.34682"/>
<rect x="-4.01385e-08" y="0.673412" width="79.4627" height="79.4627" transform="matrix(0.866025 0.5 -0.866025 0.5 378.002 641.007)" stroke="white" stroke-opacity="0.7" stroke-width="1.34682"/>
<rect x="-4.01385e-08" y="0.673412" width="79.4627" height="79.4627" transform="matrix(0.866025 0.5 -0.866025 0.5 309.185 680.738)" stroke="white" stroke-opacity="0.3" stroke-width="1.34682"/>
<rect x="-4.01385e-08" y="0.673412" width="79.4627" height="79.4627" transform="matrix(0.866025 0.5 -0.866025 0.5 240.368 641.007)" stroke="white" stroke-opacity="0.08" stroke-width="1.34682"/>
</g>
<g style="mix-blend-mode:overlay">
<rect x="-4.01385e-08" y="0.673412" width="79.4627" height="79.4627" transform="matrix(0.866025 0.5 -0.866025 0.5 446.817 680.738)" stroke="white" stroke-opacity="0.5" stroke-width="1.34682"/>
<rect x="-4.01385e-08" y="0.673412" width="79.4627" height="79.4627" transform="matrix(0.866025 0.5 -0.866025 0.5 515.634 720.47)" stroke="white" stroke-opacity="0.7" stroke-width="1.34682"/>
<rect x="-4.01385e-08" y="0.673412" width="79.4627" height="79.4627" transform="matrix(0.866025 0.5 -0.866025 0.5 446.817 760.201)" stroke="white" stroke-opacity="0.3" stroke-width="1.34682"/>
<rect x="-4.01385e-08" y="0.673412" width="79.4627" height="79.4627" transform="matrix(0.866025 0.5 -0.866025 0.5 378 720.47)" stroke="white" stroke-opacity="0.08" stroke-width="1.34682"/>
</g>
<g style="mix-blend-mode:overlay">
<rect x="-4.01385e-08" y="0.673412" width="79.4627" height="79.4627" transform="matrix(0.866025 0.5 -0.866025 0.5 584.45 760.2)" stroke="white" stroke-opacity="0.5" stroke-width="1.34682"/>
<rect x="-4.01385e-08" y="0.673412" width="79.4627" height="79.4627" transform="matrix(0.866025 0.5 -0.866025 0.5 653.267 799.931)" stroke="white" stroke-opacity="0.7" stroke-width="1.34682"/>
<rect x="-4.01385e-08" y="0.673412" width="79.4627" height="79.4627" transform="matrix(0.866025 0.5 -0.866025 0.5 515.633 799.931)" stroke="white" stroke-opacity="0.08" stroke-width="1.34682"/>
</g>
</g>
</g>
</svg>
