<svg width="30" height="37" viewBox="0 0 30 37" fill="none" xmlns="http://www.w3.org/2000/svg">
<g filter="url(#filter0_d_2648_6569)">
<mask id="path-1-outside-1_2648_6569" maskUnits="userSpaceOnUse" x="4.75" y="3" width="20" height="28" fill="black">
<rect fill="white" x="4.75" y="3" width="20" height="28"/>
<path fillRule="evenodd" clipRule="evenodd" d="M17.25 15.5L21.75 11V8H8.25V11L12.75 15.5V17L8.25 21.5V26H21.75V21.5L17.25 17V15.5ZM6.75 5H23.25V6.5H6.75V5ZM6.75 27.5H23.25V29H6.75V27.5ZM9.75 23H11.25V24.5H9.75V23ZM12.75 23H14.25V24.5H12.75V23ZM11.25 21.5H12.75V23H11.25V21.5ZM14.25 21.5H15.75V23H14.25V21.5ZM17.25 21.5H18.75V23H17.25V21.5ZM15.75 20H17.25V21.5H15.75V20ZM12.75 20H14.25V21.5H12.75V20ZM14.25 18.5H15.75V20H14.25V18.5ZM14.25 15.5H15.75V17H14.25V15.5ZM15.75 12.5H17.25V14H15.75V12.5ZM14.25 11H15.75V12.5H14.25V11ZM11.25 11H12.75V12.5H11.25V11ZM17.25 11H18.75V12.5H17.25V11ZM12.75 12.5H14.25V14H12.75V12.5ZM15.75 23H17.25V24.5H15.75V23ZM18.75 23H20.25V24.5H18.75V23Z"/>
</mask>
<path fillRule="evenodd" clipRule="evenodd" d="M17.25 15.5L21.75 11V8H8.25V11L12.75 15.5V17L8.25 21.5V26H21.75V21.5L17.25 17V15.5ZM6.75 5H23.25V6.5H6.75V5ZM6.75 27.5H23.25V29H6.75V27.5ZM9.75 23H11.25V24.5H9.75V23ZM12.75 23H14.25V24.5H12.75V23ZM11.25 21.5H12.75V23H11.25V21.5ZM14.25 21.5H15.75V23H14.25V21.5ZM17.25 21.5H18.75V23H17.25V21.5ZM15.75 20H17.25V21.5H15.75V20ZM12.75 20H14.25V21.5H12.75V20ZM14.25 18.5H15.75V20H14.25V18.5ZM14.25 15.5H15.75V17H14.25V15.5ZM15.75 12.5H17.25V14H15.75V12.5ZM14.25 11H15.75V12.5H14.25V11ZM11.25 11H12.75V12.5H11.25V11ZM17.25 11H18.75V12.5H17.25V11ZM12.75 12.5H14.25V14H12.75V12.5ZM15.75 23H17.25V24.5H15.75V23ZM18.75 23H20.25V24.5H18.75V23Z" fill="white"/>
<path d="M21.75 11L22.8107 12.0607L23.25 11.6213V11H21.75ZM21.75 8H23.25V6.5H21.75V8ZM8.25 8V6.5H6.75V8H8.25ZM8.25 11H6.75V11.6213L7.18934 12.0607L8.25 11ZM12.75 15.5H14.25V14.8787L13.8107 14.4393L12.75 15.5ZM12.75 17L13.8107 18.0607L14.25 17.6213V17H12.75ZM8.25 21.5L7.18934 20.4393L6.75 20.8787V21.5H8.25ZM8.25 26H6.75V27.5H8.25V26ZM21.75 26V27.5H23.25V26H21.75ZM21.75 21.5H23.25V20.8787L22.8107 20.4393L21.75 21.5ZM17.25 17H15.75V17.6213L16.1893 18.0607L17.25 17ZM17.25 15.5L16.1893 14.4393L15.75 14.8787V15.5H17.25ZM23.25 5H24.75V3.5H23.25V5ZM23.25 6.5V8H24.75V6.5H23.25ZM6.75 6.5H5.25V8H6.75V6.5ZM6.75 5V3.5H5.25V5H6.75ZM23.25 27.5H24.75V26H23.25V27.5ZM23.25 29V30.5H24.75V29H23.25ZM6.75 29H5.25V30.5H6.75V29ZM6.75 27.5V26H5.25V27.5H6.75ZM11.25 23H12.75V21.5H11.25V23ZM11.25 24.5V26H12.75V24.5H11.25ZM9.75 24.5H8.25V26H9.75V24.5ZM9.75 23V21.5H8.25V23H9.75ZM14.25 23H15.75V21.5H14.25V23ZM14.25 24.5V26H15.75V24.5H14.25ZM12.75 24.5H11.25V26H12.75V24.5ZM12.75 23V21.5H11.25V23H12.75ZM12.75 21.5H14.25V20H12.75V21.5ZM12.75 23V24.5H14.25V23H12.75ZM11.25 23H9.75V24.5H11.25V23ZM11.25 21.5V20H9.75V21.5H11.25ZM15.75 21.5H17.25V20H15.75V21.5ZM15.75 23V24.5H17.25V23H15.75ZM14.25 23H12.75V24.5H14.25V23ZM14.25 21.5V20H12.75V21.5H14.25ZM18.75 21.5H20.25V20H18.75V21.5ZM18.75 23V24.5H20.25V23H18.75ZM17.25 23H15.75V24.5H17.25V23ZM17.25 21.5V20H15.75V21.5H17.25ZM17.25 20H18.75V18.5H17.25V20ZM17.25 21.5V23H18.75V21.5H17.25ZM15.75 21.5H14.25V23H15.75V21.5ZM15.75 20V18.5H14.25V20H15.75ZM14.25 20H15.75V18.5H14.25V20ZM14.25 21.5V23H15.75V21.5H14.25ZM12.75 21.5H11.25V23H12.75V21.5ZM12.75 20V18.5H11.25V20H12.75ZM15.75 18.5H17.25V17H15.75V18.5ZM15.75 20V21.5H17.25V20H15.75ZM14.25 20H12.75V21.5H14.25V20ZM14.25 18.5V17H12.75V18.5H14.25ZM15.75 15.5H17.25V14H15.75V15.5ZM15.75 17V18.5H17.25V17H15.75ZM14.25 17H12.75V18.5H14.25V17ZM14.25 15.5V14H12.75V15.5H14.25ZM17.25 12.5H18.75V11H17.25V12.5ZM17.25 14V15.5H18.75V14H17.25ZM15.75 14H14.25V15.5H15.75V14ZM15.75 12.5V11H14.25V12.5H15.75ZM15.75 11H17.25V9.5H15.75V11ZM15.75 12.5V14H17.25V12.5H15.75ZM14.25 12.5H12.75V14H14.25V12.5ZM14.25 11V9.5H12.75V11H14.25ZM12.75 11H14.25V9.5H12.75V11ZM12.75 12.5V14H14.25V12.5H12.75ZM11.25 12.5H9.75V14H11.25V12.5ZM11.25 11V9.5H9.75V11H11.25ZM18.75 11H20.25V9.5H18.75V11ZM18.75 12.5V14H20.25V12.5H18.75ZM17.25 12.5H15.75V14H17.25V12.5ZM17.25 11V9.5H15.75V11H17.25ZM14.25 12.5H15.75V11H14.25V12.5ZM14.25 14V15.5H15.75V14H14.25ZM12.75 14H11.25V15.5H12.75V14ZM12.75 12.5V11H11.25V12.5H12.75ZM17.25 23H18.75V21.5H17.25V23ZM17.25 24.5V26H18.75V24.5H17.25ZM15.75 24.5H14.25V26H15.75V24.5ZM15.75 23V21.5H14.25V23H15.75ZM20.25 23H21.75V21.5H20.25V23ZM20.25 24.5V26H21.75V24.5H20.25ZM18.75 24.5H17.25V26H18.75V24.5ZM18.75 23V21.5H17.25V23H18.75ZM18.3107 16.5607L22.8107 12.0607L20.6893 9.93934L16.1893 14.4393L18.3107 16.5607ZM23.25 11V8H20.25V11H23.25ZM21.75 6.5H8.25V9.5H21.75V6.5ZM6.75 8V11H9.75V8H6.75ZM7.18934 12.0607L11.6893 16.5607L13.8107 14.4393L9.31066 9.93934L7.18934 12.0607ZM11.25 15.5V17H14.25V15.5H11.25ZM11.6893 15.9393L7.18934 20.4393L9.31066 22.5607L13.8107 18.0607L11.6893 15.9393ZM6.75 21.5V26H9.75V21.5H6.75ZM8.25 27.5H21.75V24.5H8.25V27.5ZM23.25 26V21.5H20.25V26H23.25ZM22.8107 20.4393L18.3107 15.9393L16.1893 18.0607L20.6893 22.5607L22.8107 20.4393ZM18.75 17V15.5H15.75V17H18.75ZM6.75 6.5H23.25V3.5H6.75V6.5ZM21.75 5V6.5H24.75V5H21.75ZM23.25 5H6.75V8H23.25V5ZM8.25 6.5V5H5.25V6.5H8.25ZM6.75 29H23.25V26H6.75V29ZM21.75 27.5V29H24.75V27.5H21.75ZM23.25 27.5H6.75V30.5H23.25V27.5ZM8.25 29V27.5H5.25V29H8.25ZM9.75 24.5H11.25V21.5H9.75V24.5ZM9.75 23V24.5H12.75V23H9.75ZM11.25 23H9.75V26H11.25V23ZM11.25 24.5V23H8.25V24.5H11.25ZM12.75 24.5H14.25V21.5H12.75V24.5ZM12.75 23V24.5H15.75V23H12.75ZM14.25 23H12.75V26H14.25V23ZM14.25 24.5V23H11.25V24.5H14.25ZM11.25 23H12.75V20H11.25V23ZM11.25 21.5V23H14.25V21.5H11.25ZM12.75 21.5H11.25V24.5H12.75V21.5ZM12.75 23V21.5H9.75V23H12.75ZM14.25 23H15.75V20H14.25V23ZM14.25 21.5V23H17.25V21.5H14.25ZM15.75 21.5H14.25V24.5H15.75V21.5ZM15.75 23V21.5H12.75V23H15.75ZM17.25 23H18.75V20H17.25V23ZM17.25 21.5V23H20.25V21.5H17.25ZM18.75 21.5H17.25V24.5H18.75V21.5ZM18.75 23V21.5H15.75V23H18.75ZM15.75 21.5H17.25V18.5H15.75V21.5ZM15.75 20V21.5H18.75V20H15.75ZM17.25 20H15.75V23H17.25V20ZM17.25 21.5V20H14.25V21.5H17.25ZM12.75 21.5H14.25V18.5H12.75V21.5ZM12.75 20V21.5H15.75V20H12.75ZM14.25 20H12.75V23H14.25V20ZM14.25 21.5V20H11.25V21.5H14.25ZM14.25 20H15.75V17H14.25V20ZM14.25 18.5V20H17.25V18.5H14.25ZM15.75 18.5H14.25V21.5H15.75V18.5ZM15.75 20V18.5H12.75V20H15.75ZM14.25 17H15.75V14H14.25V17ZM14.25 15.5V17H17.25V15.5H14.25ZM15.75 15.5H14.25V18.5H15.75V15.5ZM15.75 17V15.5H12.75V17H15.75ZM15.75 14H17.25V11H15.75V14ZM15.75 12.5V14H18.75V12.5H15.75ZM17.25 12.5H15.75V15.5H17.25V12.5ZM17.25 14V12.5H14.25V14H17.25ZM14.25 12.5H15.75V9.5H14.25V12.5ZM14.25 11V12.5H17.25V11H14.25ZM15.75 11H14.25V14H15.75V11ZM15.75 12.5V11H12.75V12.5H15.75ZM11.25 12.5H12.75V9.5H11.25V12.5ZM11.25 11V12.5H14.25V11H11.25ZM12.75 11H11.25V14H12.75V11ZM12.75 12.5V11H9.75V12.5H12.75ZM17.25 12.5H18.75V9.5H17.25V12.5ZM17.25 11V12.5H20.25V11H17.25ZM18.75 11H17.25V14H18.75V11ZM18.75 12.5V11H15.75V12.5H18.75ZM12.75 14H14.25V11H12.75V14ZM12.75 12.5V14H15.75V12.5H12.75ZM14.25 12.5H12.75V15.5H14.25V12.5ZM14.25 14V12.5H11.25V14H14.25ZM15.75 24.5H17.25V21.5H15.75V24.5ZM15.75 23V24.5H18.75V23H15.75ZM17.25 23H15.75V26H17.25V23ZM17.25 24.5V23H14.25V24.5H17.25ZM18.75 24.5H20.25V21.5H18.75V24.5ZM18.75 23V24.5H21.75V23H18.75ZM20.25 23H18.75V26H20.25V23ZM20.25 24.5V23H17.25V24.5H20.25Z" fill="black" fill-opacity="0.8" mask="url(#path-1-outside-1_2648_6569)"/>
</g>
<defs>
<filter id="filter0_d_2648_6569" x="0.75" y="0.5" width="28.5" height="36" filterUnits="userSpaceOnUse" color-interpolation-filters="sRGB">
<feFlood flood-opacity="0" result="BackgroundImageFix"/>
<feColorMatrix in="SourceAlpha" type="matrix" values="0 0 0 0 0 0 0 0 0 0 0 0 0 0 0 0 0 0 127 0" result="hardAlpha"/>
<feOffset dy="1.5"/>
<feGaussianBlur stdDeviation="2.25"/>
<feColorMatrix type="matrix" values="0 0 0 0 0 0 0 0 0 0 0 0 0 0 0 0 0 0 0.2 0"/>
<feBlend mode="normal" in2="BackgroundImageFix" result="effect1_dropShadow_2648_6569"/>
<feBlend mode="normal" in="SourceGraphic" in2="effect1_dropShadow_2648_6569" result="shape"/>
</filter>
</defs>
</svg>
