<svg width="252" height="113" viewBox="0 0 252 113" fill="none" xmlns="http://www.w3.org/2000/svg">
<rect x="156" y="36" width="96" height="6" rx="1.85246" fill="url(#paint0_linear_2648_6622)" fill-opacity="0.15"/>
<rect x="156" y="46" width="96" height="6" rx="1.85246" fill="url(#paint1_linear_2648_6622)" fill-opacity="0.15"/>
<rect x="156" y="62" width="96" height="6" rx="1.85246" fill="url(#paint2_linear_2648_6622)" fill-opacity="0.15"/>
<rect x="156" y="82" width="96" height="6" rx="1.85246" fill="url(#paint3_linear_2648_6622)" fill-opacity="0.15"/>
<rect x="156" y="103" width="96" height="6" rx="1.85246" fill="url(#paint4_linear_2648_6622)" fill-opacity="0.15"/>
<rect x="-0.266715" y="0.266715" width="30.4055" height="37.8736" rx="1.86701" transform="matrix(-1 0 0 1 102.278 33)" stroke="white" stroke-opacity="0.28" stroke-width="0.533431"/>
<path fillRule="evenodd" clipRule="evenodd" d="M87.342 47.9365C87.6366 47.9365 87.8755 48.1753 87.8755 48.47V55.938C87.8755 56.2326 87.6366 56.4714 87.342 56.4714C87.0474 56.4714 86.8086 56.2326 86.8086 55.938V48.47C86.8086 48.1753 87.0474 47.9365 87.342 47.9365Z" fill="white"/>
<path fillRule="evenodd" clipRule="evenodd" d="M83.0747 52.2043C83.0747 51.9097 83.3135 51.6709 83.6081 51.6709H91.0762C91.3708 51.6709 91.6096 51.9097 91.6096 52.2043C91.6096 52.4989 91.3708 52.7378 91.0762 52.7378H83.6081C83.3135 52.7378 83.0747 52.4989 83.0747 52.2043Z" fill="white"/>
<rect x="-0.266715" y="0.266715" width="30.4055" height="37.8736" rx="1.86701" transform="matrix(-1 0 0 1 31.3318 33)" stroke="white" stroke-opacity="0.28" stroke-width="0.533431"/>
<path fillRule="evenodd" clipRule="evenodd" d="M12.1284 52.2043C12.1284 51.9097 12.3672 51.6709 12.6618 51.6709H20.1299C20.4245 51.6709 20.6633 51.9097 20.6633 52.2043C20.6633 52.4989 20.4245 52.7378 20.1299 52.7378H12.6618C12.3672 52.7378 12.1284 52.4989 12.1284 52.2043Z" fill="white"/>
<rect y="83.6562" width="102.811" height="28.7131" rx="1.85246" fill="#09E1BD"/>
<path d="M36.1053 97.3482L39.6213 101.656H37.9773L34.6653 97.6602V101.656H33.2853V93.2562H34.6653V97.0242L37.8573 93.2562H39.5013L36.1053 97.3482ZM42.5765 100.024L44.1125 95.6562H45.4925L43.1885 101.848C42.9085 102.608 42.5165 103.176 42.0125 103.552C41.5085 103.928 40.9245 104.096 40.2605 104.056V102.844C41.0285 102.892 41.5605 102.508 41.8565 101.692L41.8925 101.608L39.3725 95.6562H40.7525L42.5765 100.024ZM46.3029 95.6562H51.6429V101.656H50.3469V96.8802H47.5989V101.656H46.3029V95.6562ZM54.4186 99.4602L57.4906 95.6562H58.4866V101.656H57.2146V97.8402L54.1426 101.656H53.1466V95.6562H54.4186V99.4602ZM59.3544 95.6562H64.5744V96.9042H62.6184V101.656H61.3224V96.9042H59.3544V95.6562ZM66.7473 97.6962H68.0673C68.7153 97.6962 69.2393 97.8802 69.6393 98.2482C70.0473 98.6082 70.2513 99.0842 70.2513 99.6762C70.2513 100.26 70.0473 100.736 69.6393 101.104C69.2393 101.472 68.7153 101.656 68.0673 101.656H65.4513V95.6562H66.7473V97.6962ZM66.7473 100.492H68.0793C68.3353 100.492 68.5473 100.416 68.7153 100.264C68.8913 100.112 68.9793 99.9162 68.9793 99.6762C68.9793 99.4362 68.8953 99.2402 68.7273 99.0882C68.5593 98.9362 68.3433 98.8602 68.0793 98.8602H66.7473V100.492Z" fill="#2D0B5A"/>
<path d="M55.4749 50.5843L52.7795 54.305C53.6945 54.4152 54.4551 54.7735 55.0615 55.3799C55.6678 55.9531 55.971 56.7303 55.971 57.7115C55.971 58.8029 55.5906 59.6738 54.83 60.3242C54.0913 60.9526 53.1763 61.2668 52.0849 61.2668C51.214 61.2668 50.4423 61.0684 49.7698 60.6715C49.0974 60.2636 48.6288 59.6958 48.3643 58.9682L49.3234 58.406C49.5108 58.9682 49.8415 59.3982 50.3155 59.6958C50.8006 59.9935 51.3904 60.1423 52.0849 60.1423C52.9007 60.1423 53.5567 59.9274 54.0528 59.4974C54.5599 59.0564 54.8134 58.4611 54.8134 57.7115C54.8134 56.9618 54.5599 56.372 54.0528 55.9421C53.5567 55.5011 52.9007 55.2806 52.0849 55.2806V55.2641L52.0684 55.2806H51.7542L51.2581 54.52L54.1354 50.5843H48.695V49.4929H55.4749V50.5843Z" fill="white"/>
<path d="M15.818 10.32L19.965 15H18.483L14.557 10.632V15H13.348V5.9H14.557V10.008L18.353 5.9H19.835L15.818 10.32ZM23.1832 13.596L25.0552 8.5H26.2642L23.6122 15.403C23.3348 16.1397 22.9448 16.6987 22.4422 17.08C21.9395 17.47 21.3675 17.6433 20.7262 17.6V16.547C21.5148 16.6077 22.0998 16.1743 22.4812 15.247L22.5852 15.013L19.7642 8.5H20.9602L23.1832 13.596ZM27.2086 8.5H32.8376V15H31.7066V9.579H28.3396V15H27.2086V8.5ZM35.6772 13.063L39.2782 8.5H40.1882V15H39.0702V10.437L35.4692 15H34.5592V8.5H35.6772V13.063ZM41.1818 8.5H46.7458V9.592H44.5358V15H43.4048V9.592H41.1818V8.5ZM48.8679 10.84H50.4799C51.1299 10.84 51.6672 11.035 52.0919 11.425C52.5252 11.8063 52.7419 12.3047 52.7419 12.92C52.7419 13.5353 52.5252 14.038 52.0919 14.428C51.6586 14.8093 51.1212 15 50.4799 15H47.7369V8.5H48.8679V10.84ZM48.8679 13.947H50.4799C50.8092 13.947 51.0822 13.8517 51.2989 13.661C51.5156 13.4703 51.6239 13.2233 51.6239 12.92C51.6239 12.6167 51.5112 12.3697 51.2859 12.179C51.0692 11.9797 50.8006 11.88 50.4799 11.88H48.8679V13.947ZM56.4796 8.5H62.0436V9.592H59.8336V15H58.7026V9.592H56.4796V8.5ZM68.2669 14.181C67.6082 14.8397 66.7979 15.169 65.8359 15.169C64.8739 15.169 64.0635 14.8397 63.4049 14.181C62.7462 13.5223 62.4169 12.712 62.4169 11.75C62.4169 10.788 62.7462 9.97767 63.4049 9.319C64.0635 8.66033 64.8739 8.331 65.8359 8.331C66.7979 8.331 67.6082 8.66033 68.2669 9.319C68.9342 9.98633 69.2679 10.7967 69.2679 11.75C69.2679 12.7033 68.9342 13.5137 68.2669 14.181ZM65.8359 14.064C66.4859 14.064 67.0319 13.843 67.4739 13.401C67.9159 12.959 68.1369 12.4087 68.1369 11.75C68.1369 11.0913 67.9159 10.541 67.4739 10.099C67.0319 9.657 66.4859 9.436 65.8359 9.436C65.1945 9.436 64.6529 9.657 64.2109 10.099C63.7689 10.541 63.5479 11.0913 63.5479 11.75C63.5479 12.4087 63.7689 12.959 64.2109 13.401C64.6529 13.843 65.1945 14.064 65.8359 14.064ZM72.8892 11.646L76.1002 15H74.6962L71.7322 11.919V15H70.6012V8.5H71.7322V11.373L74.5402 8.5H75.9962L72.8892 11.646ZM82.7953 12.27H77.3483C77.4609 12.842 77.7253 13.2927 78.1413 13.622C78.5573 13.9427 79.0773 14.103 79.7013 14.103C80.5593 14.103 81.1833 13.7867 81.5733 13.154L82.5353 13.7C81.8939 14.6793 80.9406 15.169 79.6753 15.169C78.6526 15.169 77.8119 14.8483 77.1533 14.207C76.5119 13.5483 76.1913 12.7293 76.1913 11.75C76.1913 10.762 76.5076 9.94733 77.1403 9.306C77.7729 8.656 78.5919 8.331 79.5973 8.331C80.5506 8.331 81.3263 8.669 81.9243 9.345C82.5309 10.0037 82.8343 10.8097 82.8343 11.763C82.8343 11.9277 82.8213 12.0967 82.7953 12.27ZM79.5973 9.397C78.9993 9.397 78.4966 9.566 78.0893 9.904C77.6906 10.242 77.4436 10.7013 77.3483 11.282H81.6903C81.5949 10.684 81.3566 10.2203 80.9753 9.891C80.5939 9.56167 80.1346 9.397 79.5973 9.397ZM88.6324 11.204V8.5H89.7634V15H88.6324V12.283H85.2654V15H84.1344V8.5H85.2654V11.204H88.6324Z" fill="white"/>
<path d="M117.246 13.212L120.57 9H121.41V15H120.378V10.788L117.054 15H116.214V9H117.246V13.212ZM123.551 9H128.003V15H126.959V10.008H124.595V12.456C124.595 13.416 124.403 14.1 124.019 14.508C123.635 14.908 123.071 15.072 122.327 15V14.016C122.743 14.072 123.051 13.98 123.251 13.74C123.451 13.492 123.551 13.056 123.551 12.432V9ZM130.617 13.212L133.941 9H134.781V15H133.749V10.788L130.425 15H129.585V9H130.617V13.212Z" fill="white" fill-opacity="0.54"/>
<path d="M162.205 10.281C162.629 10.489 162.963 10.7793 163.206 11.152C163.448 11.5247 163.57 11.9493 163.57 12.426C163.57 13.154 163.314 13.765 162.803 14.259C162.291 14.753 161.667 15 160.931 15H157.005V5.9H160.645C161.364 5.9 161.966 6.13833 162.452 6.615C162.946 7.09167 163.193 7.681 163.193 8.383C163.193 9.19767 162.863 9.83033 162.205 10.281ZM160.645 7.031H158.214V9.813H160.645C161.026 9.813 161.347 9.67867 161.607 9.41C161.867 9.14133 161.997 8.812 161.997 8.422C161.997 8.04067 161.862 7.71567 161.594 7.447C161.334 7.16967 161.017 7.031 160.645 7.031ZM158.214 13.869H160.931C161.338 13.869 161.68 13.726 161.958 13.44C162.235 13.154 162.374 12.803 162.374 12.387C162.374 11.9797 162.231 11.633 161.945 11.347C161.676 11.061 161.338 10.918 160.931 10.918H158.214V13.869ZM166.017 10.84H167.629C168.279 10.84 168.816 11.035 169.241 11.425C169.674 11.8063 169.891 12.3047 169.891 12.92C169.891 13.5353 169.674 14.038 169.241 14.428C168.807 14.8093 168.27 15 167.629 15H164.886V8.5H166.017V10.84ZM170.736 15V8.5H171.867V15H170.736ZM166.017 13.947H167.629C167.958 13.947 168.231 13.8517 168.448 13.661C168.664 13.4703 168.773 13.2233 168.773 12.92C168.773 12.6167 168.66 12.3697 168.435 12.179C168.218 11.9797 167.949 11.88 167.629 11.88H166.017V13.947ZM173.595 8.5H179.224V15H178.093V9.579H174.726V15H173.595V8.5ZM186.431 14.181C185.773 14.8397 184.962 15.169 184 15.169C183.038 15.169 182.228 14.8397 181.569 14.181C180.911 13.5223 180.581 12.712 180.581 11.75C180.581 10.788 180.911 9.97767 181.569 9.319C182.228 8.66033 183.038 8.331 184 8.331C184.962 8.331 185.773 8.66033 186.431 9.319C187.099 9.98633 187.432 10.7967 187.432 11.75C187.432 12.7033 187.099 13.5137 186.431 14.181ZM184 14.064C184.65 14.064 185.196 13.843 185.638 13.401C186.08 12.959 186.301 12.4087 186.301 11.75C186.301 11.0913 186.08 10.541 185.638 10.099C185.196 9.657 184.65 9.436 184 9.436C183.359 9.436 182.817 9.657 182.375 10.099C181.933 10.541 181.712 11.0913 181.712 11.75C181.712 12.4087 181.933 12.959 182.375 13.401C182.817 13.843 183.359 14.064 184 14.064ZM189.135 8.5H193.958V15H192.827V9.592H190.266V12.244C190.266 13.284 190.058 14.025 189.642 14.467C189.226 14.9003 188.615 15.078 187.809 15V13.934C188.26 13.9947 188.594 13.895 188.81 13.635C189.027 13.3663 189.135 12.894 189.135 12.218V8.5ZM200.17 11.204V8.5H201.301V15H200.17V12.283H196.803V15H195.672V8.5H196.803V11.204H200.17ZM204.141 13.063L207.742 8.5H208.652V15H207.534V10.437L203.933 15H203.023V8.5H204.141V13.063ZM209.645 8.5H215.209V9.592H212.999V15H211.868V9.592H209.645V8.5ZM217.331 10.84H218.943C219.593 10.84 220.131 11.035 220.555 11.425C220.989 11.8063 221.205 12.3047 221.205 12.92C221.205 13.5353 220.989 14.038 220.555 14.428C220.122 14.8093 219.585 15 218.943 15H216.2V8.5H217.331V10.84ZM217.331 13.947H218.943C219.273 13.947 219.546 13.8517 219.762 13.661C219.979 13.4703 220.087 13.2233 220.087 12.92C220.087 12.6167 219.975 12.3697 219.749 12.179C219.533 11.9797 219.264 11.88 218.943 11.88H217.331V13.947ZM225.671 8.5H229.935V9.592H226.802V15H225.671V8.5ZM232.045 13.063L235.646 8.5H236.556V15H235.438V10.437L231.837 15H230.927V8.5H232.045V13.063ZM242.606 11.659C243.274 11.9363 243.607 12.439 243.607 13.167C243.607 13.7217 243.425 14.168 243.061 14.506C242.697 14.8353 242.186 15 241.527 15H238.277V8.5H241.267C241.909 8.5 242.407 8.66033 242.762 8.981C243.126 9.30167 243.308 9.73067 243.308 10.268C243.308 10.892 243.074 11.3557 242.606 11.659ZM241.215 9.514H239.382V11.217H241.215C241.874 11.217 242.203 10.9267 242.203 10.346C242.203 9.79133 241.874 9.514 241.215 9.514ZM239.382 13.973H241.462C241.792 13.973 242.043 13.895 242.216 13.739C242.398 13.583 242.489 13.362 242.489 13.076C242.489 12.8073 242.398 12.5993 242.216 12.452C242.043 12.296 241.792 12.218 241.462 12.218H239.382V13.973Z" fill="white"/>
<path d="M195.867 67.5667H198.333M210.667 67.5667H213.133M197.1 76.2001C200.8 81.1334 208.2 81.1334 211.9 76.2001M187.233 66.3334V60.1667C187.233 57.4421 189.442 55.2334 192.167 55.2334H198.333M187.233 78.6667V84.8334C187.233 87.558 189.442 89.7667 192.167 89.7667H198.333M210.667 55.2334H216.833C219.558 55.2334 221.767 57.4421 221.767 60.1667V66.3334M210.667 89.7667H216.833C219.558 89.7667 221.767 87.558 221.767 84.8334V78.6667" stroke="white" stroke-width="2.46667"/>
<defs>
<linearGradient id="paint0_linear_2648_6622" x1="156" y1="38.9999" x2="260.082" y2="38.9999" gradientUnits="userSpaceOnUse">
<stop stop-color="white"/>
<stop offset="1" stop-color="white" stop-opacity="0"/>
</linearGradient>
<linearGradient id="paint1_linear_2648_6622" x1="156" y1="48.9999" x2="260.082" y2="48.9999" gradientUnits="userSpaceOnUse">
<stop stop-color="white"/>
<stop offset="1" stop-color="white" stop-opacity="0"/>
</linearGradient>
<linearGradient id="paint2_linear_2648_6622" x1="156" y1="64.9999" x2="260.082" y2="64.9999" gradientUnits="userSpaceOnUse">
<stop stop-color="white"/>
<stop offset="1" stop-color="white" stop-opacity="0"/>
</linearGradient>
<linearGradient id="paint3_linear_2648_6622" x1="156" y1="84.9999" x2="260.082" y2="84.9999" gradientUnits="userSpaceOnUse">
<stop stop-color="white"/>
<stop offset="1" stop-color="white" stop-opacity="0"/>
</linearGradient>
<linearGradient id="paint4_linear_2648_6622" x1="156" y1="106" x2="260.082" y2="106" gradientUnits="userSpaceOnUse">
<stop stop-color="white"/>
<stop offset="1" stop-color="white" stop-opacity="0"/>
</linearGradient>
</defs>
</svg>
