<svg width="33" height="29" viewBox="0 0 33 29" fill="none" xmlns="http://www.w3.org/2000/svg">
<path d="M1.96352 16.5595L2.07899 16.3822L9.04201 5.7462C9.14377 5.59048 9.38301 5.60658 9.45999 5.77573C10.6233 8.32128 11.627 11.4871 11.1568 13.4581C10.956 14.269 10.406 15.3672 9.78724 16.3822C9.70753 16.5299 9.61952 16.6749 9.526 16.8145C9.48199 16.879 9.40774 16.9166 9.32798 16.9166H2.167C1.97449 16.9166 1.86175 16.7125 1.96352 16.5595Z" fill="white"/>
<path d="M33 18.5358V20.2194C33 20.3161 32.9395 20.402 32.8515 20.4396C32.3125 20.6652 30.4673 21.4922 29.7 22.5341C27.742 25.1951 26.246 29 22.902 29H8.95123C4.00677 29 0 25.0743 0 20.2302V20.0744C0 19.9455 0.107226 19.8408 0.239238 19.8408H8.01628C8.17024 19.8408 8.28298 19.9805 8.26927 20.1281C8.21424 20.6222 8.30776 21.127 8.547 21.5862C9.00899 22.5019 9.96599 23.0738 11 23.0738H14.85V20.1389H11.044C10.8488 20.1389 10.7333 19.9187 10.846 19.763C10.8872 19.7012 10.934 19.6368 10.9835 19.5643C11.3438 19.0648 11.858 18.2888 12.3695 17.4054C12.7188 16.8093 13.057 16.1729 13.3293 15.5338C13.3843 15.4184 13.4282 15.3002 13.4722 15.1847C13.5465 14.9806 13.6235 14.79 13.6785 14.5994C13.7335 14.4382 13.7775 14.2691 13.8215 14.1106C13.9508 13.5682 14.0057 12.9936 14.0057 12.3975C14.0057 12.1639 13.9948 11.9195 13.9728 11.6859C13.9617 11.4309 13.9288 11.1757 13.8957 10.9206C13.8737 10.6951 13.8325 10.4722 13.7885 10.2386C13.7335 9.89758 13.6565 9.55928 13.5685 9.21821L13.5382 9.08937C13.4722 8.85572 13.4173 8.63288 13.3403 8.39928C13.123 7.66618 12.8728 6.95195 12.6088 6.28335C12.5125 6.0175 12.4025 5.76242 12.2925 5.50733C12.1303 5.12335 11.9652 4.77428 11.814 4.44398C11.737 4.2936 11.671 4.15665 11.605 4.01703C11.5308 3.8586 11.4538 3.70017 11.3767 3.54983C11.3218 3.43437 11.2585 3.32695 11.2145 3.21953L10.7443 2.37102C10.6783 2.25555 10.7883 2.1186 10.9175 2.15352L13.86 2.9322H13.8683C13.8737 2.9322 13.8765 2.93492 13.8792 2.93492L14.267 3.03962L14.6933 3.1578L14.85 3.20072V1.49297C14.85 0.668599 15.5265 0 16.3625 0C16.7805 0 17.16 0.166483 17.4323 0.437665C17.7045 0.7089 17.875 1.07945 17.875 1.49297V4.0278L18.1885 4.11368C18.2133 4.12178 18.238 4.1325 18.26 4.1486C18.337 4.205 18.447 4.28821 18.5872 4.3903C18.6973 4.47618 18.8155 4.58093 18.9585 4.68835C19.2417 4.91118 19.58 5.19852 19.9513 5.52882C20.0502 5.61203 20.1465 5.69797 20.2345 5.7839C20.713 6.2189 21.2493 6.72907 21.7608 7.29297C21.9038 7.4514 22.044 7.6125 22.187 7.78165C22.33 7.95352 22.4813 8.12267 22.6132 8.29187C22.7865 8.51742 22.9735 8.75102 23.1358 8.99538C23.2128 9.11085 23.3008 9.22898 23.375 9.34445C23.584 9.65322 23.7683 9.9728 23.9443 10.2923C24.0185 10.44 24.0955 10.6011 24.1615 10.7595C24.3568 11.1865 24.5108 11.6215 24.6097 12.0565C24.64 12.1505 24.662 12.2525 24.673 12.3438V12.3653C24.706 12.4941 24.717 12.6311 24.728 12.7707C24.772 13.2165 24.75 13.6622 24.651 14.1106C24.6097 14.3013 24.5548 14.4812 24.4888 14.6719C24.4228 14.8545 24.3567 15.0451 24.2715 15.225C24.1065 15.5982 23.9112 15.9715 23.6803 16.3205C23.606 16.4494 23.518 16.5864 23.43 16.7153C23.3337 16.8522 23.2348 16.9811 23.1467 17.1073C23.0258 17.2684 22.8965 17.4376 22.7645 17.588C22.6463 17.7464 22.5253 17.9048 22.3933 18.0444C22.209 18.2566 22.033 18.458 21.8487 18.6513C21.7388 18.7775 21.6205 18.9064 21.4995 19.0219C21.3813 19.1507 21.2602 19.2662 21.1502 19.3736C20.966 19.5535 20.812 19.6931 20.6827 19.8086L20.3803 20.0798C20.3363 20.1174 20.2785 20.1389 20.218 20.1389H17.875V23.0738H20.823C21.483 23.0738 22.11 22.8455 22.616 22.4266C22.7893 22.279 23.5455 21.6399 24.4392 20.6759C24.4695 20.6437 24.508 20.6195 24.552 20.6088L32.6948 18.3103C32.846 18.2673 33 18.3801 33 18.5358Z" fill="white"/>
</svg>
