<svg width="273" height="84" viewBox="0 0 273 84" fill="none" xmlns="http://www.w3.org/2000/svg">
<g filter="url(#filter0_d_2648_6640)">
<path d="M8.55155 56.7623C6.55222 54.5736 5.55255 51.7745 5.55255 48.3651C5.55255 44.9557 6.55222 42.1567 8.55155 39.9679C10.5509 37.7792 12.9711 36.6848 15.8123 36.6848C18.6534 36.6848 21.0737 37.7792 23.073 39.9679C25.0724 42.1567 26.072 44.9557 26.072 48.3651C26.072 51.7745 25.0724 54.5736 23.073 56.7623C21.0737 58.9511 18.6534 60.0454 15.8123 60.0454C12.9711 60.0454 10.5509 58.9511 8.55155 56.7623ZM11.1402 42.304C9.94056 43.7351 9.34076 45.7555 9.34076 48.3651C9.34076 50.9748 9.94056 52.9952 11.1402 54.4263C12.3608 55.8574 13.9182 56.5729 15.8123 56.5729C17.7064 56.5729 19.2532 55.8574 20.4528 54.4263C21.6735 52.9952 22.2838 50.9748 22.2838 48.3651C22.2838 45.7555 21.6735 43.7351 20.4528 42.304C19.2532 40.8729 17.7064 40.1573 15.8123 40.1573C13.9182 40.1573 12.3608 40.8729 11.1402 42.304ZM31.9196 56.7623C29.9202 54.5736 28.9206 51.7745 28.9206 48.3651C28.9206 44.9557 29.9202 42.1567 31.9196 39.9679C33.9189 37.7792 36.3392 36.6848 39.1803 36.6848C42.0215 36.6848 44.4417 37.7792 46.4411 39.9679C48.4404 42.1567 49.4401 44.9557 49.4401 48.3651C49.4401 51.7745 48.4404 54.5736 46.4411 56.7623C44.4417 58.9511 42.0215 60.0454 39.1803 60.0454C36.3392 60.0454 33.9189 58.9511 31.9196 56.7623ZM34.5082 42.304C33.3086 43.7351 32.7088 45.7555 32.7088 48.3651C32.7088 50.9748 33.3086 52.9952 34.5082 54.4263C35.7288 55.8574 37.2862 56.5729 39.1803 56.5729C41.0744 56.5729 42.6213 55.8574 43.8209 54.4263C45.0415 52.9952 45.6518 50.9748 45.6518 48.3651C45.6518 45.7555 45.0415 43.7351 43.8209 42.304C42.6213 40.8729 41.0744 40.1573 39.1803 40.1573C37.2862 40.1573 35.7288 40.8729 34.5082 42.304Z" fill="white"/>
</g>
<path d="M21.0433 75.6082V80.1685H21.7755V82.2394H21.0851V80.8379H16.8178V82.2394H16.1274V80.1685H16.7655C17.1211 79.6943 17.2989 79.0354 17.2989 78.1917V75.6082H21.0433ZM17.6022 80.1685H20.353V76.2776H17.9892V78.1917C17.9892 79.0005 17.8602 79.6595 17.6022 80.1685ZM26.5223 77.8884V75.6082H27.2127V80.8379H26.5223V78.5578H23.5101V80.8379H22.8198V75.6082H23.5101V77.8884H26.5223ZM31.0886 75.4827C31.8695 75.4827 32.4936 75.7582 32.9608 76.309C33.4419 76.8529 33.6825 77.4979 33.6825 78.244C33.6825 78.2789 33.6755 78.3869 33.6615 78.5682H29.0699C29.1396 79.0912 29.3628 79.5096 29.7393 79.8233C30.1158 80.1371 30.5865 80.294 31.1513 80.294C31.9462 80.294 32.5075 79.9977 32.8353 79.405L33.4419 79.7606C33.2118 80.1371 32.8945 80.4335 32.4901 80.6496C32.0926 80.8588 31.6429 80.9634 31.1409 80.9634C30.3181 80.9634 29.6487 80.7054 29.1327 80.1894C28.6167 79.6734 28.3587 79.018 28.3587 78.2231C28.3587 77.4351 28.6132 76.7832 29.1222 76.2672C29.6312 75.7442 30.2867 75.4827 31.0886 75.4827ZM31.0886 76.1521C30.5447 76.1521 30.0879 76.3125 29.7184 76.6333C29.3558 76.954 29.1396 77.3759 29.0699 77.8988H32.9712C32.8945 77.341 32.6819 76.9122 32.3332 76.6123C31.9706 76.3055 31.5557 76.1521 31.0886 76.1521ZM38.3367 74.7715H35.6173V74.1649H38.3367V74.7715ZM35.4708 79.6351L38.5877 75.6082H39.1734V80.8379H38.4831V76.8111L35.3662 80.8379H34.7805V75.6082H35.4708V79.6351Z" fill="white" fill-opacity="0.74"/>
<g filter="url(#filter1_d_2648_6640)">
<path d="M79.3855 56.7623C77.3862 54.5736 76.3865 51.7745 76.3865 48.3651C76.3865 44.9557 77.3862 42.1567 79.3855 39.9679C81.3849 37.7792 83.8051 36.6848 86.6463 36.6848C89.4874 36.6848 91.9077 37.7792 93.907 39.9679C95.9063 42.1567 96.906 44.9557 96.906 48.3651C96.906 51.7745 95.9063 54.5736 93.907 56.7623C91.9077 58.9511 89.4874 60.0454 86.6463 60.0454C83.8051 60.0454 81.3849 58.9511 79.3855 56.7623ZM81.9741 42.304C80.7745 43.7351 80.1747 45.7555 80.1747 48.3651C80.1747 50.9748 80.7745 52.9952 81.9741 54.4263C83.1948 55.8574 84.7522 56.5729 86.6463 56.5729C88.5404 56.5729 90.0872 55.8574 91.2868 54.4263C92.5075 52.9952 93.1178 50.9748 93.1178 48.3651C93.1178 45.7555 92.5075 43.7351 91.2868 42.304C90.0872 40.8729 88.5404 40.1573 86.6463 40.1573C84.7522 40.1573 83.1948 40.8729 81.9741 42.304ZM102.754 56.7623C100.754 54.5736 99.7546 51.7745 99.7546 48.3651C99.7546 44.9557 100.754 42.1567 102.754 39.9679C104.753 37.7792 107.173 36.6848 110.014 36.6848C112.855 36.6848 115.276 37.7792 117.275 39.9679C119.274 42.1567 120.274 44.9557 120.274 48.3651C120.274 51.7745 119.274 54.5736 117.275 56.7623C115.276 58.9511 112.855 60.0454 110.014 60.0454C107.173 60.0454 104.753 58.9511 102.754 56.7623ZM105.342 42.304C104.143 43.7351 103.543 45.7555 103.543 48.3651C103.543 50.9748 104.143 52.9952 105.342 54.4263C106.563 55.8574 108.12 56.5729 110.014 56.5729C111.908 56.5729 113.455 55.8574 114.655 54.4263C115.876 52.9952 116.486 50.9748 116.486 48.3651C116.486 45.7555 115.876 43.7351 114.655 42.304C113.455 40.8729 111.908 40.1573 110.014 40.1573C108.12 40.1573 106.563 40.8729 105.342 42.304Z" fill="white"/>
</g>
<path d="M87.6146 78.2126V75.6082H88.3049V80.8379H87.6146V78.8506C87.2102 79.0598 86.7117 79.1644 86.119 79.1644C85.4286 79.1644 84.9057 79.0075 84.5501 78.6937C84.1944 78.373 84.0166 77.9023 84.0166 77.2817V75.6082H84.707V77.2817C84.707 77.7141 84.8185 78.0278 85.0417 78.2231C85.2718 78.4183 85.6239 78.5159 86.098 78.5159C86.628 78.5159 87.1335 78.4148 87.6146 78.2126ZM94.2696 76.6333V75.6082H94.9599V80.8379H94.2696V79.8129C93.7885 80.5799 93.0842 80.9634 92.1568 80.9634C91.4107 80.9634 90.7727 80.6984 90.2428 80.1685C89.7198 79.6386 89.4583 78.9901 89.4583 78.2231C89.4583 77.4561 89.7198 76.8076 90.2428 76.2776C90.7727 75.7477 91.4107 75.4827 92.1568 75.4827C93.0842 75.4827 93.7885 75.8662 94.2696 76.6333ZM90.7448 79.6978C91.1423 80.0953 91.6304 80.294 92.2091 80.294C92.7879 80.294 93.276 80.0953 93.6734 79.6978C94.0709 79.2864 94.2696 78.7948 94.2696 78.2231C94.2696 77.6443 94.0709 77.1562 93.6734 76.7588C93.276 76.3543 92.7879 76.1521 92.2091 76.1521C91.6304 76.1521 91.1423 76.3543 90.7448 76.7588C90.3474 77.1562 90.1486 77.6443 90.1486 78.2231C90.1486 78.7948 90.3474 79.2864 90.7448 79.6978ZM98.8585 80.9634C98.0706 80.9634 97.4151 80.7019 96.8922 80.179C96.3692 79.642 96.1077 78.9901 96.1077 78.2231C96.1077 77.4491 96.3692 76.8006 96.8922 76.2776C97.4151 75.7477 98.0706 75.4827 98.8585 75.4827C99.3745 75.4827 99.8382 75.6082 100.25 75.8593C100.661 76.1033 100.961 76.4345 101.149 76.8529L100.584 77.1771C100.445 76.8634 100.218 76.6158 99.9045 76.4345C99.5977 76.2463 99.249 76.1521 98.8585 76.1521C98.2798 76.1521 97.7917 76.3543 97.3942 76.7588C96.9968 77.1562 96.798 77.6443 96.798 78.2231C96.798 78.7948 96.9968 79.2864 97.3942 79.6978C97.7917 80.0953 98.2798 80.294 98.8585 80.294C99.242 80.294 99.5872 80.2034 99.894 80.0221C100.208 79.8408 100.452 79.5897 100.626 79.269L101.201 79.6037C100.985 80.0221 100.668 80.3533 100.25 80.5973C99.8312 80.8414 99.3675 80.9634 98.8585 80.9634ZM106.524 80.179C105.987 80.7019 105.338 80.9634 104.578 80.9634C103.804 80.9634 103.152 80.7019 102.623 80.179C102.093 79.649 101.828 78.9971 101.828 78.2231C101.828 77.4491 102.093 76.8006 102.623 76.2776C103.152 75.7477 103.804 75.4827 104.578 75.4827C105.345 75.4827 105.994 75.7477 106.524 76.2776C107.061 76.8006 107.329 77.4491 107.329 78.2231C107.329 78.9901 107.061 79.642 106.524 80.179ZM103.114 79.6978C103.512 80.0953 104 80.294 104.578 80.294C105.157 80.294 105.645 80.0953 106.043 79.6978C106.44 79.2864 106.639 78.7948 106.639 78.2231C106.639 77.6443 106.44 77.1562 106.043 76.7588C105.645 76.3543 105.157 76.1521 104.578 76.1521C104 76.1521 103.512 76.3543 103.114 76.7588C102.717 77.1562 102.518 77.6443 102.518 78.2231C102.518 78.7948 102.717 79.2864 103.114 79.6978ZM111.81 78.1499C112.382 78.359 112.668 78.767 112.668 79.3736C112.668 79.8059 112.522 80.158 112.229 80.43C111.943 80.7019 111.542 80.8379 111.026 80.8379H108.484V75.6082H110.817C111.319 75.6082 111.709 75.7372 111.988 75.9952C112.274 76.2532 112.417 76.5914 112.417 77.0098C112.417 77.5328 112.215 77.9128 111.81 78.1499ZM110.817 76.2776H109.175V77.8675H110.817C111.423 77.8675 111.727 77.5955 111.727 77.0516C111.727 76.8076 111.647 76.6193 111.486 76.4868C111.333 76.3474 111.11 76.2776 110.817 76.2776ZM109.175 80.1685H111.026C111.333 80.1685 111.566 80.0953 111.727 79.9489C111.894 79.8024 111.978 79.5967 111.978 79.3318C111.978 79.0807 111.894 78.8855 111.727 78.746C111.566 78.6066 111.333 78.5368 111.026 78.5368H109.175V80.1685Z" fill="white" fill-opacity="0.74"/>
<g filter="url(#filter2_d_2648_6640)">
<path d="M147.349 56.7623C145.35 54.5736 144.35 51.7745 144.35 48.3651C144.35 44.9557 145.35 42.1567 147.349 39.9679C149.349 37.7792 151.769 36.6848 154.61 36.6848C157.451 36.6848 159.872 37.7792 161.871 39.9679C163.87 42.1567 164.87 44.9557 164.87 48.3651C164.87 51.7745 163.87 54.5736 161.871 56.7623C159.872 58.9511 157.451 60.0454 154.61 60.0454C151.769 60.0454 149.349 58.9511 147.349 56.7623ZM149.938 42.304C148.738 43.7351 148.139 45.7555 148.139 48.3651C148.139 50.9748 148.738 52.9952 149.938 54.4263C151.159 55.8574 152.716 56.5729 154.61 56.5729C156.504 56.5729 158.051 55.8574 159.251 54.4263C160.471 52.9952 161.082 50.9748 161.082 48.3651C161.082 45.7555 160.471 43.7351 159.251 42.304C158.051 40.8729 156.504 40.1573 154.61 40.1573C152.716 40.1573 151.159 40.8729 149.938 42.304ZM170.717 56.7623C168.718 54.5736 167.718 51.7745 167.718 48.3651C167.718 44.9557 168.718 42.1567 170.717 39.9679C172.717 37.7792 175.137 36.6848 177.978 36.6848C180.819 36.6848 183.24 37.7792 185.239 39.9679C187.238 42.1567 188.238 44.9557 188.238 48.3651C188.238 51.7745 187.238 54.5736 185.239 56.7623C183.24 58.9511 180.819 60.0454 177.978 60.0454C175.137 60.0454 172.717 58.9511 170.717 56.7623ZM173.306 42.304C172.106 43.7351 171.507 45.7555 171.507 48.3651C171.507 50.9748 172.106 52.9952 173.306 54.4263C174.527 55.8574 176.084 56.5729 177.978 56.5729C179.872 56.5729 181.419 55.8574 182.619 54.4263C183.839 52.9952 184.45 50.9748 184.45 48.3651C184.45 45.7555 183.839 43.7351 182.619 42.304C181.419 40.8729 179.872 40.1573 177.978 40.1573C176.084 40.1573 174.527 40.8729 173.306 42.304Z" fill="white"/>
</g>
<path d="M157.251 75.6082H158.046V80.8379H157.356V76.6646L155.525 79.6351H155.442L153.611 76.6646V80.8379H152.921V75.6082H153.716L155.483 78.4741L157.251 75.6082ZM160.199 79.6351L163.316 75.6082H163.902V80.8379H163.212V76.8111L160.095 80.8379H159.509V75.6082H160.199V79.6351ZM169.064 77.8884V75.6082H169.755V80.8379H169.064V78.5578H166.052V80.8379H165.362V75.6082H166.052V77.8884H169.064ZM173.285 79.9907L174.98 75.6082H175.712L173.474 81.319C173.264 81.849 172.972 82.2569 172.595 82.5428C172.225 82.8356 171.814 82.9646 171.361 82.9297V82.2813C171.988 82.358 172.466 81.9954 172.794 81.1935L172.93 80.8693L170.587 75.6082H171.319L173.285 79.9907ZM175.919 75.6082H180.312V76.2776H178.46V80.8379H177.77V76.2776H175.919V75.6082Z" fill="white" fill-opacity="0.74"/>
<g filter="url(#filter3_d_2648_6640)">
<path d="M222.822 56.7623C220.823 54.5736 219.823 51.7745 219.823 48.3651C219.823 44.9557 220.823 42.1567 222.822 39.9679C224.822 37.7792 227.242 36.6848 230.083 36.6848C232.924 36.6848 235.345 37.7792 237.344 39.9679C239.343 42.1567 240.343 44.9557 240.343 48.3651C240.343 51.7745 239.343 54.5736 237.344 56.7623C235.345 58.9511 232.924 60.0454 230.083 60.0454C227.242 60.0454 224.822 58.9511 222.822 56.7623ZM225.411 42.304C224.211 43.7351 223.612 45.7555 223.612 48.3651C223.612 50.9748 224.211 52.9952 225.411 54.4263C226.632 55.8574 228.189 56.5729 230.083 56.5729C231.977 56.5729 233.524 55.8574 234.724 54.4263C235.944 52.9952 236.555 50.9748 236.555 48.3651C236.555 45.7555 235.944 43.7351 234.724 42.304C233.524 40.8729 231.977 40.1573 230.083 40.1573C228.189 40.1573 226.632 40.8729 225.411 42.304ZM242.56 44.5769V40.473L246.664 37.3162H249.979V59.4141H246.348V41.7357L242.56 44.5769Z" fill="white"/>
</g>
<path d="M222 80.9634C221.212 80.9634 220.557 80.7019 220.034 80.179C219.511 79.642 219.249 78.9901 219.249 78.2231C219.249 77.4491 219.511 76.8006 220.034 76.2776C220.557 75.7477 221.212 75.4827 222 75.4827C222.516 75.4827 222.98 75.6082 223.391 75.8593C223.803 76.1033 224.102 76.4345 224.291 76.8529L223.726 77.1771C223.586 76.8634 223.36 76.6158 223.046 76.4345C222.739 76.2463 222.391 76.1521 222 76.1521C221.421 76.1521 220.933 76.3543 220.536 76.7588C220.138 77.1562 219.94 77.6443 219.94 78.2231C219.94 78.7948 220.138 79.2864 220.536 79.6978C220.933 80.0953 221.421 80.294 222 80.294C222.384 80.294 222.729 80.2034 223.035 80.0221C223.349 79.8408 223.593 79.5897 223.768 79.269L224.343 79.6037C224.127 80.0221 223.809 80.3533 223.391 80.5973C222.973 80.8414 222.509 80.9634 222 80.9634ZM227.699 75.4827C228.48 75.4827 229.104 75.7582 229.571 76.309C230.052 76.8529 230.293 77.4979 230.293 78.244C230.293 78.2789 230.286 78.3869 230.272 78.5682H225.68C225.75 79.0912 225.973 79.5096 226.35 79.8233C226.726 80.1371 227.197 80.294 227.762 80.294C228.557 80.294 229.118 79.9977 229.446 79.405L230.052 79.7606C229.822 80.1371 229.505 80.4335 229.101 80.6496C228.703 80.8588 228.253 80.9634 227.751 80.9634C226.929 80.9634 226.259 80.7054 225.743 80.1894C225.227 79.6734 224.969 79.018 224.969 78.2231C224.969 77.4351 225.224 76.7832 225.733 76.2672C226.242 75.7442 226.897 75.4827 227.699 75.4827ZM227.699 76.1521C227.155 76.1521 226.698 76.3125 226.329 76.6333C225.966 76.954 225.75 77.3759 225.68 77.8988H229.582C229.505 77.341 229.292 76.9122 228.944 76.6123C228.581 76.3055 228.166 76.1521 227.699 76.1521ZM232.813 78.1185L235.617 80.8379H234.696L232.081 78.3172V80.8379H231.391V75.6082H232.081V77.9198L234.571 75.6082H235.512L232.813 78.1185ZM238.426 79.9907L240.12 75.6082H240.853L238.614 81.319C238.405 81.849 238.112 82.2569 237.736 82.5428C237.366 82.8356 236.955 82.9646 236.501 82.9297V82.2813C237.129 82.358 237.607 81.9954 237.934 81.1935L238.07 80.8693L235.728 75.6082H236.46L238.426 79.9907ZM245.389 77.8884V75.6082H246.08V80.8379H245.389V78.5578H242.377V80.8379H241.687V75.6082H242.377V77.8884H245.389ZM251.932 75.6082V80.1685H252.665V82.2394H251.974V80.8379H247.707V82.2394H247.017V80.1685H247.655C248.01 79.6943 248.188 79.0354 248.188 78.1917V75.6082H251.932ZM248.491 80.1685H251.242V76.2776H248.878V78.1917C248.878 79.0005 248.749 79.6595 248.491 80.1685Z" fill="white" fill-opacity="0.74"/>
<path d="M64.2452 44.5305C63.8243 44.1096 63.6139 43.5834 63.6139 42.9521C63.6139 42.3207 63.8243 41.7945 64.2452 41.3736C64.6661 40.9527 65.1923 40.7423 65.8237 40.7423C66.455 40.7423 66.9812 40.9527 67.4021 41.3736C67.823 41.7945 68.0334 42.3207 68.0334 42.9521C68.0334 43.5834 67.823 44.1096 67.4021 44.5305C66.9812 44.9514 66.455 45.1618 65.8237 45.1618C65.1923 45.1618 64.6661 44.9514 64.2452 44.5305ZM64.2452 56.8422C63.8243 56.4212 63.6139 55.8951 63.6139 55.2637C63.6139 54.6324 63.8243 54.1062 64.2452 53.6853C64.6661 53.2644 65.1923 53.0539 65.8237 53.0539C66.455 53.0539 66.9812 53.2644 67.4021 53.6853C67.823 54.1062 68.0334 54.6324 68.0334 55.2637C68.0334 55.8951 67.823 56.4212 67.4021 56.8422C66.9812 57.2631 66.455 57.4735 65.8237 57.4735C65.1923 57.4735 64.6661 57.2631 64.2452 56.8422Z" fill="white"/>
<path d="M131.024 44.5305C130.603 44.1096 130.392 43.5834 130.392 42.9521C130.392 42.3207 130.603 41.7945 131.024 41.3736C131.444 40.9527 131.971 40.7423 132.602 40.7423C133.233 40.7423 133.759 40.9527 134.18 41.3736C134.601 41.7945 134.812 42.3207 134.812 42.9521C134.812 43.5834 134.601 44.1096 134.18 44.5305C133.759 44.9514 133.233 45.1618 132.602 45.1618C131.971 45.1618 131.444 44.9514 131.024 44.5305ZM131.024 56.8422C130.603 56.4212 130.392 55.8951 130.392 55.2637C130.392 54.6324 130.603 54.1062 131.024 53.6853C131.444 53.2644 131.971 53.0539 132.602 53.0539C133.233 53.0539 133.759 53.2644 134.18 53.6853C134.601 54.1062 134.812 54.6324 134.812 55.2637C134.812 55.8951 134.601 56.4212 134.18 56.8422C133.759 57.2631 133.233 57.4735 132.602 57.4735C131.971 57.4735 131.444 57.2631 131.024 56.8422Z" fill="white"/>
<path d="M197.802 44.5305C197.381 44.1096 197.171 43.5834 197.171 42.9521C197.171 42.3207 197.381 41.7945 197.802 41.3736C198.223 40.9527 198.749 40.7423 199.38 40.7423C200.012 40.7423 200.538 40.9527 200.959 41.3736C201.38 41.7945 201.59 42.3207 201.59 42.9521C201.59 43.5834 201.38 44.1096 200.959 44.5305C200.538 44.9514 200.012 45.1618 199.38 45.1618C198.749 45.1618 198.223 44.9514 197.802 44.5305ZM197.802 56.8422C197.381 56.4212 197.171 55.8951 197.171 55.2637C197.171 54.6324 197.381 54.1062 197.802 53.6853C198.223 53.2644 198.749 53.0539 199.38 53.0539C200.012 53.0539 200.538 53.2644 200.959 53.6853C201.38 54.1062 201.59 54.6324 201.59 55.2637C201.59 55.8951 201.38 56.4212 200.959 56.8422C200.538 57.2631 200.012 57.4735 199.38 57.4735C198.749 57.4735 198.223 57.2631 197.802 56.8422Z" fill="white"/>
<path d="M199 7L216.918 25M238.155 1L232.845 21M272 1L255.409 21" stroke="#874DEC" stroke-width="2.5"/>
<defs>
<filter id="filter0_d_2648_6640" x="0.433531" y="34.9782" width="54.1256" height="33.5997" filterUnits="userSpaceOnUse" color-interpolation-filters="sRGB">
<feFlood flood-opacity="0" result="BackgroundImageFix"/>
<feColorMatrix in="SourceAlpha" type="matrix" values="0 0 0 0 0 0 0 0 0 0 0 0 0 0 0 0 0 0 127 0" result="hardAlpha"/>
<feOffset dy="3.4128"/>
<feGaussianBlur stdDeviation="2.5596"/>
<feComposite in2="hardAlpha" operator="out"/>
<feColorMatrix type="matrix" values="0 0 0 0 0 0 0 0 0 0 0 0 0 0 0 0 0 0 0.07 0"/>
<feBlend mode="normal" in2="BackgroundImageFix" result="effect1_dropShadow_2648_6640"/>
<feBlend mode="normal" in="SourceGraphic" in2="effect1_dropShadow_2648_6640" result="shape"/>
</filter>
<filter id="filter1_d_2648_6640" x="71.2675" y="34.9782" width="54.1256" height="33.5997" filterUnits="userSpaceOnUse" color-interpolation-filters="sRGB">
<feFlood flood-opacity="0" result="BackgroundImageFix"/>
<feColorMatrix in="SourceAlpha" type="matrix" values="0 0 0 0 0 0 0 0 0 0 0 0 0 0 0 0 0 0 127 0" result="hardAlpha"/>
<feOffset dy="3.4128"/>
<feGaussianBlur stdDeviation="2.5596"/>
<feComposite in2="hardAlpha" operator="out"/>
<feColorMatrix type="matrix" values="0 0 0 0 0 0 0 0 0 0 0 0 0 0 0 0 0 0 0.07 0"/>
<feBlend mode="normal" in2="BackgroundImageFix" result="effect1_dropShadow_2648_6640"/>
<feBlend mode="normal" in="SourceGraphic" in2="effect1_dropShadow_2648_6640" result="shape"/>
</filter>
<filter id="filter2_d_2648_6640" x="139.231" y="34.9782" width="54.1256" height="33.5997" filterUnits="userSpaceOnUse" color-interpolation-filters="sRGB">
<feFlood flood-opacity="0" result="BackgroundImageFix"/>
<feColorMatrix in="SourceAlpha" type="matrix" values="0 0 0 0 0 0 0 0 0 0 0 0 0 0 0 0 0 0 127 0" result="hardAlpha"/>
<feOffset dy="3.4128"/>
<feGaussianBlur stdDeviation="2.5596"/>
<feComposite in2="hardAlpha" operator="out"/>
<feColorMatrix type="matrix" values="0 0 0 0 0 0 0 0 0 0 0 0 0 0 0 0 0 0 0.07 0"/>
<feBlend mode="normal" in2="BackgroundImageFix" result="effect1_dropShadow_2648_6640"/>
<feBlend mode="normal" in="SourceGraphic" in2="effect1_dropShadow_2648_6640" result="shape"/>
</filter>
<filter id="filter3_d_2648_6640" x="214.704" y="34.9782" width="40.3937" height="33.5997" filterUnits="userSpaceOnUse" color-interpolation-filters="sRGB">
<feFlood flood-opacity="0" result="BackgroundImageFix"/>
<feColorMatrix in="SourceAlpha" type="matrix" values="0 0 0 0 0 0 0 0 0 0 0 0 0 0 0 0 0 0 127 0" result="hardAlpha"/>
<feOffset dy="3.4128"/>
<feGaussianBlur stdDeviation="2.5596"/>
<feComposite in2="hardAlpha" operator="out"/>
<feColorMatrix type="matrix" values="0 0 0 0 0 0 0 0 0 0 0 0 0 0 0 0 0 0 0.07 0"/>
<feBlend mode="normal" in2="BackgroundImageFix" result="effect1_dropShadow_2648_6640"/>
<feBlend mode="normal" in="SourceGraphic" in2="effect1_dropShadow_2648_6640" result="shape"/>
</filter>
</defs>
</svg>
