<svg width="27" height="33" viewBox="0 0 27 33" fill="none" xmlns="http://www.w3.org/2000/svg">
<path d="M7.28403 13.4004C7.21531 13.3789 5.57468 12.8936 2.87753 10.6002C0.0901913 8.22942 0.00429483 4.31254 0 4.14934C0 4.0162 0.0515374 3.88306 0.141729 3.78857C0.236215 3.69409 0.36506 3.63825 0.498199 3.63396L5.27834 3.57812L5.29122 4.5917L1.05223 4.64324C1.17249 5.71265 1.64921 8.22942 3.53464 9.83139C6.03853 11.9616 7.5503 12.4255 7.56748 12.4298L7.28403 13.4004Z" fill="#FCAB28"/>
<path d="M19.4852 13.3998L19.2061 12.4249C19.2189 12.4206 20.735 11.9567 23.2346 9.82651C25.1157 8.22454 25.5968 5.70777 25.717 4.63836L21.478 4.58682L21.4909 3.57324L26.271 3.62908C26.4042 3.62908 26.533 3.68491 26.6275 3.78369C26.722 3.87818 26.7735 4.01131 26.7692 4.14445C26.7649 4.31195 26.6791 8.22454 23.8917 10.5953C21.1946 12.893 19.5539 13.3826 19.4852 13.3998Z" fill="#FCAB28"/>
<path d="M5.05911 3.63342C5.05911 3.63342 4.44066 3.41009 4.44066 2.79164C4.44066 2.17318 4.32899 1.88972 4.89161 1.3314C5.45424 0.768774 9.71041 0 13.142 0C16.5735 0 21.2592 0.936272 21.8218 1.44306C22.3844 1.94985 22.1611 3.29843 22.0452 3.52605C21.9335 3.74938 21.4825 3.69355 21.4825 3.69355L5.05911 3.63342Z" fill="#FFCF3F"/>
<path d="M13.1033 1.88867C10.986 1.88867 6.52364 2.16784 4.8916 3.34891C4.8916 3.34891 4.8916 9.4218 6.57947 12.5184C8.26733 15.6106 11.2479 18.1446 11.2479 18.1446H12.7683H13.2193H15.3023C15.3023 18.1446 18.2829 15.6149 19.9707 12.5184C21.6586 9.42609 21.6586 3.34891 21.6586 3.34891C19.8505 2.17213 15.2207 1.88867 13.1033 1.88867Z" fill="#FFD733"/>
<path d="M19.065 25.7389C18.5582 24.2185 17.4888 24.4461 17.4888 24.4461C17.4888 24.4461 17.4888 23.9565 16.7372 23.8878C16.2733 23.7461 15.0794 23.2865 14.6757 22.2515C14.1689 20.9587 14.3965 19.3267 14.3965 19.3267L13.2713 19.1807L12.146 19.3267C12.146 19.3267 12.3693 20.9587 11.8669 22.2515C11.4631 23.2865 10.2692 23.7461 9.80533 23.8878C9.05803 23.9565 9.05374 24.4461 9.05374 24.4461C9.05374 24.4461 7.98433 24.2228 7.47754 25.7389H19.065Z" fill="#FFCE45"/>
<path d="M9.05371 24.446C9.75806 24.3988 10.4581 24.3687 11.1625 24.3558C11.8668 24.3387 12.5669 24.3301 13.2712 24.3301C13.9756 24.3301 14.6756 24.3387 15.38 24.3558C16.0843 24.373 16.7844 24.4031 17.4887 24.446C16.7844 24.4933 16.0843 24.5233 15.38 24.5362C14.6756 24.5534 13.9756 24.562 13.2712 24.562C12.5669 24.5577 11.8668 24.5534 11.1625 24.5362C10.4581 24.519 9.75806 24.489 9.05371 24.446Z" fill="#FCAB28"/>
<path d="M15.2977 18.9322H11.3035C11.0544 18.9322 10.8525 18.7303 10.8525 18.4812C10.8525 18.2321 11.0544 18.0303 11.3035 18.0303H15.2977C15.5468 18.0303 15.7486 18.2321 15.7486 18.4812C15.7443 18.7303 15.5425 18.9322 15.2977 18.9322Z" fill="#FCAB28"/>
<path d="M15.0706 19.5029H11.5273C11.3083 19.5029 11.1279 19.3226 11.1279 19.1035C11.1279 18.8845 11.3083 18.7041 11.5273 18.7041H15.0706C15.2896 18.7041 15.47 18.8845 15.47 19.1035C15.47 19.3226 15.2939 19.5029 15.0706 19.5029Z" fill="#FCAB28"/>
<path d="M7.33167 25.6826H19.6063C20.0229 25.6826 20.3579 26.0176 20.3579 26.4342V31.6224C20.3579 32.039 20.0229 32.374 19.6063 32.374H7.33167C6.91507 32.374 6.58008 32.039 6.58008 31.6224V26.4342C6.58008 26.0176 6.91507 25.6826 7.33167 25.6826Z" fill="#6C554F"/>
<path d="M9.40159 26.8428H17.536C17.7293 26.8428 17.8839 26.9974 17.8839 27.1907V30.0252C17.8839 30.2185 17.7293 30.3731 17.536 30.3731H9.40159C9.20832 30.3731 9.05371 30.2185 9.05371 30.0252V27.1907C9.05371 26.9974 9.20832 26.8428 9.40159 26.8428Z" fill="#FCAB28"/>
<path d="M10.5226 26.8428H13.3185C13.383 26.8428 13.4388 26.9974 13.4388 27.1907V30.0252C13.4388 30.2185 13.383 30.3731 13.3185 30.3731H10.5226C10.4582 30.3731 10.4023 30.2185 10.4023 30.0252V27.1907C10.4023 26.9974 10.4582 26.8428 10.5226 26.8428Z" fill="#FFD733"/>
<path d="M11.248 18.1447C11.5873 18.1189 11.9223 18.1103 12.2616 18.1018C12.6009 18.0932 12.9359 18.0889 13.2752 18.0889C13.6145 18.0889 13.9495 18.0932 14.2888 18.1018L14.7956 18.1189C14.9631 18.1275 15.1349 18.1361 15.3024 18.149C15.1349 18.1619 14.9631 18.1662 14.7956 18.1791L14.2888 18.1962C13.9495 18.2048 13.6145 18.2091 13.2752 18.2091C12.9359 18.2091 12.6009 18.2048 12.2616 18.1962C11.9223 18.1791 11.583 18.1705 11.248 18.1447Z" fill="#FFE266"/>
<path d="M11.2656 18.8195C11.6092 18.7937 11.9528 18.7851 12.2964 18.7766C12.64 18.768 12.9836 18.7637 13.3271 18.7637C13.6707 18.7637 14.0143 18.768 14.3579 18.7766L14.8733 18.7937C15.0451 18.8023 15.2169 18.8109 15.3887 18.8238C15.2169 18.8367 15.0451 18.841 14.8733 18.8539L14.3579 18.871C14.0143 18.8796 13.6707 18.8839 13.3271 18.8839C12.9836 18.8839 12.64 18.8796 12.2964 18.871C11.9528 18.8539 11.6092 18.8453 11.2656 18.8195Z" fill="#FFE266"/>
<path d="M12.1846 19.5709C12.5453 19.5236 12.9104 19.515 13.2712 19.5107C13.6319 19.5107 13.997 19.5236 14.3578 19.5709C13.997 19.6181 13.6319 19.6267 13.2712 19.631C12.9104 19.6267 12.5496 19.6138 12.1846 19.5709Z" fill="#FFE266"/>
<path d="M7.72168 25.1931C8.64507 25.1459 9.57275 25.1158 10.4961 25.1029C11.4195 25.0857 12.3472 25.0771 13.2706 25.0771C14.194 25.0771 15.1217 25.0857 16.0451 25.1029C16.9684 25.1201 17.8961 25.1502 18.8195 25.1931C17.8961 25.2403 16.9684 25.2704 16.0451 25.2833C15.1217 25.3005 14.194 25.3091 13.2706 25.3091C12.3472 25.3048 11.4195 25.3005 10.4961 25.2833C9.57275 25.2704 8.64507 25.2403 7.72168 25.1931Z" fill="#FCAB28"/>
<path d="M21.65 3.35355C21.0273 2.99707 20.3358 2.79092 19.6443 2.63631C18.9486 2.4774 18.2442 2.36574 17.5356 2.27984C16.8269 2.19824 16.114 2.12952 15.4053 2.09087C14.6924 2.04792 13.9795 2.01785 13.2665 2.01356C12.5536 2.00497 11.8406 2.03074 11.1277 2.06939C10.4147 2.10805 9.70181 2.16817 8.99316 2.24977C8.28451 2.33567 7.58016 2.44304 6.8844 2.60625C6.19293 2.76515 5.50147 2.9756 4.8916 3.35784C5.18365 3.15169 5.49717 2.97131 5.83646 2.84246C5.91806 2.8081 6.00396 2.77374 6.08556 2.73939L6.33896 2.65349C6.50646 2.59336 6.68254 2.54182 6.85434 2.49458C7.5501 2.30561 8.25445 2.17247 8.96739 2.06939C10.389 1.86754 11.8277 1.77734 13.2622 1.77734C14.701 1.79452 16.1355 1.8933 17.557 2.09946C18.27 2.20253 18.9743 2.33997 19.6701 2.52464C19.8462 2.56759 20.0137 2.62342 20.1855 2.67926C20.3573 2.7308 20.5248 2.79522 20.6923 2.86393C20.8641 2.92406 21.023 3.00566 21.1862 3.08297C21.2678 3.11733 21.3451 3.16457 21.4224 3.21611L21.65 3.35355Z" fill="#FCAB28"/>
<path d="M9.60268 4.58218L10.1266 3.66309L10.6206 4.59936L11.5396 5.12762L10.5991 5.61723L10.0751 6.54062L9.5812 5.60005L8.66211 5.07608L9.60268 4.58218Z" fill="white"/>
</svg>
