<svg width="18" height="18" viewBox="0 0 18 18" fill="none" xmlns="http://www.w3.org/2000/svg">
<path fill-rule="evenodd" clip-rule="evenodd" d="M2.7 1.77778C2.20706 1.77778 1.8 2.17981 1.8 2.66667C1.8 2.90241 1.89482 3.12851 2.0636 3.29521C2.23239 3.46191 2.46131 3.55556 2.7 3.55556H12.6V1.77778H2.7ZM14.4 3.55556V0.888889C14.4 0.397969 13.9971 0 13.5 0H2.7C1.21294 0 0 1.19797 0 2.66667C0 3.37391 0.284463 4.05219 0.790812 4.55228C1.29716 5.05238 1.98392 5.33333 2.7 5.33333H14.4V8C14.4 8.49092 14.8029 8.88889 15.3 8.88889C15.7971 8.88889 16.2 8.49092 16.2 8V4.44444C16.2 3.95352 15.7971 3.55556 15.3 3.55556H14.4Z" fill="#2D0B5A"/>
<path fill-rule="evenodd" clip-rule="evenodd" d="M0.9 1.77778C1.39706 1.77778 1.8 2.17575 1.8 2.66667V13.3333C1.8 13.8202 2.20706 14.2222 2.7 14.2222H14.4V11.5556C14.4 11.0646 14.8029 10.6667 15.3 10.6667C15.7971 10.6667 16.2 11.0646 16.2 11.5556V15.1111C16.2 15.602 15.7971 16 15.3 16H2.7C1.21294 16 0 14.802 0 13.3333V2.66667C0 2.17575 0.402944 1.77778 0.9 1.77778Z" fill="#2D0B5A"/>
<path fill-rule="evenodd" clip-rule="evenodd" d="M11.5908 7.89216C12.0972 7.39206 12.7839 7.11111 13.5 7.11111H17.1C17.5971 7.11111 18 7.50908 18 8V11.5556C18 12.0465 17.5971 12.4444 17.1 12.4444H13.5C12.0129 12.4444 10.8 11.2465 10.8 9.77778C10.8 9.07053 11.0845 8.39226 11.5908 7.89216ZM13.5 8.88889C13.2613 8.88889 13.0324 8.98254 12.8636 9.14924C12.6948 9.31594 12.6 9.54203 12.6 9.77778C12.6 10.2646 13.0071 10.6667 13.5 10.6667H16.2V8.88889H13.5Z" fill="#2D0B5A"/>
</svg>
